<svg xmlns="http://www.w3.org/2000/svg" width="40" height="40" viewBox="0 0 40 40" fill="none">
  <g clip-path="url(#clip0_3321_3680)">
    <path d="M30.814 15.3127C29.7935 13.7659 28.367 12.7326 26.5696 12.2402C26.1436 12.1239 25.7161 12.0514 25.2963 12.0242C25.0818 12.0106 24.829 11.997 24.5777 11.997L14.1459 11.994C13.2113 11.994 12.3731 12.1647 11.5855 12.5136C9.828 13.2931 8.53629 14.8807 8.12871 16.7598C8.07355 17.0121 8.03677 17.2659 8.01685 17.5151C8.01685 17.5378 7.98621 18.0861 8.01685 18.5634C8.03524 18.8429 8.08274 19.1375 8.16395 19.4668C8.68492 21.5952 10.3229 23.2795 12.439 23.861C12.9523 24.003 13.4794 24.074 14.0065 24.0755H17.1875V32.3082H18.3689V26.6224L24.429 26.6254C24.9255 26.6254 25.399 26.574 25.4158 26.5725C25.8648 26.5332 26.3229 26.4441 26.7795 26.3066C29.0871 25.6133 30.9059 23.8338 31.646 21.5468C31.8575 20.8973 31.9663 20.2825 31.9816 19.6737C32.0046 19.281 31.9816 18.9411 31.9816 18.929C31.9295 17.6284 31.5357 16.4109 30.8109 15.3127H30.814ZM28.3547 18.6918C28.678 20.5619 27.492 22.3625 25.6548 22.79C25.3882 22.852 25.1262 22.8822 24.8734 22.8822L18.372 22.8792V15.7387H24.6895C24.8872 15.7387 25.1186 15.7432 25.3484 15.7764C25.9782 15.8686 26.5451 16.1103 27.0354 16.497C27.7587 17.068 28.203 17.8066 28.3562 18.6918H28.3547ZM18.372 24.0786L24.783 24.0921C25.1232 24.0921 25.4296 24.065 25.7238 24.0106C26.5911 23.8474 27.3618 23.4683 28.0145 22.8837C28.8052 22.1767 29.3139 21.2885 29.5238 20.2462C29.6188 19.7749 29.6403 19.2915 29.5882 18.8112C29.4671 17.7115 29.0151 16.7553 28.2459 15.9683C27.5916 15.2976 26.7887 14.8535 25.8602 14.6465C25.5307 14.574 25.1906 14.5378 24.8167 14.5378H17.1906V22.8792L14.1291 22.8731C13.5545 22.8731 13.0335 22.7946 12.534 22.6344C10.9512 22.1254 9.69163 20.7477 9.32541 19.1239C9.22888 18.6934 9.18904 18.29 9.20436 17.8882C9.25493 16.6284 9.72381 15.5378 10.5972 14.645C11.2469 13.9804 12.0437 13.5363 12.9646 13.3248C13.3063 13.2462 13.6556 13.2054 14.0034 13.2054H24.7156C26.1651 13.2085 27.4691 13.6813 28.5892 14.6103C29.6541 15.4924 30.3497 16.6314 30.6577 17.9955C30.7834 18.5483 30.8263 19.1239 30.7864 19.707C30.6424 21.8414 29.4273 23.7115 27.5349 24.7069C26.9374 25.0211 26.2969 25.2326 25.6303 25.3338C25.3545 25.3761 25.0542 25.4003 24.7156 25.4063L18.3735 25.4169V24.0755L18.372 24.0786Z" fill="white"/>
    <path d="M34.1421 5.85801C30.3651 2.08006 25.3423 0 19.9992 0C14.6562 0 9.63493 2.08006 5.85788 5.85801C2.08083 9.63595 0 14.6586 0 20C0 25.3414 2.08083 30.3641 5.85788 34.142C9.63493 37.9199 14.6577 40 19.9992 40C25.3407 40 30.3635 37.9199 34.1406 34.142C37.9176 30.3641 39.9985 25.3414 39.9985 20C39.9985 14.6586 37.9176 9.63595 34.1406 5.85801H34.1421ZM33.1446 33.145C29.6342 36.6556 24.9653 38.5891 20.0008 38.5891C15.0362 38.5891 10.3674 36.6556 6.85692 33.145C3.34648 29.6344 1.41276 24.9653 1.41276 20C1.41276 15.0347 3.34648 10.3671 6.85692 6.85499C10.3674 3.34441 15.0362 1.41088 20.0008 1.41088C24.9653 1.41088 29.6342 3.34441 33.1446 6.85499C36.655 10.3656 38.5888 15.0347 38.5888 20C38.5888 24.9653 36.655 29.6329 33.1446 33.145Z" fill="white"/>
  </g>
  <defs>
    <clipPath id="clip0_3321_3680">
      <rect width="40" height="40" fill="white"/>
    </clipPath>
  </defs>
</svg>
