<svg fill="none" height="443" viewBox="0 0 1028 443" width="1028" xmlns="http://www.w3.org/2000/svg"><path d="m0 0h1028v443h-1028z" fill="#cfffed"/><g fill="#00384f" opacity=".2"><path d="m80.8711 34.7422v1h-.9981v-1zm3.9912 0v1h-1.9961v-1zm3.9912 0v1h-1.9951v-1zm3.9912 0v1h-1.9951v-1zm3.9922 0v1h-1.9961v-1zm3.9911 0v1h-1.996v-1zm3.991 0v1h-1.996v-1zm3.992 0v1h-1.996v-1zm3.991 0v1h-1.995v-1zm3.992 0v1h-1.996v-1zm3.991 0v1h-1.996v-1zm3.991 0v1h-1.996v-1zm3.992 0v1h-1.996v-1zm3.991 0v1h-1.995v-1zm3.992 0v1h-1.996v-1zm3.991 0v1h-1.996v-1zm3.991 0v1h-1.996v-1zm3.992 0v1h-1.996v-1zm3.991 0v1h-1.995v-1zm3.992 0v1h-1.996v-1zm3.991 0v1h-1.996v-1zm3.991 0v1h-1.996v-1zm3.992 0v1h-1.995v-1zm3.991 0v1h-1.995v-1zm3.992 0v1h-1.996v-1zm3.991 0v1h-1.996v-1zm3.991 0v1h-1.996v-1zm3.992 0v1h-1.995v-1zm3.992 0v1h-1.996v-1zm3.991 0v1h-1.996v-1zm3.991 0v1h-1.996v-1zm3.991 0v1h-1.995v-1zm3.992 0v1h-1.995v-1zm3.992 0v1h-1.996v-1zm3.991 0v1h-1.996v-1zm3.991 0v1h-1.996v-1zm3.992 0v1h-1.996v-1zm3.991 0v1h-1.995v-1zm3.992 0v1h-1.996v-1zm3.991 0v1h-1.996v-1zm3.991 0v1h-1.996v-1zm3.992 0v1h-1.996v-1zm3.992 0v1h-1.996v-1zm3.991 0v1h-1.996v-1zm3.991 0v1h-1.996v-1zm3.991 0v1h-1.995v-1zm3.992 0v1h-1.996v-1zm3.992 0v1h-1.996v-1zm3.991 0v1h-1.996v-1zm3.991 0v1h-1.996v-1zm3.991 0v1h-1.995v-1zm3.992 0v1h-1.995v-1zm3.992 0v1h-1.996v-1zm3.991 0v1h-1.996v-1zm3.991 0v1h-1.995v-1zm3.991 0v1h-1.995v-1zm3.993 0v1h-1.996v-1zm3.991 0v1h-1.996v-1zm3.991 0v1h-1.996v-1zm3.991 0v1h-1.995v-1zm3.991 0v1h-1.995v-1zm3.993 0v1h-1.996v-1zm3.991 0v1h-1.996v-1zm3.991 0v1h-1.995v-1zm3.991 0v1h-1.995v-1zm3.992 0v1h-1.996v-1zm3.992 0v1h-1.996v-1zm3.991 0v1h-1.996v-1zm3.991 0v1h-1.996v-1zm3.991 0v1h-1.995v-1zm3.992 0v1h-1.996v-1zm3.992 0v1h-1.996v-1zm3.991 0v1h-1.996v-1zm3.991 0v1h-1.996v-1zm3.991 0v1h-1.995v-1zm3.992 0v1h-1.996v-1zm3.992 0v1h-1.996v-1zm3.991 0v1h-1.996v-1zm3.991 0v1h-1.996v-1zm3.991 0v1h-1.995v-1zm3.992 0v1h-1.996v-1zm3.992 0v1h-1.996v-1zm3.991 0v1h-1.996v-1zm3.991 0v1h-1.996v-1zm3.991 0v1h-1.996v-1zm3.992 0v1h-1.995v-1zm3.991 0v1h-1.995v-1zm3.992 0v1h-1.996v-1zm3.991 0v1h-1.996v-1zm3.991 0v1h-1.996v-1zm3.992 0v1h-1.995v-1zm3.991 0v1h-1.995v-1zm3.992 0v1h-1.996v-1zm3.991 0v1h-1.996v-1zm3.991 0v1h-1.996v-1zm3.992 0v1h-1.995v-1zm3.991 0v1h-1.995v-1zm3.992 0v1h-1.996v-1zm3.991 0v1h-1.996v-1zm3.992 0v1h-1.997v-1zm3.991 0v1h-1.996v-1zm3.991 0v1h-1.995v-1zm3.991 0v1h-1.995v-1zm3.992 0v1h-1.996v-1zm3.992 0v1h-1.997v-1zm3.991 0v1h-1.996v-1zm3.991 0v1h-1.995v-1zm3.991 0v1h-1.995v-1zm3.992 0v1h-1.996v-1zm3.992 0v1h-1.997v-1zm3.991 0v1h-1.996v-1zm3.991 0v1h-1.995v-1zm3.991 0v1h-1.995v-1zm3.992 0v1h-1.996v-1zm3.992 0v1h-1.996v-1zm3.991 0v1h-1.996v-1zm3.991 0v1h-1.996v-1zm3.991 0v1h-1.995v-1zm3.991 0v1h-1.995v-1zm3.993 0v1h-1.996v-1zm3.991 0v1h-1.996v-1zm3.991 0v1h-1.996v-1zm3.991 0v1h-1.995v-1zm3.991 0v1h-1.995v-1zm3.993 0v1h-1.996v-1zm3.991 0v1h-1.996v-1zm3.991 0v1h-1.996v-1zm3.991 0v1h-1.995v-1zm3.992 0v1h-1.996v-1zm3.992 0v1h-1.996v-1zm3.991 0v1h-1.996v-1zm3.991 0v1h-1.996v-1zm3.991 0v1h-1.995v-1zm3.993 0v1h-1.997v-1zm3.991 0v1h-1.996v-1zm3.991 0v1h-1.996v-1zm3.991 0v1h-1.995v-1zm3.992 0v1h-1.996v-1zm3.992 0v1h-1.997v-1zm3.991 0v1h-1.996v-1zm3.991 0v1h-1.995v-1zm3.992 0v1h-1.996v-1zm3.991 0v1h-1.996v-1zm3.992 0v1h-1.997v-1zm3.991 0v1h-1.995v-1zm3.992 0v1h-1.996v-1zm3.991 0v1h-1.996v-1zm3.991 0v1h-1.996v-1zm3.992 0v1h-1.996v-1zm3.992 0v1h-1.996v-1zm3.991 0v1h-1.996v-1zm3.991 0v1h-1.996v-1zm3.991 0v1h-1.995v-1zm3.993 0v1h-1.996v-1zm3.991 0v1h-1.996v-1zm3.991 0v1h-1.996v-1zm3.991 0v1h-1.995v-1zm3.992 0v1h-1.996v-1zm3.992 0v1h-1.996v-1zm3.991 0v1h-1.996v-1zm3.991 0v1h-1.995v-1zm3.992 0v1h-1.996v-1zm3.991 0v1h-1.996v-1zm3.992 0v1h-1.996v-1zm3.991 0v1h-1.995v-1zm3.992 0v1h-1.996v-1zm3.991 0v1h-1.996v-1zm3.992 0v1h-1.997v-1zm3.991 0v1h-1.995v-1zm3.992 0v1h-1.996v-1zm3.991 0v1h-1.996v-1zm3.991 0v1h-1.996v-1zm3.992 0v1h-1.996v-1zm3.992 0v1h-1.996v-1zm3.991 0v1h-1.996v-1zm3.991 0v1h-1.996v-1zm3.991 0v1h-1.995v-1zm3.993 0v1h-1.997v-1zm3.991 0v1h-1.996v-1zm3.991 0v1h-1.996v-1zm3.991 0v1h-1.995v-1zm3.992 0v1h-1.996v-1zm3.992 0v1h-1.997v-1zm3.991 0v1h-1.996v-1zm3.991 0v1h-1.995v-1zm3.992 0v1h-1.996v-1zm3.991 0v1h-1.996v-1zm3.992 0v1h-1.996v-1zm3.991 0v1h-1.995v-1zm3.992 0v1h-1.996v-1zm3.991 0v1h-1.996v-1zm3.991 0v1h-1.996v-1zm3.992 0v1h-1.995v-1zm3.992 0v1h-1.996v-1zm3.991 0v1h-1.996v-1zm3.991 0v1h-1.996v-1zm3.991 0v1h-1.995v-1zm3.993 0v1h-1.996v-1zm3.991 0v1h-1.996v-1zm3.991 0v1h-1.996v-1zm3.991 0v1h-1.995v-1zm3.992 0v1h-1.996v-1zm3.992 0v1h-1.996v-1zm3.991 0v1h-1.996v-1zm3.991 0v1h-1.995v-1zm3.992 0v1h-1.996v-1zm3.991 0v1h-1.996v-1zm3.992 0v1h-1.996v-1zm3.991 0v1h-1.995v-1zm3.992 0v1h-1.996v-1zm3.991 0v1h-1.996v-1zm3.992 0v1h-1.997v-1zm3.991 0v1h-1.995v-1zm3.992 0v1h-1.996v-1zm3.991 0v1h-1.996v-1zm3.991 0v1h-1.996v-1zm3.992 0v1h-1.996v-1zm3.992 0v1h-1.996v-1zm3.991 0v1h-1.996v-1zm3.991 0v1h-1.996v-1zm3.991 0v1h-1.995v-1zm3.993 0v1h-1.997v-1zm3.991 0v1h-1.996v-1zm3.991 0v1h-1.996v-1zm3.991 0v1h-1.995v-1zm3.992 0v1h-1.996v-1zm3.992 0v1h-1.996v-1zm3.991 0v1h-1.996v-1zm2.99 0v1h-.994v-1z"/><path d="m80.8711 115.742v1h-.9981v-1zm3.9912 0v1h-1.9961v-1zm3.9912 0v1h-1.9951v-1zm3.9912 0v1h-1.9951v-1zm3.9922 0v1h-1.9961v-1zm3.9911 0v1h-1.996v-1zm3.991 0v1h-1.996v-1zm3.992 0v1h-1.996v-1zm3.991 0v1h-1.995v-1zm3.992 0v1h-1.996v-1zm3.991 0v1h-1.996v-1zm3.991 0v1h-1.996v-1zm3.992 0v1h-1.996v-1zm3.991 0v1h-1.995v-1zm3.992 0v1h-1.996v-1zm3.991 0v1h-1.996v-1zm3.991 0v1h-1.996v-1zm3.992 0v1h-1.996v-1zm3.991 0v1h-1.995v-1zm3.992 0v1h-1.996v-1zm3.991 0v1h-1.996v-1zm3.991 0v1h-1.996v-1zm3.992 0v1h-1.995v-1zm3.991 0v1h-1.995v-1zm3.992 0v1h-1.996v-1zm3.991 0v1h-1.996v-1zm3.991 0v1h-1.996v-1zm3.992 0v1h-1.995v-1zm3.992 0v1h-1.996v-1zm3.991 0v1h-1.996v-1zm3.991 0v1h-1.996v-1zm3.991 0v1h-1.995v-1zm3.992 0v1h-1.995v-1zm3.992 0v1h-1.996v-1zm3.991 0v1h-1.996v-1zm3.991 0v1h-1.996v-1zm3.992 0v1h-1.996v-1zm3.991 0v1h-1.995v-1zm3.992 0v1h-1.996v-1zm3.991 0v1h-1.996v-1zm3.991 0v1h-1.996v-1zm3.992 0v1h-1.996v-1zm3.992 0v1h-1.996v-1zm3.991 0v1h-1.996v-1zm3.991 0v1h-1.996v-1zm3.991 0v1h-1.995v-1zm3.992 0v1h-1.996v-1zm3.992 0v1h-1.996v-1zm3.991 0v1h-1.996v-1zm3.991 0v1h-1.996v-1zm3.991 0v1h-1.995v-1zm3.992 0v1h-1.995v-1zm3.992 0v1h-1.996v-1zm3.991 0v1h-1.996v-1zm3.991 0v1h-1.995v-1zm3.991 0v1h-1.995v-1zm3.993 0v1h-1.996v-1zm3.991 0v1h-1.996v-1zm3.991 0v1h-1.996v-1zm3.991 0v1h-1.995v-1zm3.991 0v1h-1.995v-1zm3.993 0v1h-1.996v-1zm3.991 0v1h-1.996v-1zm3.991 0v1h-1.995v-1zm3.991 0v1h-1.995v-1zm3.992 0v1h-1.996v-1zm3.992 0v1h-1.996v-1zm3.991 0v1h-1.996v-1zm3.991 0v1h-1.996v-1zm3.991 0v1h-1.995v-1zm3.992 0v1h-1.996v-1zm3.992 0v1h-1.996v-1zm3.991 0v1h-1.996v-1zm3.991 0v1h-1.996v-1zm3.991 0v1h-1.995v-1zm3.992 0v1h-1.996v-1zm3.992 0v1h-1.996v-1zm3.991 0v1h-1.996v-1zm3.991 0v1h-1.996v-1zm3.991 0v1h-1.995v-1zm3.992 0v1h-1.996v-1zm3.992 0v1h-1.996v-1zm3.991 0v1h-1.996v-1zm3.991 0v1h-1.996v-1zm3.991 0v1h-1.996v-1zm3.992 0v1h-1.995v-1zm3.991 0v1h-1.995v-1zm3.992 0v1h-1.996v-1zm3.991 0v1h-1.996v-1zm3.991 0v1h-1.996v-1zm3.992 0v1h-1.995v-1zm3.991 0v1h-1.995v-1zm3.992 0v1h-1.996v-1zm3.991 0v1h-1.996v-1zm3.991 0v1h-1.996v-1zm3.992 0v1h-1.995v-1zm3.991 0v1h-1.995v-1zm3.992 0v1h-1.996v-1zm3.991 0v1h-1.996v-1zm3.992 0v1h-1.997v-1zm3.991 0v1h-1.996v-1zm3.991 0v1h-1.995v-1zm3.991 0v1h-1.995v-1zm3.992 0v1h-1.996v-1zm3.992 0v1h-1.997v-1zm3.991 0v1h-1.996v-1zm3.991 0v1h-1.995v-1zm3.991 0v1h-1.995v-1zm3.992 0v1h-1.996v-1zm3.992 0v1h-1.997v-1zm3.991 0v1h-1.996v-1zm3.991 0v1h-1.995v-1zm3.991 0v1h-1.995v-1zm3.992 0v1h-1.996v-1zm3.992 0v1h-1.996v-1zm3.991 0v1h-1.996v-1zm3.991 0v1h-1.996v-1zm3.991 0v1h-1.995v-1zm3.991 0v1h-1.995v-1zm3.993 0v1h-1.996v-1zm3.991 0v1h-1.996v-1zm3.991 0v1h-1.996v-1zm3.991 0v1h-1.995v-1zm3.991 0v1h-1.995v-1zm3.993 0v1h-1.996v-1zm3.991 0v1h-1.996v-1zm3.991 0v1h-1.996v-1zm3.991 0v1h-1.995v-1zm3.992 0v1h-1.996v-1zm3.992 0v1h-1.996v-1zm3.991 0v1h-1.996v-1zm3.991 0v1h-1.996v-1zm3.991 0v1h-1.995v-1zm3.993 0v1h-1.997v-1zm3.991 0v1h-1.996v-1zm3.991 0v1h-1.996v-1zm3.991 0v1h-1.995v-1zm3.992 0v1h-1.996v-1zm3.992 0v1h-1.997v-1zm3.991 0v1h-1.996v-1zm3.991 0v1h-1.995v-1zm3.992 0v1h-1.996v-1zm3.991 0v1h-1.996v-1zm3.992 0v1h-1.997v-1zm3.991 0v1h-1.995v-1zm3.992 0v1h-1.996v-1zm3.991 0v1h-1.996v-1zm3.991 0v1h-1.996v-1zm3.992 0v1h-1.996v-1zm3.992 0v1h-1.996v-1zm3.991 0v1h-1.996v-1zm3.991 0v1h-1.996v-1zm3.991 0v1h-1.995v-1zm3.993 0v1h-1.996v-1zm3.991 0v1h-1.996v-1zm3.991 0v1h-1.996v-1zm3.991 0v1h-1.995v-1zm3.992 0v1h-1.996v-1zm3.992 0v1h-1.996v-1zm3.991 0v1h-1.996v-1zm3.991 0v1h-1.995v-1zm3.992 0v1h-1.996v-1zm3.991 0v1h-1.996v-1zm3.992 0v1h-1.996v-1zm3.991 0v1h-1.995v-1zm3.992 0v1h-1.996v-1zm3.991 0v1h-1.996v-1zm3.992 0v1h-1.997v-1zm3.991 0v1h-1.995v-1zm3.992 0v1h-1.996v-1zm3.991 0v1h-1.996v-1zm3.991 0v1h-1.996v-1zm3.992 0v1h-1.996v-1zm3.992 0v1h-1.996v-1zm3.991 0v1h-1.996v-1zm3.991 0v1h-1.996v-1zm3.991 0v1h-1.995v-1zm3.993 0v1h-1.997v-1zm3.991 0v1h-1.996v-1zm3.991 0v1h-1.996v-1zm3.991 0v1h-1.995v-1zm3.992 0v1h-1.996v-1zm3.992 0v1h-1.997v-1zm3.991 0v1h-1.996v-1zm3.991 0v1h-1.995v-1zm3.992 0v1h-1.996v-1zm3.991 0v1h-1.996v-1zm3.992 0v1h-1.996v-1zm3.991 0v1h-1.995v-1zm3.992 0v1h-1.996v-1zm3.991 0v1h-1.996v-1zm3.991 0v1h-1.996v-1zm3.992 0v1h-1.995v-1zm3.992 0v1h-1.996v-1zm3.991 0v1h-1.996v-1zm3.991 0v1h-1.996v-1zm3.991 0v1h-1.995v-1zm3.993 0v1h-1.996v-1zm3.991 0v1h-1.996v-1zm3.991 0v1h-1.996v-1zm3.991 0v1h-1.995v-1zm3.992 0v1h-1.996v-1zm3.992 0v1h-1.996v-1zm3.991 0v1h-1.996v-1zm3.991 0v1h-1.995v-1zm3.992 0v1h-1.996v-1zm3.991 0v1h-1.996v-1zm3.992 0v1h-1.996v-1zm3.991 0v1h-1.995v-1zm3.992 0v1h-1.996v-1zm3.991 0v1h-1.996v-1zm3.992 0v1h-1.997v-1zm3.991 0v1h-1.995v-1zm3.992 0v1h-1.996v-1zm3.991 0v1h-1.996v-1zm3.991 0v1h-1.996v-1zm3.992 0v1h-1.996v-1zm3.992 0v1h-1.996v-1zm3.991 0v1h-1.996v-1zm3.991 0v1h-1.996v-1zm3.991 0v1h-1.995v-1zm3.993 0v1h-1.997v-1zm3.991 0v1h-1.996v-1zm3.991 0v1h-1.996v-1zm3.991 0v1h-1.995v-1zm3.992 0v1h-1.996v-1zm3.992 0v1h-1.996v-1zm3.991 0v1h-1.996v-1zm2.99 0v1h-.994v-1z"/><path d="m80.8711 196.742v1h-.9981v-1zm3.9912 0v1h-1.9961v-1zm3.9912 0v1h-1.9951v-1zm3.9912 0v1h-1.9951v-1zm3.9922 0v1h-1.9961v-1zm3.9911 0v1h-1.996v-1zm3.991 0v1h-1.996v-1zm3.992 0v1h-1.996v-1zm3.991 0v1h-1.995v-1zm3.992 0v1h-1.996v-1zm3.991 0v1h-1.996v-1zm3.991 0v1h-1.996v-1zm3.992 0v1h-1.996v-1zm3.991 0v1h-1.995v-1zm3.992 0v1h-1.996v-1zm3.991 0v1h-1.996v-1zm3.991 0v1h-1.996v-1zm3.992 0v1h-1.996v-1zm3.991 0v1h-1.995v-1zm3.992 0v1h-1.996v-1zm3.991 0v1h-1.996v-1zm3.991 0v1h-1.996v-1zm3.992 0v1h-1.995v-1zm3.991 0v1h-1.995v-1zm3.992 0v1h-1.996v-1zm3.991 0v1h-1.996v-1zm3.991 0v1h-1.996v-1zm3.992 0v1h-1.995v-1zm3.992 0v1h-1.996v-1zm3.991 0v1h-1.996v-1zm3.991 0v1h-1.996v-1zm3.991 0v1h-1.995v-1zm3.992 0v1h-1.995v-1zm3.992 0v1h-1.996v-1zm3.991 0v1h-1.996v-1zm3.991 0v1h-1.996v-1zm3.992 0v1h-1.996v-1zm3.991 0v1h-1.995v-1zm3.992 0v1h-1.996v-1zm3.991 0v1h-1.996v-1zm3.991 0v1h-1.996v-1zm3.992 0v1h-1.996v-1zm3.992 0v1h-1.996v-1zm3.991 0v1h-1.996v-1zm3.991 0v1h-1.996v-1zm3.991 0v1h-1.995v-1zm3.992 0v1h-1.996v-1zm3.992 0v1h-1.996v-1zm3.991 0v1h-1.996v-1zm3.991 0v1h-1.996v-1zm3.991 0v1h-1.995v-1zm3.992 0v1h-1.995v-1zm3.992 0v1h-1.996v-1zm3.991 0v1h-1.996v-1zm3.991 0v1h-1.995v-1zm3.991 0v1h-1.995v-1zm3.993 0v1h-1.996v-1zm3.991 0v1h-1.996v-1zm3.991 0v1h-1.996v-1zm3.991 0v1h-1.995v-1zm3.991 0v1h-1.995v-1zm3.993 0v1h-1.996v-1zm3.991 0v1h-1.996v-1zm3.991 0v1h-1.995v-1zm3.991 0v1h-1.995v-1zm3.992 0v1h-1.996v-1zm3.992 0v1h-1.996v-1zm3.991 0v1h-1.996v-1zm3.991 0v1h-1.996v-1zm3.991 0v1h-1.995v-1zm3.992 0v1h-1.996v-1zm3.992 0v1h-1.996v-1zm3.991 0v1h-1.996v-1zm3.991 0v1h-1.996v-1zm3.991 0v1h-1.995v-1zm3.992 0v1h-1.996v-1zm3.992 0v1h-1.996v-1zm3.991 0v1h-1.996v-1zm3.991 0v1h-1.996v-1zm3.991 0v1h-1.995v-1zm3.992 0v1h-1.996v-1zm3.992 0v1h-1.996v-1zm3.991 0v1h-1.996v-1zm3.991 0v1h-1.996v-1zm3.991 0v1h-1.996v-1zm3.992 0v1h-1.995v-1zm3.991 0v1h-1.995v-1zm3.992 0v1h-1.996v-1zm3.991 0v1h-1.996v-1zm3.991 0v1h-1.996v-1zm3.992 0v1h-1.995v-1zm3.991 0v1h-1.995v-1zm3.992 0v1h-1.996v-1zm3.991 0v1h-1.996v-1zm3.991 0v1h-1.996v-1zm3.992 0v1h-1.995v-1zm3.991 0v1h-1.995v-1zm3.992 0v1h-1.996v-1zm3.991 0v1h-1.996v-1zm3.992 0v1h-1.997v-1zm3.991 0v1h-1.996v-1zm3.991 0v1h-1.995v-1zm3.991 0v1h-1.995v-1zm3.992 0v1h-1.996v-1zm3.992 0v1h-1.997v-1zm3.991 0v1h-1.996v-1zm3.991 0v1h-1.995v-1zm3.991 0v1h-1.995v-1zm3.992 0v1h-1.996v-1zm3.992 0v1h-1.997v-1zm3.991 0v1h-1.996v-1zm3.991 0v1h-1.995v-1zm3.991 0v1h-1.995v-1zm3.992 0v1h-1.996v-1zm3.992 0v1h-1.996v-1zm3.991 0v1h-1.996v-1zm3.991 0v1h-1.996v-1zm3.991 0v1h-1.995v-1zm3.991 0v1h-1.995v-1zm3.993 0v1h-1.996v-1zm3.991 0v1h-1.996v-1zm3.991 0v1h-1.996v-1zm3.991 0v1h-1.995v-1zm3.991 0v1h-1.995v-1zm3.993 0v1h-1.996v-1zm3.991 0v1h-1.996v-1zm3.991 0v1h-1.996v-1zm3.991 0v1h-1.995v-1zm3.992 0v1h-1.996v-1zm3.992 0v1h-1.996v-1zm3.991 0v1h-1.996v-1zm3.991 0v1h-1.996v-1zm3.991 0v1h-1.995v-1zm3.993 0v1h-1.997v-1zm3.991 0v1h-1.996v-1zm3.991 0v1h-1.996v-1zm3.991 0v1h-1.995v-1zm3.992 0v1h-1.996v-1zm3.992 0v1h-1.997v-1zm3.991 0v1h-1.996v-1zm3.991 0v1h-1.995v-1zm3.992 0v1h-1.996v-1zm3.991 0v1h-1.996v-1zm3.992 0v1h-1.997v-1zm3.991 0v1h-1.995v-1zm3.992 0v1h-1.996v-1zm3.991 0v1h-1.996v-1zm3.991 0v1h-1.996v-1zm3.992 0v1h-1.996v-1zm3.992 0v1h-1.996v-1zm3.991 0v1h-1.996v-1zm3.991 0v1h-1.996v-1zm3.991 0v1h-1.995v-1zm3.993 0v1h-1.996v-1zm3.991 0v1h-1.996v-1zm3.991 0v1h-1.996v-1zm3.991 0v1h-1.995v-1zm3.992 0v1h-1.996v-1zm3.992 0v1h-1.996v-1zm3.991 0v1h-1.996v-1zm3.991 0v1h-1.995v-1zm3.992 0v1h-1.996v-1zm3.991 0v1h-1.996v-1zm3.992 0v1h-1.996v-1zm3.991 0v1h-1.995v-1zm3.992 0v1h-1.996v-1zm3.991 0v1h-1.996v-1zm3.992 0v1h-1.997v-1zm3.991 0v1h-1.995v-1zm3.992 0v1h-1.996v-1zm3.991 0v1h-1.996v-1zm3.991 0v1h-1.996v-1zm3.992 0v1h-1.996v-1zm3.992 0v1h-1.996v-1zm3.991 0v1h-1.996v-1zm3.991 0v1h-1.996v-1zm3.991 0v1h-1.995v-1zm3.993 0v1h-1.997v-1zm3.991 0v1h-1.996v-1zm3.991 0v1h-1.996v-1zm3.991 0v1h-1.995v-1zm3.992 0v1h-1.996v-1zm3.992 0v1h-1.997v-1zm3.991 0v1h-1.996v-1zm3.991 0v1h-1.995v-1zm3.992 0v1h-1.996v-1zm3.991 0v1h-1.996v-1zm3.992 0v1h-1.996v-1zm3.991 0v1h-1.995v-1zm3.992 0v1h-1.996v-1zm3.991 0v1h-1.996v-1zm3.991 0v1h-1.996v-1zm3.992 0v1h-1.995v-1zm3.992 0v1h-1.996v-1zm3.991 0v1h-1.996v-1zm3.991 0v1h-1.996v-1zm3.991 0v1h-1.995v-1zm3.993 0v1h-1.996v-1zm3.991 0v1h-1.996v-1zm3.991 0v1h-1.996v-1zm3.991 0v1h-1.995v-1zm3.992 0v1h-1.996v-1zm3.992 0v1h-1.996v-1zm3.991 0v1h-1.996v-1zm3.991 0v1h-1.995v-1zm3.992 0v1h-1.996v-1zm3.991 0v1h-1.996v-1zm3.992 0v1h-1.996v-1zm3.991 0v1h-1.995v-1zm3.992 0v1h-1.996v-1zm3.991 0v1h-1.996v-1zm3.992 0v1h-1.997v-1zm3.991 0v1h-1.995v-1zm3.992 0v1h-1.996v-1zm3.991 0v1h-1.996v-1zm3.991 0v1h-1.996v-1zm3.992 0v1h-1.996v-1zm3.992 0v1h-1.996v-1zm3.991 0v1h-1.996v-1zm3.991 0v1h-1.996v-1zm3.991 0v1h-1.995v-1zm3.993 0v1h-1.997v-1zm3.991 0v1h-1.996v-1zm3.991 0v1h-1.996v-1zm3.991 0v1h-1.995v-1zm3.992 0v1h-1.996v-1zm3.992 0v1h-1.996v-1zm3.991 0v1h-1.996v-1zm2.99 0v1h-.994v-1z"/><path d="m80.8711 277.742v1h-.9981v-1zm3.9912 0v1h-1.9961v-1zm3.9912 0v1h-1.9951v-1zm3.9912 0v1h-1.9951v-1zm3.9922 0v1h-1.9961v-1zm3.9911 0v1h-1.996v-1zm3.991 0v1h-1.996v-1zm3.992 0v1h-1.996v-1zm3.991 0v1h-1.995v-1zm3.992 0v1h-1.996v-1zm3.991 0v1h-1.996v-1zm3.991 0v1h-1.996v-1zm3.992 0v1h-1.996v-1zm3.991 0v1h-1.995v-1zm3.992 0v1h-1.996v-1zm3.991 0v1h-1.996v-1zm3.991 0v1h-1.996v-1zm3.992 0v1h-1.996v-1zm3.991 0v1h-1.995v-1zm3.992 0v1h-1.996v-1zm3.991 0v1h-1.996v-1zm3.991 0v1h-1.996v-1zm3.992 0v1h-1.995v-1zm3.991 0v1h-1.995v-1zm3.992 0v1h-1.996v-1zm3.991 0v1h-1.996v-1zm3.991 0v1h-1.996v-1zm3.992 0v1h-1.995v-1zm3.992 0v1h-1.996v-1zm3.991 0v1h-1.996v-1zm3.991 0v1h-1.996v-1zm3.991 0v1h-1.995v-1zm3.992 0v1h-1.995v-1zm3.992 0v1h-1.996v-1zm3.991 0v1h-1.996v-1zm3.991 0v1h-1.996v-1zm3.992 0v1h-1.996v-1zm3.991 0v1h-1.995v-1zm3.992 0v1h-1.996v-1zm3.991 0v1h-1.996v-1zm3.991 0v1h-1.996v-1zm3.992 0v1h-1.996v-1zm3.992 0v1h-1.996v-1zm3.991 0v1h-1.996v-1zm3.991 0v1h-1.996v-1zm3.991 0v1h-1.995v-1zm3.992 0v1h-1.996v-1zm3.992 0v1h-1.996v-1zm3.991 0v1h-1.996v-1zm3.991 0v1h-1.996v-1zm3.991 0v1h-1.995v-1zm3.992 0v1h-1.995v-1zm3.992 0v1h-1.996v-1zm3.991 0v1h-1.996v-1zm3.991 0v1h-1.995v-1zm3.991 0v1h-1.995v-1zm3.993 0v1h-1.996v-1zm3.991 0v1h-1.996v-1zm3.991 0v1h-1.996v-1zm3.991 0v1h-1.995v-1zm3.991 0v1h-1.995v-1zm3.993 0v1h-1.996v-1zm3.991 0v1h-1.996v-1zm3.991 0v1h-1.995v-1zm3.991 0v1h-1.995v-1zm3.992 0v1h-1.996v-1zm3.992 0v1h-1.996v-1zm3.991 0v1h-1.996v-1zm3.991 0v1h-1.996v-1zm3.991 0v1h-1.995v-1zm3.992 0v1h-1.996v-1zm3.992 0v1h-1.996v-1zm3.991 0v1h-1.996v-1zm3.991 0v1h-1.996v-1zm3.991 0v1h-1.995v-1zm3.992 0v1h-1.996v-1zm3.992 0v1h-1.996v-1zm3.991 0v1h-1.996v-1zm3.991 0v1h-1.996v-1zm3.991 0v1h-1.995v-1zm3.992 0v1h-1.996v-1zm3.992 0v1h-1.996v-1zm3.991 0v1h-1.996v-1zm3.991 0v1h-1.996v-1zm3.991 0v1h-1.996v-1zm3.992 0v1h-1.995v-1zm3.991 0v1h-1.995v-1zm3.992 0v1h-1.996v-1zm3.991 0v1h-1.996v-1zm3.991 0v1h-1.996v-1zm3.992 0v1h-1.995v-1zm3.991 0v1h-1.995v-1zm3.992 0v1h-1.996v-1zm3.991 0v1h-1.996v-1zm3.991 0v1h-1.996v-1zm3.992 0v1h-1.995v-1zm3.991 0v1h-1.995v-1zm3.992 0v1h-1.996v-1zm3.991 0v1h-1.996v-1zm3.992 0v1h-1.997v-1zm3.991 0v1h-1.996v-1zm3.991 0v1h-1.995v-1zm3.991 0v1h-1.995v-1zm3.992 0v1h-1.996v-1zm3.992 0v1h-1.997v-1zm3.991 0v1h-1.996v-1zm3.991 0v1h-1.995v-1zm3.991 0v1h-1.995v-1zm3.992 0v1h-1.996v-1zm3.992 0v1h-1.997v-1zm3.991 0v1h-1.996v-1zm3.991 0v1h-1.995v-1zm3.991 0v1h-1.995v-1zm3.992 0v1h-1.996v-1zm3.992 0v1h-1.996v-1zm3.991 0v1h-1.996v-1zm3.991 0v1h-1.996v-1zm3.991 0v1h-1.995v-1zm3.991 0v1h-1.995v-1zm3.993 0v1h-1.996v-1zm3.991 0v1h-1.996v-1zm3.991 0v1h-1.996v-1zm3.991 0v1h-1.995v-1zm3.991 0v1h-1.995v-1zm3.993 0v1h-1.996v-1zm3.991 0v1h-1.996v-1zm3.991 0v1h-1.996v-1zm3.991 0v1h-1.995v-1zm3.992 0v1h-1.996v-1zm3.992 0v1h-1.996v-1zm3.991 0v1h-1.996v-1zm3.991 0v1h-1.996v-1zm3.991 0v1h-1.995v-1zm3.993 0v1h-1.997v-1zm3.991 0v1h-1.996v-1zm3.991 0v1h-1.996v-1zm3.991 0v1h-1.995v-1zm3.992 0v1h-1.996v-1zm3.992 0v1h-1.997v-1zm3.991 0v1h-1.996v-1zm3.991 0v1h-1.995v-1zm3.992 0v1h-1.996v-1zm3.991 0v1h-1.996v-1zm3.992 0v1h-1.997v-1zm3.991 0v1h-1.995v-1zm3.992 0v1h-1.996v-1zm3.991 0v1h-1.996v-1zm3.991 0v1h-1.996v-1zm3.992 0v1h-1.996v-1zm3.992 0v1h-1.996v-1zm3.991 0v1h-1.996v-1zm3.991 0v1h-1.996v-1zm3.991 0v1h-1.995v-1zm3.993 0v1h-1.996v-1zm3.991 0v1h-1.996v-1zm3.991 0v1h-1.996v-1zm3.991 0v1h-1.995v-1zm3.992 0v1h-1.996v-1zm3.992 0v1h-1.996v-1zm3.991 0v1h-1.996v-1zm3.991 0v1h-1.995v-1zm3.992 0v1h-1.996v-1zm3.991 0v1h-1.996v-1zm3.992 0v1h-1.996v-1zm3.991 0v1h-1.995v-1zm3.992 0v1h-1.996v-1zm3.991 0v1h-1.996v-1zm3.992 0v1h-1.997v-1zm3.991 0v1h-1.995v-1zm3.992 0v1h-1.996v-1zm3.991 0v1h-1.996v-1zm3.991 0v1h-1.996v-1zm3.992 0v1h-1.996v-1zm3.992 0v1h-1.996v-1zm3.991 0v1h-1.996v-1zm3.991 0v1h-1.996v-1zm3.991 0v1h-1.995v-1zm3.993 0v1h-1.997v-1zm3.991 0v1h-1.996v-1zm3.991 0v1h-1.996v-1zm3.991 0v1h-1.995v-1zm3.992 0v1h-1.996v-1zm3.992 0v1h-1.997v-1zm3.991 0v1h-1.996v-1zm3.991 0v1h-1.995v-1zm3.992 0v1h-1.996v-1zm3.991 0v1h-1.996v-1zm3.992 0v1h-1.996v-1zm3.991 0v1h-1.995v-1zm3.992 0v1h-1.996v-1zm3.991 0v1h-1.996v-1zm3.991 0v1h-1.996v-1zm3.992 0v1h-1.995v-1zm3.992 0v1h-1.996v-1zm3.991 0v1h-1.996v-1zm3.991 0v1h-1.996v-1zm3.991 0v1h-1.995v-1zm3.993 0v1h-1.996v-1zm3.991 0v1h-1.996v-1zm3.991 0v1h-1.996v-1zm3.991 0v1h-1.995v-1zm3.992 0v1h-1.996v-1zm3.992 0v1h-1.996v-1zm3.991 0v1h-1.996v-1zm3.991 0v1h-1.995v-1zm3.992 0v1h-1.996v-1zm3.991 0v1h-1.996v-1zm3.992 0v1h-1.996v-1zm3.991 0v1h-1.995v-1zm3.992 0v1h-1.996v-1zm3.991 0v1h-1.996v-1zm3.992 0v1h-1.997v-1zm3.991 0v1h-1.995v-1zm3.992 0v1h-1.996v-1zm3.991 0v1h-1.996v-1zm3.991 0v1h-1.996v-1zm3.992 0v1h-1.996v-1zm3.992 0v1h-1.996v-1zm3.991 0v1h-1.996v-1zm3.991 0v1h-1.996v-1zm3.991 0v1h-1.995v-1zm3.993 0v1h-1.997v-1zm3.991 0v1h-1.996v-1zm3.991 0v1h-1.996v-1zm3.991 0v1h-1.995v-1zm3.992 0v1h-1.996v-1zm3.992 0v1h-1.996v-1zm3.991 0v1h-1.996v-1zm2.99 0v1h-.994v-1z"/><path d="m80.8711 358.742v1h-.9981v-1zm3.9912 0v1h-1.9961v-1zm3.9912 0v1h-1.9951v-1zm3.9912 0v1h-1.9951v-1zm3.9922 0v1h-1.9961v-1zm3.9911 0v1h-1.996v-1zm3.991 0v1h-1.996v-1zm3.992 0v1h-1.996v-1zm3.991 0v1h-1.995v-1zm3.992 0v1h-1.996v-1zm3.991 0v1h-1.996v-1zm3.991 0v1h-1.996v-1zm3.992 0v1h-1.996v-1zm3.991 0v1h-1.995v-1zm3.992 0v1h-1.996v-1zm3.991 0v1h-1.996v-1zm3.991 0v1h-1.996v-1zm3.992 0v1h-1.996v-1zm3.991 0v1h-1.995v-1zm3.992 0v1h-1.996v-1zm3.991 0v1h-1.996v-1zm3.991 0v1h-1.996v-1zm3.992 0v1h-1.995v-1zm3.991 0v1h-1.995v-1zm3.992 0v1h-1.996v-1zm3.991 0v1h-1.996v-1zm3.991 0v1h-1.996v-1zm3.992 0v1h-1.995v-1zm3.992 0v1h-1.996v-1zm3.991 0v1h-1.996v-1zm3.991 0v1h-1.996v-1zm3.991 0v1h-1.995v-1zm3.992 0v1h-1.995v-1zm3.992 0v1h-1.996v-1zm3.991 0v1h-1.996v-1zm3.991 0v1h-1.996v-1zm3.992 0v1h-1.996v-1zm3.991 0v1h-1.995v-1zm3.992 0v1h-1.996v-1zm3.991 0v1h-1.996v-1zm3.991 0v1h-1.996v-1zm3.992 0v1h-1.996v-1zm3.992 0v1h-1.996v-1zm3.991 0v1h-1.996v-1zm3.991 0v1h-1.996v-1zm3.991 0v1h-1.995v-1zm3.992 0v1h-1.996v-1zm3.992 0v1h-1.996v-1zm3.991 0v1h-1.996v-1zm3.991 0v1h-1.996v-1zm3.991 0v1h-1.995v-1zm3.992 0v1h-1.995v-1zm3.992 0v1h-1.996v-1zm3.991 0v1h-1.996v-1zm3.991 0v1h-1.995v-1zm3.991 0v1h-1.995v-1zm3.993 0v1h-1.996v-1zm3.991 0v1h-1.996v-1zm3.991 0v1h-1.996v-1zm3.991 0v1h-1.995v-1zm3.991 0v1h-1.995v-1zm3.993 0v1h-1.996v-1zm3.991 0v1h-1.996v-1zm3.991 0v1h-1.995v-1zm3.991 0v1h-1.995v-1zm3.992 0v1h-1.996v-1zm3.992 0v1h-1.996v-1zm3.991 0v1h-1.996v-1zm3.991 0v1h-1.996v-1zm3.991 0v1h-1.995v-1zm3.992 0v1h-1.996v-1zm3.992 0v1h-1.996v-1zm3.991 0v1h-1.996v-1zm3.991 0v1h-1.996v-1zm3.991 0v1h-1.995v-1zm3.992 0v1h-1.996v-1zm3.992 0v1h-1.996v-1zm3.991 0v1h-1.996v-1zm3.991 0v1h-1.996v-1zm3.991 0v1h-1.995v-1zm3.992 0v1h-1.996v-1zm3.992 0v1h-1.996v-1zm3.991 0v1h-1.996v-1zm3.991 0v1h-1.996v-1zm3.991 0v1h-1.996v-1zm3.992 0v1h-1.995v-1zm3.991 0v1h-1.995v-1zm3.992 0v1h-1.996v-1zm3.991 0v1h-1.996v-1zm3.991 0v1h-1.996v-1zm3.992 0v1h-1.995v-1zm3.991 0v1h-1.995v-1zm3.992 0v1h-1.996v-1zm3.991 0v1h-1.996v-1zm3.991 0v1h-1.996v-1zm3.992 0v1h-1.995v-1zm3.991 0v1h-1.995v-1zm3.992 0v1h-1.996v-1zm3.991 0v1h-1.996v-1zm3.992 0v1h-1.997v-1zm3.991 0v1h-1.996v-1zm3.991 0v1h-1.995v-1zm3.991 0v1h-1.995v-1zm3.992 0v1h-1.996v-1zm3.992 0v1h-1.997v-1zm3.991 0v1h-1.996v-1zm3.991 0v1h-1.995v-1zm3.991 0v1h-1.995v-1zm3.992 0v1h-1.996v-1zm3.992 0v1h-1.997v-1zm3.991 0v1h-1.996v-1zm3.991 0v1h-1.995v-1zm3.991 0v1h-1.995v-1zm3.992 0v1h-1.996v-1zm3.992 0v1h-1.996v-1zm3.991 0v1h-1.996v-1zm3.991 0v1h-1.996v-1zm3.991 0v1h-1.995v-1zm3.991 0v1h-1.995v-1zm3.993 0v1h-1.996v-1zm3.991 0v1h-1.996v-1zm3.991 0v1h-1.996v-1zm3.991 0v1h-1.995v-1zm3.991 0v1h-1.995v-1zm3.993 0v1h-1.996v-1zm3.991 0v1h-1.996v-1zm3.991 0v1h-1.996v-1zm3.991 0v1h-1.995v-1zm3.992 0v1h-1.996v-1zm3.992 0v1h-1.996v-1zm3.991 0v1h-1.996v-1zm3.991 0v1h-1.996v-1zm3.991 0v1h-1.995v-1zm3.993 0v1h-1.997v-1zm3.991 0v1h-1.996v-1zm3.991 0v1h-1.996v-1zm3.991 0v1h-1.995v-1zm3.992 0v1h-1.996v-1zm3.992 0v1h-1.997v-1zm3.991 0v1h-1.996v-1zm3.991 0v1h-1.995v-1zm3.992 0v1h-1.996v-1zm3.991 0v1h-1.996v-1zm3.992 0v1h-1.997v-1zm3.991 0v1h-1.995v-1zm3.992 0v1h-1.996v-1zm3.991 0v1h-1.996v-1zm3.991 0v1h-1.996v-1zm3.992 0v1h-1.996v-1zm3.992 0v1h-1.996v-1zm3.991 0v1h-1.996v-1zm3.991 0v1h-1.996v-1zm3.991 0v1h-1.995v-1zm3.993 0v1h-1.996v-1zm3.991 0v1h-1.996v-1zm3.991 0v1h-1.996v-1zm3.991 0v1h-1.995v-1zm3.992 0v1h-1.996v-1zm3.992 0v1h-1.996v-1zm3.991 0v1h-1.996v-1zm3.991 0v1h-1.995v-1zm3.992 0v1h-1.996v-1zm3.991 0v1h-1.996v-1zm3.992 0v1h-1.996v-1zm3.991 0v1h-1.995v-1zm3.992 0v1h-1.996v-1zm3.991 0v1h-1.996v-1zm3.992 0v1h-1.997v-1zm3.991 0v1h-1.995v-1zm3.992 0v1h-1.996v-1zm3.991 0v1h-1.996v-1zm3.991 0v1h-1.996v-1zm3.992 0v1h-1.996v-1zm3.992 0v1h-1.996v-1zm3.991 0v1h-1.996v-1zm3.991 0v1h-1.996v-1zm3.991 0v1h-1.995v-1zm3.993 0v1h-1.997v-1zm3.991 0v1h-1.996v-1zm3.991 0v1h-1.996v-1zm3.991 0v1h-1.995v-1zm3.992 0v1h-1.996v-1zm3.992 0v1h-1.997v-1zm3.991 0v1h-1.996v-1zm3.991 0v1h-1.995v-1zm3.992 0v1h-1.996v-1zm3.991 0v1h-1.996v-1zm3.992 0v1h-1.996v-1zm3.991 0v1h-1.995v-1zm3.992 0v1h-1.996v-1zm3.991 0v1h-1.996v-1zm3.991 0v1h-1.996v-1zm3.992 0v1h-1.995v-1zm3.992 0v1h-1.996v-1zm3.991 0v1h-1.996v-1zm3.991 0v1h-1.996v-1zm3.991 0v1h-1.995v-1zm3.993 0v1h-1.996v-1zm3.991 0v1h-1.996v-1zm3.991 0v1h-1.996v-1zm3.991 0v1h-1.995v-1zm3.992 0v1h-1.996v-1zm3.992 0v1h-1.996v-1zm3.991 0v1h-1.996v-1zm3.991 0v1h-1.995v-1zm3.992 0v1h-1.996v-1zm3.991 0v1h-1.996v-1zm3.992 0v1h-1.996v-1zm3.991 0v1h-1.995v-1zm3.992 0v1h-1.996v-1zm3.991 0v1h-1.996v-1zm3.992 0v1h-1.997v-1zm3.991 0v1h-1.995v-1zm3.992 0v1h-1.996v-1zm3.991 0v1h-1.996v-1zm3.991 0v1h-1.996v-1zm3.992 0v1h-1.996v-1zm3.992 0v1h-1.996v-1zm3.991 0v1h-1.996v-1zm3.991 0v1h-1.996v-1zm3.991 0v1h-1.995v-1zm3.993 0v1h-1.997v-1zm3.991 0v1h-1.996v-1zm3.991 0v1h-1.996v-1zm3.991 0v1h-1.995v-1zm3.992 0v1h-1.996v-1zm3.992 0v1h-1.996v-1zm3.991 0v1h-1.996v-1zm2.99 0v1h-.994v-1z"/></g><path d="m402.195 311.691 7.922 3.534v1.136l-7.582-3.521v4.617h-.949v-5.766z" fill="#00384f"/><path d="m410.117 320.749v5.589h-.779l-3.106-2.795c-.277-.25-.523-.459-.738-.626-.215-.168-.414-.303-.598-.405-.179-.101-.349-.174-.509-.217-.164-.043-.332-.064-.504-.064-.211 0-.408.035-.592.105-.187.067-.35.164-.486.293-.137.133-.244.293-.323.481-.082.183-.123.392-.123.627 0 .285.041.533.123.744.082.207.198.379.346.516.152.14.336.246.551.316.215.066.455.1.721.1v1.089c-.36 0-.698-.062-1.014-.187-.32-.125-.6-.307-.838-.545-.238-.234-.428-.521-.568-.861-.141-.344-.211-.735-.211-1.172 0-.403.06-.764.181-1.084.118-.324.282-.598.493-.82.211-.223.461-.393.75-.51.289-.121.603-.182.943-.182.254 0 .506.043.756.129.246.086.49.201.732.346.242.148.483.32.721.515.234.192.469.395.703.61l2.484 2.291v-4.283z" fill="#00384f"/><path d="m406.854 329.512c.542 0 1.025.063 1.447.188.418.125.769.304 1.054.539.29.234.508.521.657.861.148.34.222.729.222 1.166 0 .434-.072.822-.216 1.166-.149.344-.37.635-.663.873-.285.238-.636.42-1.054.545-.422.125-.905.188-1.447.188h-1.999c-.543 0-1.023-.063-1.441-.188-.422-.125-.777-.307-1.066-.545-.289-.234-.508-.521-.657-.861-.152-.344-.228-.733-.228-1.166 0-.438.076-.826.228-1.166.149-.344.368-.635.657-.873.289-.235.644-.414 1.066-.539.418-.125.898-.188 1.441-.188zm-.217 4.436-2.549-3.323c-.281.032-.529.088-.744.17-.219.079-.401.186-.545.323-.149.132-.26.297-.334.492-.074.191-.111.414-.111.668 0 .258.041.486.123.685.078.196.193.362.345.498.192.164.44.288.744.37.301.078.651.117 1.049.117h1.43.293zm.445-3.346h-1.207c-.059 0-.17 0-.334 0-.168 0-.307 0-.416 0l2.537 3.316c.285-.035.537-.097.756-.187.215-.09.393-.207.533-.352.133-.132.235-.293.305-.48.066-.188.099-.399.099-.633 0-.246-.037-.465-.111-.656-.074-.192-.182-.354-.322-.486-.192-.18-.442-.311-.75-.393-.309-.086-.672-.129-1.09-.129z" fill="#00384f"/><path d="m410.117 338.522v5.59h-.779l-3.106-2.795c-.277-.25-.523-.459-.738-.627s-.414-.302-.598-.404c-.179-.101-.349-.174-.509-.217-.164-.043-.332-.064-.504-.064-.211 0-.408.035-.592.105-.187.067-.35.164-.486.293-.137.133-.244.293-.323.481-.082.183-.123.392-.123.627 0 .285.041.533.123.744.082.207.198.379.346.516.152.14.336.246.551.316.215.066.455.1.721.1v1.089c-.36 0-.698-.062-1.014-.187-.32-.125-.6-.307-.838-.545-.238-.234-.428-.522-.568-.861-.141-.344-.211-.735-.211-1.172 0-.403.06-.764.181-1.084.118-.324.282-.598.493-.821.211-.222.461-.392.75-.509.289-.121.603-.182.943-.182.254 0 .506.043.756.129.246.086.49.201.732.346.242.148.483.32.721.515.234.192.469.395.703.61l2.484 2.291v-4.284z" fill="#00384f"/><path d="m921.873 35.9062v2h-7v-2z" fill="#00384f"/><path d="m918.373 348.906h-2v-310.9998h2z" fill="#0b0b1c"/><path d="m933.912 315.928c0-.547-.064-1.002-.193-1.366-.133-.367-.319-.662-.557-.884-.293-.27-.607-.451-.943-.545s-.684-.151-1.043-.17h-.012c.117.094.229.201.334.322.102.121.191.258.27.41.078.153.14.323.187.51.043.184.065.385.065.604 0 .421-.083.787-.247 1.095-.168.305-.386.557-.656.756-.269.199-.574.346-.914.44-.34.093-.682.14-1.025.14-.403 0-.782-.054-1.137-.164-.359-.113-.674-.281-.943-.504-.266-.218-.477-.492-.633-.82-.16-.332-.24-.717-.24-1.154 0-.438.082-.817.246-1.137.16-.324.373-.596.638-.815.313-.257.703-.451 1.172-.58.465-.129.93-.193 1.395-.193h.392c.661 0 1.325.07 1.993.211.664.141 1.253.441 1.769.902.313.278.566.662.762 1.155.191.488.287 1.084.287 1.787v.111h-.967zm-2.789-1.295c0-.184-.029-.362-.088-.533-.062-.176-.15-.338-.264-.487-.109-.144-.238-.273-.386-.386-.153-.118-.321-.209-.504-.276h-.352c-.379 0-.717.045-1.013.135-.297.086-.549.203-.756.351-.203.153-.36.329-.469.528-.109.195-.164.404-.164.627 0 .254.051.478.152.674.102.195.241.359.416.492.18.137.393.24.639.31.242.071.504.106.785.106.25 0 .496-.031.738-.094.239-.062.452-.158.639-.287.188-.125.34-.283.457-.475.113-.195.17-.423.17-.685z" fill="#00384f"/><path d="m934.873 320.749v5.589h-.779l-3.106-2.795c-.277-.25-.523-.459-.738-.626-.215-.168-.414-.303-.598-.405-.179-.101-.349-.174-.509-.217-.164-.043-.332-.064-.504-.064-.211 0-.409.035-.592.105-.188.067-.35.164-.486.293-.137.133-.245.293-.323.481-.082.183-.123.392-.123.627 0 .285.041.533.123.744.082.207.198.379.346.516.152.14.336.246.551.316.215.066.455.1.72.1v1.089c-.359 0-.697-.062-1.013-.187-.321-.125-.6-.307-.838-.545-.238-.234-.428-.521-.568-.861-.141-.344-.211-.735-.211-1.172 0-.403.06-.764.181-1.084.117-.324.281-.598.492-.82.211-.223.461-.393.75-.51.289-.121.604-.182.944-.182.254 0 .506.043.756.129.246.086.49.201.732.346.242.148.482.32.721.515.234.192.469.395.703.61l2.484 2.291v-4.283z" fill="#00384f"/><path d="m931.609 329.512c.543 0 1.026.063 1.448.188.418.125.769.304 1.054.539.289.234.508.521.657.861.148.34.222.729.222 1.166 0 .434-.072.822-.217 1.166-.148.344-.369.635-.662.873-.285.238-.636.42-1.054.545-.422.125-.905.188-1.448.188h-1.998c-.543 0-1.023-.063-1.441-.188-.422-.125-.777-.307-1.066-.545-.29-.234-.508-.521-.657-.861-.152-.344-.228-.733-.228-1.166 0-.438.076-.826.228-1.166.149-.344.367-.635.657-.873.289-.235.644-.414 1.066-.539.418-.125.898-.188 1.441-.188zm-.216 4.436-2.549-3.323c-.282.032-.53.088-.744.17-.219.079-.401.186-.545.323-.149.132-.26.297-.334.492-.075.191-.112.414-.112.668 0 .258.041.486.123.685.079.196.194.362.346.498.192.164.44.288.744.37.301.078.651.117 1.049.117h1.43.293zm.445-3.346h-1.207c-.059 0-.17 0-.334 0-.168 0-.307 0-.416 0l2.537 3.316c.285-.035.537-.097.756-.187.215-.09.392-.207.533-.352.133-.132.234-.293.305-.48.066-.188.099-.399.099-.633 0-.246-.037-.465-.111-.656-.074-.192-.182-.354-.322-.486-.192-.18-.442-.311-.75-.393-.309-.086-.672-.129-1.09-.129z" fill="#00384f"/><path d="m934.873 338.522v5.59h-.779l-3.106-2.795c-.277-.25-.523-.459-.738-.627s-.414-.302-.598-.404c-.179-.101-.349-.174-.509-.217-.164-.043-.332-.064-.504-.064-.211 0-.409.035-.592.105-.188.067-.35.164-.486.293-.137.133-.245.293-.323.481-.082.183-.123.392-.123.627 0 .285.041.533.123.744.082.207.198.379.346.516.152.14.336.246.551.316.215.066.455.1.72.1v1.089c-.359 0-.697-.062-1.013-.187-.321-.125-.6-.307-.838-.545-.238-.234-.428-.522-.568-.861-.141-.344-.211-.735-.211-1.172 0-.403.06-.764.181-1.084.117-.324.281-.598.492-.821.211-.222.461-.392.75-.509.289-.121.604-.182.944-.182.254 0 .506.043.756.129.246.086.49.201.732.346.242.148.482.32.721.515.234.192.469.395.703.61l2.484 2.291v-4.284z" fill="#00384f"/><path d="m655.873 146.906v2h-7v-2z" fill="#00384f"/><path d="m652.373 348.906h-2v-200h2z" fill="#0b0b1c"/><path d="m663.667 311.844c.285.004.552.058.802.164.246.105.463.252.651.439.089.09.173.19.252.299.078.109.148.227.211.352.093-.219.21-.416.351-.592.137-.18.295-.334.475-.463.179-.125.375-.221.586-.287.211-.07.435-.106.673-.106.387 0 .731.073 1.032.217.3.141.552.332.756.574.207.246.365.534.474.862.106.328.158.679.158 1.054 0 .383-.052.741-.158 1.073-.105.328-.262.613-.469.855-.203.246-.455.44-.755.58-.301.141-.647.211-1.038.211-.238 0-.462-.033-.673-.099-.215-.067-.412-.163-.592-.288-.176-.125-.334-.275-.475-.451-.14-.176-.258-.373-.351-.592-.094.188-.205.358-.334.51-.133.153-.282.281-.446.387-.16.105-.336.187-.527.246s-.393.088-.603.088c-.372 0-.702-.063-.991-.188-.293-.125-.539-.298-.738-.521-.199-.219-.352-.481-.457-.785-.106-.309-.158-.645-.158-1.008 0-.359.052-.693.158-1.002.105-.309.258-.576.457-.803.199-.226.445-.404.738-.533.289-.129.619-.193.991-.193zm3.978.89c-.238 0-.457.041-.656.123-.199.079-.371.19-.516.334-.14.145-.25.319-.328.522-.078.199-.117.418-.117.656 0 .246.039.469.117.668s.188.369.328.51c.145.14.317.25.516.328.199.074.418.111.656.111.246 0 .467-.037.662-.111.192-.078.354-.188.486-.328.133-.141.235-.311.305-.51.07-.203.106-.43.106-.68 0-.238-.036-.457-.106-.656s-.172-.371-.305-.515c-.132-.141-.294-.25-.486-.329-.195-.082-.416-.123-.662-.123zm-3.961.2c-.215 0-.412.037-.592.111-.179.07-.336.168-.468.293-.129.129-.229.281-.299.457-.075.176-.112.369-.112.58s.036.402.106.574c.066.172.164.321.293.446s.285.222.469.292c.179.067.38.1.603.1s.424-.033.604-.1c.175-.07.326-.169.451-.298.129-.125.228-.274.299-.446.066-.175.099-.369.099-.58 0-.207-.033-.398-.099-.574-.071-.176-.17-.328-.299-.457-.125-.125-.278-.223-.457-.293-.18-.07-.379-.105-.598-.105z" fill="#00384f"/><path d="m669.971 320.749v5.589h-.779l-3.106-2.795c-.277-.25-.523-.459-.738-.626-.215-.168-.414-.303-.598-.405-.179-.101-.349-.174-.509-.217-.164-.043-.332-.064-.504-.064-.211 0-.408.035-.592.105-.187.067-.35.164-.486.293-.137.133-.244.293-.323.481-.082.183-.123.392-.123.627 0 .285.041.533.123.744.082.207.198.379.346.516.152.14.336.246.551.316.215.066.455.1.721.1v1.089c-.36 0-.698-.062-1.014-.187-.32-.125-.6-.307-.838-.545-.238-.234-.428-.521-.568-.861-.141-.344-.211-.735-.211-1.172 0-.403.06-.764.181-1.084.118-.324.282-.598.493-.82.211-.223.461-.393.75-.51.289-.121.603-.182.943-.182.254 0 .506.043.756.129.246.086.49.201.732.346.242.148.483.32.721.515.234.192.469.395.703.61l2.484 2.291v-4.283z" fill="#00384f"/><path d="m666.708 329.512c.542 0 1.025.063 1.447.188.418.125.769.304 1.054.539.29.234.508.521.657.861.148.34.222.729.222 1.166 0 .434-.072.822-.216 1.166-.149.344-.37.635-.663.873-.285.238-.636.42-1.054.545-.422.125-.905.188-1.447.188h-1.999c-.542 0-1.023-.063-1.441-.188-.422-.125-.777-.307-1.066-.545-.289-.234-.508-.521-.657-.861-.152-.344-.228-.733-.228-1.166 0-.438.076-.826.228-1.166.149-.344.368-.635.657-.873.289-.235.644-.414 1.066-.539.418-.125.899-.188 1.441-.188zm-.217 4.436-2.549-3.323c-.281.032-.529.088-.744.17-.219.079-.401.186-.545.323-.149.132-.26.297-.334.492-.074.191-.111.414-.111.668 0 .258.041.486.123.685.078.196.193.362.345.498.192.164.44.288.744.37.301.078.651.117 1.049.117h1.43.293zm.445-3.346h-1.207c-.059 0-.17 0-.334 0-.168 0-.307 0-.416 0l2.537 3.316c.285-.035.537-.097.756-.187.215-.09.393-.207.533-.352.133-.132.235-.293.305-.48.066-.188.099-.399.099-.633 0-.246-.037-.465-.111-.656-.074-.192-.181-.354-.322-.486-.192-.18-.442-.311-.75-.393-.309-.086-.672-.129-1.09-.129z" fill="#00384f"/><path d="m669.971 338.522v5.59h-.779l-3.106-2.795c-.277-.25-.523-.459-.738-.627s-.414-.302-.598-.404c-.179-.101-.349-.174-.509-.217-.164-.043-.332-.064-.504-.064-.211 0-.408.035-.592.105-.187.067-.35.164-.486.293-.137.133-.244.293-.323.481-.082.183-.123.392-.123.627 0 .285.041.533.123.744.082.207.198.379.346.516.152.14.336.246.551.316.215.066.455.1.721.1v1.089c-.36 0-.698-.062-1.014-.187-.32-.125-.6-.307-.838-.545-.238-.234-.428-.522-.568-.861-.141-.344-.211-.735-.211-1.172 0-.403.06-.764.181-1.084.118-.324.282-.598.493-.821.211-.222.461-.392.75-.509.289-.121.603-.182.943-.182.254 0 .506.043.756.129.246.086.49.201.732.346.242.148.483.32.721.515.234.192.469.395.703.61l2.484 2.291v-4.284z" fill="#00384f"/><path d="m126.873 298.906v2h-7v-2z" fill="#00384f"/><path d="m123.373 348.906h-2v-48h2z" fill="#0b0b1c"/><path d="m131.215 313.098h.973v.093c0 .516.074.954.223 1.313.144.359.339.656.586.891.257.246.564.433.92.562.355.125.72.199 1.095.223-.121-.102-.232-.219-.334-.352-.105-.133-.197-.277-.275-.433-.074-.153-.133-.317-.176-.493-.047-.179-.07-.367-.07-.562 0-.426.082-.793.246-1.102.16-.308.373-.562.639-.761.265-.2.566-.346.902-.44s.678-.141 1.025-.141c.399 0 .774.057 1.125.17.352.11.658.276.92.498.266.223.475.5.627.832.152.329.229.709.229 1.143 0 .438-.088.822-.264 1.154s-.404.612-.686.838c-.308.254-.668.444-1.078.569-.414.125-.828.187-1.242.187h-.51c-.711 0-1.41-.084-2.097-.252-.688-.168-1.276-.496-1.764-.984-.336-.336-.588-.744-.756-1.225-.172-.48-.258-1.025-.258-1.635zm3.844 1.418c0 .183.029.361.088.533s.141.332.246.48c.106.149.232.28.381.393.148.113.312.203.492.269h.363c.375 0 .709-.045 1.002-.134.289-.09.534-.211.733-.364.199-.152.351-.328.457-.527.101-.199.152-.408.152-.627 0-.254-.049-.478-.146-.674-.098-.195-.233-.361-.405-.498-.172-.133-.377-.232-.615-.299-.242-.07-.504-.105-.785-.105-.25 0-.492.031-.727.094-.238.062-.449.158-.632.287-.184.129-.33.291-.44.486-.109.195-.164.424-.164.686z" fill="#00384f"/><path d="m139.752 320.749v5.589h-.779l-3.105-2.795c-.278-.25-.524-.459-.739-.626-.214-.168-.414-.303-.597-.405-.18-.101-.35-.174-.51-.217-.164-.043-.332-.064-.504-.064-.211 0-.408.035-.592.105-.187.067-.349.164-.486.293-.137.133-.244.293-.322.481-.082.183-.123.392-.123.627 0 .285.041.533.123.744.082.207.197.379.345.516.153.14.336.246.551.316.215.066.455.1.721.1v1.089c-.36 0-.697-.062-1.014-.187-.32-.125-.599-.307-.838-.545-.238-.234-.427-.521-.568-.861-.141-.344-.211-.735-.211-1.172 0-.403.061-.764.182-1.084.117-.324.281-.598.492-.82.211-.223.461-.393.75-.51.289-.121.603-.182.943-.182.254 0 .506.043.756.129.246.086.49.201.732.346.243.148.483.32.721.515.235.192.469.395.703.61l2.485 2.291v-4.283z" fill="#00384f"/><path d="m136.489 329.512c.543 0 1.025.063 1.447.188.418.125.77.304 1.055.539.289.234.508.521.656.861s.223.729.223 1.166c0 .434-.073.822-.217 1.166-.149.344-.369.635-.662.873-.285.238-.637.42-1.055.545-.422.125-.904.188-1.447.188h-1.998c-.543 0-1.024-.063-1.442-.188-.422-.125-.777-.307-1.066-.545-.289-.234-.508-.521-.656-.861-.153-.344-.229-.733-.229-1.166 0-.438.076-.826.229-1.166.148-.344.367-.635.656-.873.289-.235.644-.414 1.066-.539.418-.125.899-.188 1.442-.188zm-.217 4.436-2.549-3.323c-.281.032-.529.088-.744.17-.219.079-.4.186-.545.323-.148.132-.26.297-.334.492-.074.191-.111.414-.111.668 0 .258.041.486.123.685.078.196.193.362.346.498.191.164.439.288.744.37.3.078.65.117 1.048.117h1.43.293zm.445-3.346h-1.207c-.058 0-.17 0-.334 0-.168 0-.306 0-.416 0l2.537 3.316c.286-.035.537-.097.756-.187.215-.09.393-.207.533-.352.133-.132.235-.293.305-.48.067-.188.1-.399.1-.633 0-.246-.037-.465-.112-.656-.074-.192-.181-.354-.322-.486-.191-.18-.441-.311-.75-.393-.308-.086-.672-.129-1.09-.129z" fill="#00384f"/><path d="m139.752 338.522v5.59h-.779l-3.105-2.795c-.278-.25-.524-.459-.739-.627-.214-.168-.414-.302-.597-.404-.18-.101-.35-.174-.51-.217-.164-.043-.332-.064-.504-.064-.211 0-.408.035-.592.105-.187.067-.349.164-.486.293-.137.133-.244.293-.322.481-.082.183-.123.392-.123.627 0 .285.041.533.123.744.082.207.197.379.345.516.153.14.336.246.551.316.215.066.455.1.721.1v1.089c-.36 0-.697-.062-1.014-.187-.32-.125-.599-.307-.838-.545-.238-.234-.427-.522-.568-.861-.141-.344-.211-.735-.211-1.172 0-.403.061-.764.182-1.084.117-.324.281-.598.492-.821.211-.222.461-.392.75-.509.289-.121.603-.182.943-.182.254 0 .506.043.756.129.246.086.49.201.732.346.243.148.483.32.721.515.235.192.469.395.703.61l2.485 2.291v-4.284z" fill="#00384f"/><path d="m396.873 242.906v2h-7v-2z" fill="#00384f"/><path d="m393.373 351.906h-2v-107h2z" fill="#000"/><g fill="#00384f"><path d="m63.041 34.4785c0 .543-.0625 1.0254-.1875 1.4473-.125.418-.3047.7695-.539 1.0547-.2344.289-.5215.5078-.8614.6562-.3398.1485-.7285.2227-1.166.2227-.4336 0-.8223-.0723-1.166-.2168-.3438-.1485-.6348-.3692-.8731-.6621-.2382-.2852-.4199-.6367-.5449-1.0547-.125-.4219-.1875-.9043-.1875-1.4473v-1.998c0-.543.0625-1.0235.1875-1.4414.125-.4219.3067-.7774.5449-1.0664.2344-.2891.5215-.5079.8614-.6563.3437-.1523.7324-.2285 1.166-.2285.4375 0 .8262.0762 1.166.2285.3438.1484.6348.3672.8731.6563.2343.289.414.6445.539 1.0664.125.4179.1875.8984.1875 1.4414zm-4.4355-.2168 3.3222-2.5488c-.0312-.2813-.0879-.5293-.1699-.7441-.0781-.2188-.1855-.4004-.3223-.545-.1328-.1484-.2968-.2597-.4921-.334-.1914-.0742-.4141-.1113-.668-.1113-.2578 0-.4863.041-.6856.1231-.1953.0781-.3613.1933-.498.3457-.1641.1914-.2871.4394-.3691.7441-.0782.3008-.1172.6504-.1172 1.0488v1.4297.293zm3.3457.4453v-1.207c0-.0586 0-.1699 0-.334 0-.168 0-.3066 0-.416l-3.3164 2.5371c.0351.2852.0976.5371.1875.7559.0898.2148.207.3925.3515.5332.1328.1328.293.2343.4805.3047.1875.0664.3984.0996.6328.0996.2461 0 .4649-.0371.6563-.1114.1914-.0742.3535-.1816.4863-.3222.1797-.1914.3105-.4414.3926-.75.0859-.3086.1289-.6719.1289-1.0899z"/><path d="m54.1538 34.4785c0 .543-.0625 1.0254-.1875 1.4473-.125.418-.3047.7695-.5391 1.0547-.2343.289-.5214.5078-.8613.6562-.3398.1485-.7285.2227-1.166.2227-.4336 0-.8223-.0723-1.166-.2168-.3438-.1485-.6348-.3692-.8731-.6621-.2382-.2852-.4199-.6367-.5449-1.0547-.125-.4219-.1875-.9043-.1875-1.4473v-1.998c0-.543.0625-1.0235.1875-1.4414.125-.4219.3067-.7774.5449-1.0664.2344-.2891.5215-.5079.8614-.6563.3437-.1523.7324-.2285 1.166-.2285.4375 0 .8262.0762 1.166.2285.3437.1484.6348.3672.873.6563.2344.289.4141.6445.5391 1.0664.125.4179.1875.8984.1875 1.4414zm-4.4355-.2168 3.3222-2.5488c-.0312-.2813-.0879-.5293-.1699-.7441-.0781-.2188-.1855-.4004-.3223-.545-.1328-.1484-.2968-.2597-.4921-.334-.1915-.0742-.4141-.1113-.668-.1113-.2578 0-.4863.041-.6856.1231-.1953.0781-.3613.1933-.498.3457-.1641.1914-.2871.4394-.3692.7441-.0781.3008-.1171.6504-.1171 1.0488v1.4297.293zm3.3457.4453v-1.207c0-.0586 0-.1699 0-.334 0-.168 0-.3066 0-.416l-3.3164 2.5371c.0351.2852.0976.5371.1875.7559.0898.2148.207.3925.3515.5332.1328.1328.293.2343.4805.3047.1875.0664.3984.0996.6328.0996.2461 0 .4648-.0371.6563-.1114.1914-.0742.3535-.1816.4863-.3222.1797-.1914.3105-.4414.3926-.75.0859-.3086.1289-.6719.1289-1.0899z"/><path d="m45.2671 34.4785c0 .543-.0625 1.0254-.1875 1.4473-.125.418-.3047.7695-.5391 1.0547-.2343.289-.5215.5078-.8613.6562-.3398.1485-.7285.2227-1.166.2227-.4336 0-.8223-.0723-1.166-.2168-.3438-.1485-.6348-.3692-.8731-.6621-.2383-.2852-.4199-.6367-.5449-1.0547-.125-.4219-.1875-.9043-.1875-1.4473v-1.998c0-.543.0625-1.0235.1875-1.4414.125-.4219.3066-.7774.5449-1.0664.2344-.2891.5215-.5079.8613-.6563.3438-.1523.7325-.2285 1.1661-.2285.4375 0 .8261.0762 1.166.2285.3437.1484.6347.3672.873.6563.2344.289.4141.6445.5391 1.0664.125.4179.1875.8984.1875 1.4414zm-4.4356-.2168 3.3223-2.5488c-.0312-.2813-.0879-.5293-.1699-.7441-.0781-.2188-.1856-.4004-.3223-.545-.1328-.1484-.2969-.2597-.4922-.334-.1914-.0742-.414-.1113-.6679-.1113-.2578 0-.4864.041-.6856.1231-.1953.0781-.3613.1933-.498.3457-.1641.1914-.2871.4394-.3692.7441-.0781.3008-.1172.6504-.1172 1.0488v1.4297.293zm3.3457.4453v-1.207c0-.0586 0-.1699 0-.334 0-.168 0-.3066 0-.416l-3.3164 2.5371c.0352.2852.0977.5371.1875.7559.0899.2148.2071.3925.3516.5332.1328.1328.293.2343.4805.3047.1875.0664.3984.0996.6328.0996.2461 0 .4648-.0371.6562-.1114.1914-.0742.3535-.1816.4864-.3222.1796-.1914.3105-.4414.3925-.75.086-.3086.1289-.6719.1289-1.0899z"/><path d="m33.7725 37.4902c0 .3907-.0918.7891-.2754 1.1953-.1836.4063-.4317.7481-.7442 1.0254l-.6738-.3691c.1875-.2734.3203-.5645.3984-.873.0782-.3086.1172-.629.1172-.961v-1.0488h1.1778z"/><path d="m27.4927 34.4785c0 .543-.0625 1.0254-.1875 1.4473-.125.418-.3047.7695-.5391 1.0547-.2344.289-.5215.5078-.8613.6562-.3399.1485-.7285.2227-1.166.2227-.4336 0-.8223-.0723-1.166-.2168-.3438-.1485-.6348-.3692-.8731-.6621-.2383-.2852-.4199-.6367-.5449-1.0547-.125-.4219-.1875-.9043-.1875-1.4473v-1.998c0-.543.0625-1.0235.1875-1.4414.125-.4219.3066-.7774.5449-1.0664.2344-.2891.5215-.5079.8613-.6563.3438-.1523.7325-.2285 1.1661-.2285.4375 0 .8261.0762 1.166.2285.3437.1484.6347.3672.873.6563.2344.289.4141.6445.5391 1.0664.125.4179.1875.8984.1875 1.4414zm-4.4356-.2168 3.3223-2.5488c-.0313-.2813-.0879-.5293-.1699-.7441-.0782-.2188-.1856-.4004-.3223-.545-.1328-.1484-.2969-.2597-.4922-.334-.1914-.0742-.414-.1113-.6679-.1113-.2579 0-.4864.041-.6856.1231-.1953.0781-.3613.1933-.498.3457-.1641.1914-.2872.4394-.3692.7441-.0781.3008-.1172.6504-.1172 1.0488v1.4297.293zm3.3457.4453v-1.207c0-.0586 0-.1699 0-.334 0-.168 0-.3066 0-.416l-3.3164 2.5371c.0352.2852.0977.5371.1875.7559.0899.2148.2071.3925.3516.5332.1328.1328.293.2343.4805.3047.1875.0664.3984.0996.6328.0996.2461 0 .4648-.0371.6562-.1114.1914-.0742.3535-.1816.4863-.3222.1797-.1914.3106-.4414.3926-.75.086-.3086.1289-.6719.1289-1.0899z"/><path d="m13.6372 33.4648.4277-4.2539h4.377v1.0547h-3.4629l-.2402 2.2735c.1679-.0977.3691-.1836.6035-.2579.2344-.0742.5058-.1113.8144-.1113.3946 0 .7481.0684 1.0606.2051s.5781.3281.7969.5742c.2187.25.3867.5508.5039.9024.1172.3515.1757.7422.1757 1.1718 0 .4063-.0546.7832-.164 1.1309s-.2735.6465-.4922.8965c-.2227.2539-.502.4531-.8379.5976-.3359.1407-.7305.211-1.1836.211-.3476 0-.6758-.0489-.9844-.1465-.3086-.0977-.582-.2441-.8203-.4395-.2422-.1953-.4414-.4414-.5976-.7382-.1524-.2969-.2481-.6426-.2871-1.0372h1.0312c.0664.4844.2442.8516.5332 1.1016.293.25.668.375 1.125.375.2578 0 .4863-.0449.6856-.1348.1992-.0937.3671-.2265.5039-.3984.1328-.168.2324-.3711.2988-.6094.0703-.2382.1055-.5039.1055-.7968 0-.2657-.0391-.5137-.1172-.7442-.0742-.2305-.1836-.4316-.3281-.6035-.1446-.168-.3223-.3008-.5333-.3984-.2109-.0977-.4531-.1465-.7265-.1465-.1797 0-.336.0136-.4688.041-.1289.0234-.2461.0586-.3515.1055-.1055.0468-.2051.1035-.2989.1699-.0898.0664-.1835.1426-.2812.2285z"/><path d="m63.041 194.479c0 .542-.0625 1.025-.1875 1.447-.125.418-.3047.769-.539 1.054-.2344.29-.5215.508-.8614.657-.3398.148-.7285.222-1.166.222-.4336 0-.8223-.072-1.166-.216-.3438-.149-.6348-.37-.8731-.663-.2382-.285-.4199-.636-.5449-1.054-.125-.422-.1875-.905-.1875-1.447v-1.999c0-.542.0625-1.023.1875-1.441.125-.422.3067-.777.5449-1.066.2344-.289.5215-.508.8614-.657.3437-.152.7324-.228 1.166-.228.4375 0 .8262.076 1.166.228.3438.149.6348.368.8731.657.2343.289.414.644.539 1.066.125.418.1875.899.1875 1.441zm-4.4355-.217 3.3222-2.549c-.0312-.281-.0879-.529-.1699-.744-.0781-.219-.1855-.401-.3223-.545-.1328-.149-.2968-.26-.4921-.334-.1914-.074-.4141-.111-.668-.111-.2578 0-.4863.041-.6856.123-.1953.078-.3613.193-.498.345-.1641.192-.2871.44-.3691.744-.0782.301-.1172.651-.1172 1.049v1.43.293zm3.3457.445v-1.207c0-.059 0-.17 0-.334 0-.168 0-.307 0-.416l-3.3164 2.537c.0351.285.0976.537.1875.756.0898.215.207.393.3515.533.1328.133.293.235.4805.305.1875.066.3984.099.6328.099.2461 0 .4649-.037.6563-.111s.3535-.181.4863-.322c.1797-.192.3105-.442.3926-.75.0859-.309.1289-.672.1289-1.09z"/><path d="m54.1538 194.479c0 .542-.0625 1.025-.1875 1.447-.125.418-.3047.769-.5391 1.054-.2343.29-.5214.508-.8613.657-.3398.148-.7285.222-1.166.222-.4336 0-.8223-.072-1.166-.216-.3438-.149-.6348-.37-.8731-.663-.2382-.285-.4199-.636-.5449-1.054-.125-.422-.1875-.905-.1875-1.447v-1.999c0-.542.0625-1.023.1875-1.441.125-.422.3067-.777.5449-1.066.2344-.289.5215-.508.8614-.657.3437-.152.7324-.228 1.166-.228.4375 0 .8262.076 1.166.228.3437.149.6348.368.873.657.2344.289.4141.644.5391 1.066.125.418.1875.899.1875 1.441zm-4.4355-.217 3.3222-2.549c-.0312-.281-.0879-.529-.1699-.744-.0781-.219-.1855-.401-.3223-.545-.1328-.149-.2968-.26-.4921-.334-.1915-.074-.4141-.111-.668-.111-.2578 0-.4863.041-.6856.123-.1953.078-.3613.193-.498.345-.1641.192-.2871.44-.3692.744-.0781.301-.1171.651-.1171 1.049v1.43.293zm3.3457.445v-1.207c0-.059 0-.17 0-.334 0-.168 0-.307 0-.416l-3.3164 2.537c.0351.285.0976.537.1875.756.0898.215.207.393.3515.533.1328.133.293.235.4805.305.1875.066.3984.099.6328.099.2461 0 .4648-.037.6563-.111.1914-.074.3535-.181.4863-.322.1797-.192.3105-.442.3926-.75.0859-.309.1289-.672.1289-1.09z"/><path d="m45.2671 194.479c0 .542-.0625 1.025-.1875 1.447-.125.418-.3047.769-.5391 1.054-.2343.29-.5215.508-.8613.657-.3398.148-.7285.222-1.166.222-.4336 0-.8223-.072-1.166-.216-.3438-.149-.6348-.37-.8731-.663-.2383-.285-.4199-.636-.5449-1.054-.125-.422-.1875-.905-.1875-1.447v-1.999c0-.542.0625-1.023.1875-1.441.125-.422.3066-.777.5449-1.066.2344-.289.5215-.508.8613-.657.3438-.152.7325-.228 1.1661-.228.4375 0 .8261.076 1.166.228.3437.149.6347.368.873.657.2344.289.4141.644.5391 1.066.125.418.1875.899.1875 1.441zm-4.4356-.217 3.3223-2.549c-.0312-.281-.0879-.529-.1699-.744-.0781-.219-.1856-.401-.3223-.545-.1328-.149-.2969-.26-.4922-.334-.1914-.074-.414-.111-.6679-.111-.2578 0-.4864.041-.6856.123-.1953.078-.3613.193-.498.345-.1641.192-.2871.44-.3692.744-.0781.301-.1172.651-.1172 1.049v1.43.293zm3.3457.445v-1.207c0-.059 0-.17 0-.334 0-.168 0-.307 0-.416l-3.3164 2.537c.0352.285.0977.537.1875.756.0899.215.2071.393.3516.533.1328.133.293.235.4805.305.1875.066.3984.099.6328.099.2461 0 .4648-.037.6562-.111s.3535-.181.4864-.322c.1796-.192.3105-.442.3925-.75.086-.309.1289-.672.1289-1.09z"/><path d="m33.7725 197.49c0 .391-.0918.789-.2754 1.196-.1836.406-.4317.748-.7442 1.025l-.6738-.369c.1875-.274.3203-.565.3984-.873.0782-.309.1172-.629.1172-.961v-1.049h1.1778z"/><path d="m22.5239 193.465.4278-4.254h4.3769v1.055h-3.4629l-.2402 2.273c.168-.098.3691-.184.6035-.258s.5059-.111.8145-.111c.3945 0 .748.068 1.0605.205s.5781.328.7969.574c.2187.25.3867.551.5039.903.1172.351.1758.742.1758 1.171 0 .407-.0547.784-.1641 1.131-.1094.348-.2734.647-.4922.897-.2226.254-.5019.453-.8379.597-.3359.141-.7304.211-1.1836.211-.3476 0-.6757-.048-.9843-.146s-.5821-.244-.8204-.44c-.2421-.195-.4414-.441-.5976-.738-.1524-.297-.2481-.642-.2871-1.037h1.0312c.0664.484.2442.852.5332 1.102.293.25.668.375 1.125.375.2578 0 .4864-.045.6856-.135.1992-.094.3672-.227.5039-.399.1328-.168.2324-.371.2988-.609.0703-.238.1055-.504.1055-.797 0-.265-.0391-.514-.1172-.744-.0742-.23-.1836-.432-.3281-.603-.1446-.168-.3223-.301-.5332-.399-.211-.098-.4532-.146-.7266-.146-.1797 0-.3359.013-.4687.041-.129.023-.2461.058-.3516.105s-.2051.104-.2988.17c-.0899.066-.1836.143-.2813.229z"/><path d="m18.4829 197.742h-5.5898v-.779l2.7949-3.106c.25-.277.459-.523.6269-.738.168-.215.3028-.414.4043-.598.1016-.179.1739-.349.2168-.509.043-.164.0645-.332.0645-.504 0-.211-.0352-.408-.1055-.592-.0664-.187-.164-.35-.2929-.486-.1329-.137-.293-.244-.4805-.323-.1836-.082-.3926-.123-.627-.123-.2851 0-.5332.041-.7441.123-.207.082-.3789.198-.5156.346-.1407.152-.2461.336-.3164.551-.0664.215-.0997.455-.0997.721h-1.0898c0-.36.0625-.698.1875-1.014.125-.32.3066-.6.5449-.838.2344-.238.5215-.428.8614-.568.3437-.141.7343-.211 1.1718-.211.4024 0 .7637.06 1.084.181.3242.118.5977.282.8203.493.2227.211.3926.461.5098.75.1211.289.1816.603.1816.943 0 .254-.0429.506-.1289.756-.0859.246-.2011.49-.3457.732-.1484.242-.3203.483-.5156.721-.1914.234-.3945.469-.6094.703l-2.291 2.484h4.2832z"/><path d="m63.041 354.479c0 .542-.0625 1.025-.1875 1.447-.125.418-.3047.769-.539 1.054-.2344.29-.5215.508-.8614.657-.3398.148-.7285.222-1.166.222-.4336 0-.8223-.072-1.166-.216-.3438-.149-.6348-.37-.8731-.663-.2382-.285-.4199-.636-.5449-1.054-.125-.422-.1875-.905-.1875-1.447v-1.999c0-.542.0625-1.023.1875-1.441.125-.422.3067-.777.5449-1.066.2344-.289.5215-.508.8614-.657.3437-.152.7324-.228 1.166-.228.4375 0 .8262.076 1.166.228.3438.149.6348.368.8731.657.2343.289.414.644.539 1.066.125.418.1875.899.1875 1.441zm-4.4355-.217 3.3222-2.549c-.0312-.281-.0879-.529-.1699-.744-.0781-.219-.1855-.401-.3223-.545-.1328-.149-.2968-.26-.4921-.334-.1914-.074-.4141-.111-.668-.111-.2578 0-.4863.041-.6856.123-.1953.078-.3613.193-.498.345-.1641.192-.2871.44-.3691.744-.0782.301-.1172.651-.1172 1.049v1.43.293zm3.3457.445v-1.207c0-.059 0-.17 0-.334 0-.168 0-.307 0-.416l-3.3164 2.537c.0351.285.0976.537.1875.756.0898.215.207.393.3515.533.1328.133.293.235.4805.305.1875.066.3984.099.6328.099.2461 0 .4649-.037.6563-.111s.3535-.181.4863-.322c.1797-.192.3105-.442.3926-.75.0859-.309.1289-.672.1289-1.09z"/><path d="m1016.14 35.4785c0 .543-.07 1.0254-.19 1.4473-.13.418-.31.7695-.54 1.0547-.24.289-.52.5078-.86.6562-.34.1485-.73.2227-1.17.2227-.43 0-.82-.0723-1.16-.2168-.35-.1485-.64-.3692-.88-.6621-.24-.2852-.42-.6367-.54-1.0547-.13-.4219-.19-.9043-.19-1.4473v-1.998c0-.543.06-1.0235.19-1.4414.12-.4219.3-.7774.54-1.0664.24-.2891.52-.5079.86-.6563.35-.1523.74-.2285 1.17-.2285.44 0 .83.0762 1.17.2285.34.1484.63.3672.87.6563.23.289.41.6445.54 1.0664.12.4179.19.8984.19 1.4414zm-4.44-.2168 3.32-2.5488c-.03-.2813-.09-.5293-.17-.7441-.08-.2188-.18-.4004-.32-.545-.13-.1484-.3-.2597-.49-.334-.19-.0742-.42-.1113-.67-.1113-.26 0-.49.041-.69.1231-.19.0781-.36.1933-.49.3457-.17.1914-.29.4394-.37.7441-.08.3008-.12.6504-.12 1.0488v1.4297.293zm3.35.4453v-1.207c0-.0586 0-.1699 0-.334 0-.168 0-.3066 0-.416l-3.32 2.5371c.03.2852.1.5371.19.7559.09.2148.2.3925.35.5332.13.1328.29.2343.48.3047.19.0664.4.0996.63.0996.25 0 .47-.0371.66-.1114.19-.0742.35-.1816.48-.3222.18-.1914.31-.4414.4-.75.08-.3086.13-.6719.13-1.0899z"/><path d="m1002.28 34.4648.43-4.2539h4.37v1.0547h-3.46l-.24 2.2735c.17-.0977.37-.1836.6-.2579.24-.0742.51-.1113.82-.1113.39 0 .75.0684 1.06.2051s.58.3281.8.5742c.22.25.38.5508.5.9024.12.3515.18.7422.18 1.1718 0 .4063-.06.7832-.17 1.1309s-.27.6465-.49.8965c-.22.2539-.5.4531-.84.5976-.33.1407-.73.211-1.18.211-.35 0-.68-.0489-.99-.1465-.3-.0977-.58-.2441-.82-.4395-.24-.1953-.44-.4414-.59-.7382-.16-.2969-.25-.6426-.29-1.0372h1.03c.07.4844.24.8516.53 1.1016.3.25.67.375 1.13.375.26 0 .48-.0449.68-.1348.2-.0937.37-.2265.51-.3984.13-.168.23-.3711.3-.6094.07-.2382.1-.5039.1-.7968 0-.2657-.04-.5137-.12-.7442-.07-.2305-.18-.4316-.32-.6035-.15-.168-.33-.3008-.54-.3984-.21-.0977-.45-.1465-.72-.1465-.18 0-.34.0136-.47.041-.13.0234-.25.0586-.35.1055-.11.0468-.21.1035-.3.1699s-.19.1426-.28.2285z"/><path d="m1011.17 194.465.42-4.254h4.38v1.055h-3.46l-.24 2.273c.17-.098.37-.184.6-.258.24-.074.51-.111.82-.111.39 0 .74.068 1.06.205.31.137.57.328.79.574.22.25.39.551.51.903.11.351.17.742.17 1.171 0 .407-.05.784-.16 1.131-.11.348-.27.647-.49.897-.23.254-.51.453-.84.597-.34.141-.73.211-1.18.211-.35 0-.68-.048-.99-.146s-.58-.244-.82-.44c-.24-.195-.44-.441-.6-.738-.15-.297-.24-.642-.28-1.037h1.03c.06.484.24.852.53 1.102s.67.375 1.13.375c.25 0 .48-.045.68-.135.2-.094.37-.227.5-.399.14-.168.24-.371.3-.609.07-.238.11-.504.11-.797 0-.265-.04-.514-.12-.744-.07-.23-.18-.432-.33-.603-.14-.168-.32-.301-.53-.399s-.45-.146-.73-.146c-.18 0-.33.013-.46.041-.13.023-.25.058-.36.105-.1.047-.2.104-.3.17-.08.066-.18.143-.28.229z"/><path d="m1007.12 198.742h-5.58v-.779l2.79-3.106c.25-.277.46-.523.63-.738.16-.215.3-.414.4-.598.1-.179.18-.349.22-.509.04-.164.06-.332.06-.504 0-.211-.03-.408-.1-.592-.07-.187-.17-.35-.3-.486-.13-.137-.29-.244-.48-.323-.18-.082-.39-.123-.62-.123-.29 0-.54.041-.75.123-.2.082-.38.198-.51.346-.14.152-.25.336-.32.551s-.1.455-.1.721h-1.09c0-.36.06-.698.19-1.014.12-.32.31-.6.54-.838.24-.238.52-.428.86-.568.35-.141.74-.211 1.18-.211.4 0 .76.06 1.08.181.32.118.6.282.82.493s.39.461.51.75.18.603.18.943c0 .254-.04.506-.13.756-.08.246-.2.49-.34.732-.15.242-.32.483-.52.721-.19.234-.39.469-.61.703l-2.29 2.484h4.28z"/><path d="m1007.25 354.479c0 .542-.06 1.025-.19 1.447-.12.418-.3.769-.54 1.054-.23.29-.52.508-.86.657-.34.148-.73.222-1.17.222-.43 0-.82-.072-1.16-.216-.35-.149-.64-.37-.87-.663-.24-.285-.42-.636-.55-1.054-.12-.422-.19-.905-.19-1.447v-1.999c0-.542.07-1.023.19-1.441.13-.422.31-.777.55-1.066.23-.289.52-.508.86-.657.34-.152.73-.228 1.16-.228.44 0 .83.076 1.17.228.34.149.63.368.87.657s.42.644.54 1.066c.13.418.19.899.19 1.441zm-4.44-.217 3.32-2.549c-.03-.281-.08-.529-.17-.744-.07-.219-.18-.401-.32-.545-.13-.149-.29-.26-.49-.334-.19-.074-.41-.111-.67-.111s-.48.041-.68.123c-.2.078-.36.193-.5.345-.17.192-.29.44-.37.744-.08.301-.12.651-.12 1.049v1.43.293zm3.35.445v-1.207c0-.059 0-.17 0-.334 0-.168 0-.307 0-.416l-3.32 2.537c.04.285.1.537.19.756.09.215.21.393.35.533.13.133.29.235.48.305.19.066.4.099.63.099.25 0 .47-.037.66-.111s.35-.181.49-.322c.18-.192.31-.442.39-.75.09-.309.13-.672.13-1.09z"/><path d="m557.319 411.391v-8.532h1.975c.332.004.644.039.937.106.297.062.571.152.821.269.347.161.654.371.92.633.269.258.484.557.644.897.145.289.254.605.328.949.078.344.119.711.123 1.101v.627c0 .375-.037.731-.111 1.067-.07.336-.174.644-.31.926-.141.293-.319.558-.534.796-.215.239-.455.442-.72.61-.282.176-.6.31-.955.404-.352.094-.733.143-1.143.147zm1.102-7.641v6.756h.873c.312-.004.596-.043.85-.117.257-.075.486-.18.685-.317.211-.14.393-.312.545-.515.156-.207.279-.438.369-.692.078-.207.137-.429.176-.668.039-.242.06-.494.064-.756v-.638c-.004-.266-.027-.52-.07-.762-.039-.246-.1-.475-.182-.686-.105-.273-.248-.519-.427-.738-.176-.222-.393-.402-.651-.539-.183-.101-.388-.18-.615-.234-.226-.059-.475-.09-.744-.094z"/><path d="m553.237 407.447h-3.563v3.024h4.155v.92h-5.239v-8.532h5.186v.926h-4.102v2.742h3.563z"/><path d="m544.122 409.234c0-.261-.061-.482-.182-.662-.117-.179-.27-.332-.457-.457-.188-.121-.395-.222-.621-.304-.223-.082-.438-.157-.645-.223-.3-.098-.607-.215-.92-.352-.308-.14-.589-.308-.843-.504-.258-.199-.469-.433-.633-.703-.16-.273-.24-.593-.24-.961 0-.367.08-.695.24-.984.164-.289.377-.533.638-.732.262-.2.559-.35.891-.452.332-.105.666-.158 1.002-.158.371 0 .729.063 1.072.188.344.121.649.293.914.515.266.223.479.493.639.809s.244.67.252 1.06h-1.113c-.032-.246-.092-.468-.182-.668-.09-.203-.209-.376-.357-.521-.149-.145-.327-.256-.534-.334-.203-.082-.433-.123-.691-.123-.207 0-.41.029-.609.088-.196.058-.369.146-.522.264-.156.117-.281.261-.375.433-.09.172-.135.371-.135.598.004.246.067.455.188.627.121.168.275.31.463.427.183.118.383.215.597.293.219.079.424.147.616.206.316.097.633.216.949.357.316.137.605.312.867.527.258.2.465.444.621.733.16.289.24.623.24 1.002 0 .382-.085.716-.257 1.002-.168.285-.387.521-.657.709-.269.191-.574.336-.914.433-.34.094-.679.141-1.019.141-.406 0-.807-.069-1.201-.205-.391-.137-.731-.334-1.02-.592-.258-.223-.463-.482-.615-.779-.149-.301-.229-.635-.24-1.002h1.107c.035.265.107.502.217.709.109.203.25.375.422.515.172.145.369.254.592.328.226.071.472.106.738.106.211 0 .418-.026.621-.076.207-.055.391-.139.551-.252.16-.11.291-.248.392-.416.102-.172.153-.375.153-.61z"/><path d="m535.234 409.234c0-.261-.06-.482-.181-.662-.117-.179-.27-.332-.457-.457-.188-.121-.395-.222-.621-.304-.223-.082-.438-.157-.645-.223-.301-.098-.607-.215-.92-.352-.308-.14-.59-.308-.844-.504-.257-.199-.468-.433-.632-.703-.161-.273-.241-.593-.241-.961 0-.367.08-.695.241-.984.164-.289.377-.533.638-.732.262-.2.559-.35.891-.452.332-.105.666-.158 1.002-.158.371 0 .728.063 1.072.188.344.121.649.293.914.515.266.223.479.493.639.809s.244.67.252 1.06h-1.113c-.032-.246-.092-.468-.182-.668-.09-.203-.209-.376-.358-.521-.148-.145-.326-.256-.533-.334-.203-.082-.433-.123-.691-.123-.207 0-.41.029-.61.088-.195.058-.369.146-.521.264-.156.117-.281.261-.375.433-.09.172-.135.371-.135.598.004.246.067.455.188.627.121.168.275.31.463.427.183.118.382.215.597.293.219.079.424.147.616.206.316.097.632.216.949.357.316.137.605.312.867.527.258.2.465.444.621.733.16.289.24.623.24 1.002 0 .382-.086.716-.258 1.002-.168.285-.386.521-.656.709-.269.191-.574.336-.914.433-.34.094-.68.141-1.019.141-.407 0-.807-.069-1.202-.205-.39-.137-.73-.334-1.019-.592-.258-.223-.463-.482-.615-.779-.149-.301-.229-.635-.241-1.002h1.108c.035.265.107.502.217.709.109.203.25.375.422.515.171.145.369.254.591.328.227.071.473.106.739.106.211 0 .418-.026.621-.076.207-.055.39-.139.55-.252.161-.11.291-.248.393-.416.102-.172.152-.375.152-.61z"/><path d="m526.576 407.447h-3.563v3.024h4.154v.92h-5.238v-8.532h5.186v.926h-4.102v2.742h3.563z"/><path d="m518.521 408.824c-.051.395-.152.758-.305 1.09-.152.328-.349.609-.591.844-.247.238-.538.424-.874.556-.332.129-.703.194-1.113.194-.351 0-.672-.049-.961-.147-.285-.101-.539-.24-.761-.416-.227-.175-.422-.383-.586-.621-.161-.238-.293-.498-.399-.779-.109-.281-.191-.576-.246-.885-.051-.308-.078-.621-.082-.937v-1.19c.004-.316.031-.629.082-.937.055-.309.137-.604.246-.885.106-.281.238-.541.399-.779.164-.243.359-.452.586-.627.222-.176.476-.313.761-.41.285-.102.606-.153.961-.153.426 0 .807.067 1.143.199.336.129.625.313.867.551.242.242.435.531.58.867.148.336.246.707.293 1.114h-1.084c-.035-.258-.096-.498-.182-.721s-.201-.418-.345-.586c-.145-.168-.323-.299-.534-.393-.207-.097-.453-.146-.738-.146-.258 0-.486.043-.685.129-.196.082-.364.195-.504.34-.145.144-.266.312-.364.504-.093.191-.169.394-.228.609s-.102.436-.129.662c-.023.223-.035.44-.035.65v1.202c0 .211.012.429.035.656.027.223.07.441.129.656.059.219.135.424.228.615.094.192.213.36.358.504.144.149.314.266.51.352.195.082.423.123.685.123.285 0 .531-.045.738-.135.211-.09.389-.217.534-.381.144-.16.259-.349.345-.568.086-.223.147-.463.182-.721z"/><path d="m509.657 407.617c-.004.305-.031.613-.082.926-.047.309-.121.607-.222.896-.102.29-.233.559-.393.809-.156.25-.344.469-.563.656-.218.188-.47.336-.755.446-.282.105-.598.158-.95.158-.351 0-.67-.053-.955-.158-.281-.11-.531-.258-.75-.446-.218-.187-.408-.406-.568-.656-.16-.254-.291-.525-.393-.814-.105-.289-.183-.588-.234-.897-.051-.308-.078-.615-.082-.92v-.972c.004-.305.029-.612.076-.92.051-.313.129-.614.235-.903.101-.289.23-.558.386-.808.16-.254.35-.477.569-.668.218-.188.468-.334.75-.44.285-.109.603-.164.955-.164.351 0 .67.055.955.164.285.106.537.252.756.44.218.187.406.408.562.662.16.25.293.519.399.808.101.289.175.59.222.903.051.312.078.621.082.926zm-1.072-.984c-.004-.203-.018-.414-.041-.633-.023-.223-.063-.443-.117-.662-.059-.215-.135-.42-.229-.615-.094-.2-.211-.375-.351-.528-.141-.148-.307-.265-.498-.351-.192-.09-.414-.135-.668-.135-.25 0-.471.045-.662.135-.192.09-.358.209-.498.357-.141.153-.258.328-.352.528-.094.195-.168.4-.223.615-.058.218-.101.439-.129.662-.023.219-.037.428-.041.627v.984c.004.199.018.41.041.633.028.223.071.441.129.656.059.219.135.428.229.627s.211.373.351.522c.141.152.307.273.498.363.192.09.414.135.668.135s.477-.045.668-.135c.196-.09.364-.211.504-.363.137-.149.25-.321.34-.516.094-.199.17-.408.229-.627.054-.215.091-.433.111-.656.023-.223.037-.436.041-.639z"/><path d="m498.046 407.91h-1.705v3.481h-1.078v-8.532h2.502c.398.008.773.065 1.125.17.351.106.66.264.925.475.262.211.467.476.616.797.152.316.228.689.228 1.119 0 .277-.041.531-.123.762-.078.23-.187.439-.328.627-.141.187-.309.353-.504.498-.195.144-.41.267-.644.369l1.81 3.644-.006.071h-1.142zm-1.705-.89h1.453c.242-.004.471-.041.685-.112.215-.074.405-.179.569-.316.16-.137.287-.303.381-.498.093-.199.14-.428.14-.686 0-.273-.045-.512-.134-.715-.09-.207-.215-.381-.375-.521-.161-.137-.352-.24-.575-.311-.218-.07-.459-.107-.72-.111h-1.424z"/><path d="m487.518 407.969v3.422h-1.084v-8.532h2.766c.383.008.744.069 1.084.182.343.113.644.277.902.492s.461.481.609.797c.153.316.229.68.229 1.09s-.076.773-.229 1.09c-.148.312-.351.576-.609.791s-.559.379-.902.492c-.34.113-.701.172-1.084.176zm0-.891h1.682c.25-.004.48-.043.691-.117.211-.078.395-.188.551-.328.156-.141.277-.311.363-.51.09-.203.135-.434.135-.691 0-.258-.045-.491-.135-.698-.086-.207-.205-.382-.357-.527-.156-.145-.342-.256-.557-.334-.211-.078-.441-.119-.691-.123h-1.682z"/><path d="m474.086 408.824c-.051.395-.152.758-.305 1.09-.152.328-.349.609-.592.844-.246.238-.537.424-.873.556-.332.129-.703.194-1.113.194-.351 0-.672-.049-.961-.147-.285-.101-.539-.24-.762-.416-.226-.175-.421-.383-.585-.621-.161-.238-.293-.498-.399-.779-.109-.281-.191-.576-.246-.885-.051-.308-.078-.621-.082-.937v-1.19c.004-.316.031-.629.082-.937.055-.309.137-.604.246-.885.106-.281.238-.541.399-.779.164-.243.359-.452.585-.627.223-.176.477-.313.762-.41.285-.102.606-.153.961-.153.426 0 .807.067 1.143.199.336.129.625.313.867.551.242.242.435.531.58.867.148.336.246.707.293 1.114h-1.084c-.035-.258-.096-.498-.182-.721s-.201-.418-.345-.586c-.145-.168-.323-.299-.534-.393-.207-.097-.453-.146-.738-.146-.258 0-.486.043-.685.129-.196.082-.364.195-.504.34-.145.144-.266.312-.364.504-.093.191-.17.394-.228.609-.059.215-.102.436-.129.662-.023.223-.035.44-.035.65v1.202c0 .211.012.429.035.656.027.223.07.441.129.656.058.219.135.424.228.615.094.192.213.36.358.504.144.149.314.266.51.352.195.082.423.123.685.123.285 0 .531-.045.738-.135.211-.09.389-.217.534-.381.144-.16.259-.349.345-.568.086-.223.147-.463.182-.721z"/><path d="m459.673 402.859h5.157v.944h-2.045v6.65h2.045v.938h-5.157v-.938h1.998v-6.65h-1.998z"/><path d="m456.54 403.785h-2.637v7.606h-1.054v-7.606h-2.637v-.926h6.328z"/><path d="m446.364 409.234c0-.261-.06-.482-.181-.662-.118-.179-.27-.332-.457-.457-.188-.121-.395-.222-.622-.304-.222-.082-.437-.157-.644-.223-.301-.098-.607-.215-.92-.352-.309-.14-.59-.308-.844-.504-.258-.199-.468-.433-.633-.703-.16-.273-.24-.593-.24-.961 0-.367.08-.695.24-.984.165-.289.377-.533.639-.732.262-.2.559-.35.891-.452.332-.105.666-.158 1.002-.158.371 0 .728.063 1.072.188.344.121.648.293.914.515.266.223.479.493.639.809s.244.67.252 1.06h-1.114c-.031-.246-.091-.468-.181-.668-.09-.203-.209-.376-.358-.521-.148-.145-.326-.256-.533-.334-.203-.082-.433-.123-.691-.123-.207 0-.41.029-.61.088-.195.058-.369.146-.521.264-.156.117-.281.261-.375.433-.09.172-.135.371-.135.598.004.246.067.455.188.627.121.168.275.31.462.427.184.118.383.215.598.293.219.079.424.147.615.206.317.097.633.216.95.357.316.137.605.312.867.527.258.2.465.444.621.733.16.289.24.623.24 1.002 0 .382-.086.716-.258 1.002-.168.285-.386.521-.656.709-.269.191-.574.336-.914.433-.34.094-.68.141-1.02.141-.406 0-.806-.069-1.201-.205-.39-.137-.73-.334-1.019-.592-.258-.223-.463-.482-.615-.779-.149-.301-.229-.635-.241-1.002h1.108c.035.265.107.502.217.709.109.203.25.375.421.515.172.145.37.254.592.328.227.071.473.106.738.106.211 0 .418-.026.622-.076.207-.055.39-.139.55-.252.16-.11.291-.248.393-.416.101-.172.152-.375.152-.61z"/><path d="m437.084 409.182h-2.847l-.686 2.209h-1.084l2.754-8.532h.908l2.707 8.532h-1.078zm-2.554-.944h2.267l-1.125-3.703z"/><path d="m425.35 410.471h4.171v.92h-5.255v-8.532h1.084z"/><path d="m416.422 407.969v3.422h-1.084v-8.532h2.766c.382.008.744.069 1.084.182.343.113.644.277.902.492s.461.481.609.797c.153.316.229.68.229 1.09s-.076.773-.229 1.09c-.148.312-.351.576-.609.791s-.559.379-.902.492c-.34.113-.702.172-1.084.176zm0-.891h1.682c.25-.004.48-.043.691-.117.211-.078.394-.188.551-.328.156-.141.277-.311.363-.51.09-.203.135-.434.135-.691 0-.258-.045-.491-.135-.698-.086-.207-.205-.382-.357-.527-.157-.145-.342-.256-.557-.334-.211-.078-.441-.119-.691-.123h-1.682z"/><path d="m402.808 411.391h-1.101l-3.311-6.375-.018 6.375h-1.095v-8.532h1.101l3.311 6.364.017-6.364h1.096z"/><path d="m392.649 409.182h-2.847l-.686 2.209h-1.084l2.754-8.532h.908l2.707 8.532h-1.078zm-2.554-.944h2.267l-1.125-3.703z"/><path d="m384.383 407.447h-3.562v3.024h4.154v.92h-5.238v-8.532h5.185v.926h-4.101v2.742h3.562z"/><path d="m376.329 408.824c-.051.395-.153.758-.305 1.09-.152.328-.35.609-.592.844-.246.238-.537.424-.873.556-.332.129-.703.194-1.113.194-.352 0-.672-.049-.961-.147-.285-.101-.539-.24-.762-.416-.226-.175-.422-.383-.586-.621-.16-.238-.293-.498-.398-.779-.11-.281-.192-.576-.246-.885-.051-.308-.078-.621-.082-.937v-1.19c.004-.316.031-.629.082-.937.054-.309.136-.604.246-.885.105-.281.238-.541.398-.779.164-.243.36-.452.586-.627.223-.176.477-.313.762-.41.285-.102.605-.153.961-.153.426 0 .806.067 1.142.199.336.129.625.313.868.551.242.242.435.531.58.867.148.336.246.707.293 1.114h-1.084c-.036-.258-.096-.498-.182-.721s-.201-.418-.346-.586c-.144-.168-.322-.299-.533-.393-.207-.097-.453-.146-.738-.146-.258 0-.487.043-.686.129-.195.082-.363.195-.504.34-.144.144-.265.312-.363.504-.094.191-.17.394-.228.609-.059.215-.102.436-.129.662-.024.223-.036.44-.036.65v1.202c0 .211.012.429.036.656.027.223.07.441.129.656.058.219.134.424.228.615.094.192.213.36.357.504.145.149.315.266.51.352.196.082.424.123.686.123.285 0 .531-.045.738-.135.211-.09.389-.217.533-.381.145-.16.26-.349.346-.568.086-.223.146-.463.182-.721z"/><path d="m367.465 407.617c-.004.305-.031.613-.082.926-.047.309-.121.607-.223.896-.101.29-.232.559-.392.809-.157.25-.344.469-.563.656-.219.188-.471.336-.756.446-.281.105-.597.158-.949.158s-.67-.053-.955-.158c-.281-.11-.531-.258-.75-.446-.219-.187-.408-.406-.568-.656-.161-.254-.291-.525-.393-.814-.105-.289-.184-.588-.234-.897-.051-.308-.079-.615-.082-.92v-.972c.003-.305.029-.612.076-.92.051-.313.129-.614.234-.903.102-.289.231-.558.387-.808.16-.254.349-.477.568-.668.219-.188.469-.334.75-.44.285-.109.604-.164.955-.164.352 0 .67.055.955.164.286.106.537.252.756.44.219.187.406.408.563.662.16.25.293.519.398.808.102.289.176.59.223.903.051.312.078.621.082.926zm-1.072-.984c-.004-.203-.018-.414-.041-.633-.024-.223-.063-.443-.118-.662-.058-.215-.134-.42-.228-.615-.094-.2-.211-.375-.352-.528-.14-.148-.306-.265-.498-.351-.191-.09-.414-.135-.668-.135-.25 0-.47.045-.662.135-.191.09-.357.209-.498.357-.14.153-.258.328-.351.528-.094.195-.168.4-.223.615-.059.218-.102.439-.129.662-.023.219-.037.428-.041.627v.984c.004.199.018.41.041.633.027.223.07.441.129.656.058.219.135.428.228.627.094.199.211.373.352.522.141.152.307.273.498.363s.414.135.668.135.477-.045.668-.135c.195-.09.363-.211.504-.363.137-.149.25-.321.34-.516.093-.199.17-.408.228-.627.055-.215.092-.433.112-.656.023-.223.037-.436.041-.639z"/><path d="m354.458 412.123h-.972l3.562-9.264h.967z"/><path d="m345.367 410.471h4.172v.92h-5.256v-8.532h1.084z"/><path d="m336.479 410.471h4.172v.92h-5.255v-8.532h1.083z"/><path d="m326.368 402.859h5.156v.944h-2.045v6.65h2.045v.938h-5.156v-.938h1.998v-6.65h-1.998z"/><path d="m322.227 407.623h-3.551v3.768h-1.095v-8.532h5.238v.926h-4.143v2.918h3.551z"/><path d="m308.482 411.391v-8.532h1.975c.332.004.645.039.938.106.296.062.57.152.82.269.347.161.654.371.92.633.269.258.484.557.644.897.145.289.254.605.328.949.079.344.12.711.123 1.101v.627c0 .375-.037.731-.111 1.067-.07.336-.174.644-.31.926-.141.293-.319.558-.534.796-.214.239-.455.442-.72.61-.282.176-.6.31-.955.404-.352.094-.733.143-1.143.147zm1.102-7.641v6.756h.873c.313-.004.596-.043.85-.117.257-.075.486-.18.685-.317.211-.14.393-.312.545-.515.156-.207.279-.438.369-.692.078-.207.137-.429.176-.668.039-.242.061-.494.064-.756v-.638c-.003-.266-.027-.52-.07-.762-.039-.246-.099-.475-.181-.686-.106-.273-.249-.519-.428-.738-.176-.222-.393-.402-.651-.539-.183-.101-.388-.18-.615-.234-.226-.059-.474-.09-.744-.094z"/><path d="m305.05 411.391h-1.101l-3.311-6.375-.017 6.375h-1.096v-8.532h1.101l3.311 6.364.018-6.364h1.095z"/><path d="m294.892 409.182h-2.848l-.685 2.209h-1.084l2.754-8.532h.908l2.707 8.532h-1.078zm-2.555-.944h2.268l-1.125-3.703z"/><path d="m283.157 410.471h4.172v.92h-5.256v-8.532h1.084z"/><path d="m268.905 407.623h-3.551v3.768h-1.096v-8.532h5.239v.926h-4.143v2.918h3.551z"/><path d="m260.82 407.617c-.004.305-.031.613-.082.926-.047.309-.121.607-.222.896-.102.29-.233.559-.393.809-.156.25-.344.469-.562.656-.219.188-.471.336-.756.446-.282.105-.598.158-.95.158-.351 0-.669-.053-.955-.158-.281-.11-.531-.258-.75-.446-.218-.187-.408-.406-.568-.656-.16-.254-.291-.525-.393-.814-.105-.289-.183-.588-.234-.897-.051-.308-.078-.615-.082-.92v-.972c.004-.305.029-.612.076-.92.051-.313.129-.614.235-.903.101-.289.23-.558.386-.808.16-.254.35-.477.569-.668.218-.188.468-.334.75-.44.285-.109.603-.164.955-.164.351 0 .67.055.955.164.285.106.537.252.756.44.218.187.406.408.562.662.16.25.293.519.399.808.101.289.175.59.222.903.051.312.078.621.082.926zm-1.072-.984c-.004-.203-.018-.414-.041-.633-.023-.223-.062-.443-.117-.662-.059-.215-.135-.42-.229-.615-.093-.2-.211-.375-.351-.528-.141-.148-.307-.265-.498-.351-.192-.09-.414-.135-.668-.135-.25 0-.471.045-.662.135-.192.09-.358.209-.498.357-.141.153-.258.328-.352.528-.094.195-.168.4-.223.615-.058.218-.101.439-.129.662-.023.219-.037.428-.041.627v.984c.004.199.018.41.041.633.028.223.071.441.129.656.059.219.135.428.229.627s.211.373.351.522c.141.152.307.273.499.363.191.09.414.135.667.135.254 0 .477-.045.668-.135.196-.09.364-.211.504-.363.137-.149.25-.321.34-.516.094-.199.17-.408.229-.627.054-.215.092-.433.111-.656.023-.223.037-.436.041-.639z"/><path d="m241.962 409.234c0-.261-.06-.482-.181-.662-.117-.179-.27-.332-.457-.457-.188-.121-.395-.222-.621-.304-.223-.082-.438-.157-.645-.223-.301-.098-.607-.215-.92-.352-.308-.14-.59-.308-.844-.504-.257-.199-.468-.433-.632-.703-.161-.273-.241-.593-.241-.961 0-.367.08-.695.241-.984.164-.289.377-.533.638-.732.262-.2.559-.35.891-.452.332-.105.666-.158 1.002-.158.371 0 .728.063 1.072.188.344.121.649.293.914.515.266.223.479.493.639.809s.244.67.252 1.06h-1.113c-.032-.246-.092-.468-.182-.668-.09-.203-.209-.376-.358-.521-.148-.145-.326-.256-.533-.334-.203-.082-.433-.123-.691-.123-.207 0-.41.029-.61.088-.195.058-.369.146-.521.264-.156.117-.281.261-.375.433-.09.172-.135.371-.135.598.004.246.067.455.188.627.121.168.275.31.463.427.183.118.382.215.597.293.219.079.424.147.616.206.316.097.632.216.949.357.316.137.605.312.867.527.258.2.465.444.621.733.16.289.24.623.24 1.002 0 .382-.086.716-.258 1.002-.168.285-.386.521-.656.709-.269.191-.574.336-.914.433-.34.094-.68.141-1.019.141-.407 0-.807-.069-1.202-.205-.39-.137-.73-.334-1.019-.592-.258-.223-.463-.482-.615-.779-.149-.301-.229-.635-.241-1.002h1.108c.035.265.107.502.217.709.109.203.25.375.422.515.171.145.369.254.591.328.227.071.473.106.739.106.211 0 .418-.026.621-.076.207-.055.39-.139.55-.252.161-.11.291-.248.393-.416.102-.172.152-.375.152-.61z"/><path d="m233.954 411.391h-1.101l-3.311-6.375-.018 6.375h-1.095v-8.532h1.101l3.311 6.364.017-6.364h1.096z"/><path d="m225.272 407.617c-.003.305-.031.613-.082.926-.046.309-.121.607-.222.896-.102.29-.233.559-.393.809-.156.25-.344.469-.562.656-.219.188-.471.336-.756.446-.281.105-.598.158-.949.158-.352 0-.67-.053-.955-.158-.282-.11-.532-.258-.75-.446-.219-.187-.409-.406-.569-.656-.16-.254-.291-.525-.392-.814-.106-.289-.184-.588-.235-.897-.051-.308-.078-.615-.082-.92v-.972c.004-.305.029-.612.076-.92.051-.313.129-.614.235-.903.101-.289.23-.558.386-.808.161-.254.35-.477.569-.668.219-.188.469-.334.75-.44.285-.109.603-.164.955-.164.351 0 .67.055.955.164.285.106.537.252.756.44.219.187.406.408.562.662.16.25.293.519.399.808.101.289.176.59.222.903.051.312.079.621.082.926zm-1.072-.984c-.004-.203-.017-.414-.041-.633-.023-.223-.062-.443-.117-.662-.059-.215-.135-.42-.229-.615-.093-.2-.21-.375-.351-.528-.141-.148-.307-.265-.498-.351-.192-.09-.414-.135-.668-.135-.25 0-.471.045-.662.135-.192.09-.358.209-.498.357-.141.153-.258.328-.352.528-.094.195-.168.4-.222.615-.059.218-.102.439-.129.662-.024.219-.037.428-.041.627v.984c.004.199.017.41.041.633.027.223.07.441.129.656.058.219.134.428.228.627s.211.373.352.522c.14.152.306.273.498.363.191.09.414.135.668.135s.476-.045.668-.135c.195-.09.363-.211.503-.363.137-.149.25-.321.34-.516.094-.199.17-.408.229-.627.055-.215.092-.433.111-.656.024-.223.037-.436.041-.639z"/><path d="m216.59 403.785h-2.636v7.606h-1.055v-7.606h-2.637v-.926h6.328z"/><path d="m577.4 406.433c.553 0 1 .447 1 1 0 .552-.447 1-1 1h-2.333c-.552 0-1-.448-1-1 0-.553.448-1 1-1zm9.334 0c.553 0 1 .447 1 1 0 .552-.447.999-1 1h-4.667c-.552 0-1-.448-1-1 0-.553.448-1 1-1zm9.333 0c.553 0 1 .447 1 1 0 .552-.447 1-1 1h-4.667c-.552-.001-1-.448-1-1 0-.553.448-1 1-1zm7 0c.553 0 1 .447 1 1 0 .552-.447 1-1 1h-2.333c-.552 0-1-.448-1-1 0-.553.448-1 1-1z"/><path d="m814.736 411.698v-8.531h1.974c.332.004.645.039.938.105.297.063.57.153.82.27.348.16.655.371.92.633.27.258.485.556.645.896.144.289.254.606.328.95.078.343.119.71.123 1.101v.627c0 .375-.037.73-.111 1.066-.071.336-.174.645-.311.926-.141.293-.318.559-.533.797s-.455.441-.721.609c-.281.176-.6.311-.955.405-.352.094-.732.142-1.143.146zm1.101-7.64v6.755h.873c.313-.003.596-.042.85-.117.258-.074.486-.179.686-.316.211-.141.392-.313.545-.516.156-.207.279-.437.369-.691.078-.207.136-.43.175-.668.04-.242.061-.494.065-.756v-.639c-.004-.265-.027-.519-.07-.761-.039-.246-.1-.475-.182-.686-.106-.273-.248-.519-.428-.738-.176-.223-.392-.403-.65-.539-.184-.102-.389-.18-.615-.235-.227-.058-.475-.089-.745-.093z"/><path d="m810.653 407.755h-3.562v3.023h4.154v.92h-5.238v-8.531h5.185v.926h-4.101v2.742h3.562z"/><path d="m798.298 410.778h4.172v.92h-5.256v-8.531h1.084z"/><path d="m789.411 410.778h4.172v.92h-5.256v-8.531h1.084z"/><path d="m783.371 409.489h-2.848l-.685 2.209h-1.084l2.754-8.531h.908l2.707 8.531h-1.078zm-2.555-.943h2.268l-1.125-3.703z"/><path d="m776.166 404.093h-2.637v7.605h-1.054v-7.605h-2.637v-.926h6.328z"/><path d="m765.99 409.542c0-.262-.061-.482-.182-.662-.117-.18-.269-.332-.457-.457-.187-.121-.394-.223-.621-.305-.223-.082-.438-.156-.645-.222-.3-.098-.607-.215-.919-.352-.309-.141-.59-.309-.844-.504-.258-.199-.469-.434-.633-.703-.16-.274-.24-.594-.24-.961s.08-.695.24-.984c.164-.289.377-.534.639-.733.261-.199.558-.349.89-.451.332-.105.666-.158 1.002-.158.371 0 .729.062 1.072.187.344.121.649.293.915.516.265.223.478.492.638.809.16.316.244.669.252 1.06h-1.113c-.031-.246-.092-.469-.182-.668-.09-.203-.209-.377-.357-.521-.149-.145-.326-.256-.533-.334-.204-.082-.434-.123-.692-.123-.207 0-.41.029-.609.087-.195.059-.369.147-.522.264-.156.117-.281.262-.375.434-.089.172-.134.371-.134.597.003.246.066.455.187.627.121.168.275.311.463.428.184.117.383.215.598.293.218.078.423.147.615.205.316.098.633.217.949.358.316.136.606.312.867.527.258.199.465.443.621.732.161.289.241.623.241 1.002 0 .383-.086.717-.258 1.002-.168.285-.387.522-.656.709-.27.192-.575.336-.915.434-.339.094-.679.14-1.019.14-.406 0-.807-.068-1.201-.205-.391-.136-.731-.334-1.02-.591-.258-.223-.463-.483-.615-.78-.148-.301-.229-.635-.24-1.002h1.107c.035.266.108.502.217.709.109.203.25.375.422.516.172.144.369.254.592.328.226.07.472.106.738.106.211 0 .418-.026.621-.077.207-.054.391-.138.551-.252.16-.109.291-.248.392-.416.102-.172.153-.375.153-.609z"/><path d="m757.982 411.698h-1.102l-3.31-6.375-.018 6.375h-1.095v-8.531h1.101l3.311 6.363.017-6.363h1.096z"/><path d="m743.751 403.167h5.156v.943h-2.045v6.651h2.045v.937h-5.156v-.937h1.998v-6.651h-1.998z"/><path d="m730.442 409.542c0-.262-.061-.482-.182-.662-.117-.18-.269-.332-.457-.457-.187-.121-.394-.223-.621-.305-.223-.082-.437-.156-.644-.222-.301-.098-.608-.215-.92-.352-.309-.141-.59-.309-.844-.504-.258-.199-.469-.434-.633-.703-.16-.274-.24-.594-.24-.961s.08-.695.24-.984c.164-.289.377-.534.639-.733s.558-.349.89-.451c.332-.105.666-.158 1.002-.158.371 0 .729.062 1.073.187.343.121.648.293.914.516.265.223.478.492.638.809.161.316.245.669.252 1.06h-1.113c-.031-.246-.092-.469-.182-.668-.089-.203-.209-.377-.357-.521-.148-.145-.326-.256-.533-.334-.203-.082-.434-.123-.692-.123-.207 0-.41.029-.609.087-.195.059-.369.147-.521.264-.157.117-.282.262-.375.434-.09.172-.135.371-.135.597.004.246.066.455.187.627.121.168.276.311.463.428.184.117.383.215.598.293.219.078.424.147.615.205.316.098.633.217.949.358.317.136.606.312.867.527.258.199.465.443.622.732.16.289.24.623.24 1.002 0 .383-.086.717-.258 1.002-.168.285-.387.522-.656.709-.27.192-.575.336-.914.434-.34.094-.68.14-1.02.14-.406 0-.807-.068-1.201-.205-.391-.136-.731-.334-1.02-.591-.257-.223-.462-.483-.615-.78-.148-.301-.228-.635-.24-1.002h1.107c.036.266.108.502.217.709.11.203.25.375.422.516.172.144.369.254.592.328.226.07.472.106.738.106.211 0 .418-.026.621-.077.207-.054.391-.138.551-.252.16-.109.291-.248.393-.416.101-.172.152-.375.152-.609z"/><path d="m719.604 407.45 1.945-4.283h1.23l-2.654 5.35-.018 3.181h-1.007l-.018-3.181-2.654-5.35h1.236z"/><path d="m711.027 408.218h-1.705v3.48h-1.078v-8.531h2.502c.398.008.773.064 1.125.17.351.105.66.264.925.475.262.21.467.476.616.796.152.317.228.69.228 1.12 0 .277-.041.531-.123.761-.078.231-.187.44-.328.627-.141.188-.309.354-.504.498-.195.145-.41.268-.644.369l1.81 3.645-.006.07h-1.142zm-1.705-.891h1.453c.242-.004.471-.041.685-.111.215-.074.405-.18.569-.317.16-.136.287-.302.381-.498.093-.199.14-.427.14-.685 0-.274-.045-.512-.134-.715-.09-.207-.215-.381-.375-.522-.161-.136-.352-.24-.575-.31-.218-.07-.459-.107-.72-.111h-1.424z"/><path d="m704.865 407.925c-.004.304-.032.613-.082.926-.047.308-.121.607-.223.896s-.232.559-.393.809c-.156.25-.343.468-.562.656-.219.187-.471.336-.756.445-.281.106-.598.158-.949.158-.352 0-.67-.052-.955-.158-.281-.109-.531-.258-.75-.445-.219-.188-.408-.406-.569-.656-.16-.254-.291-.526-.392-.815-.106-.289-.184-.588-.234-.896-.051-.309-.079-.616-.083-.92v-.973c.004-.305.03-.611.077-.92.05-.312.129-.613.234-.902.102-.289.23-.559.387-.809.16-.254.349-.476.568-.668.219-.187.469-.334.75-.439.285-.11.604-.164.955-.164.352 0 .67.054.955.164.285.105.537.252.756.439.219.188.406.409.563.662.16.25.293.52.398.809.102.289.176.59.223.902.05.313.078.621.082.926zm-1.073-.985c-.003-.203-.017-.414-.041-.632-.023-.223-.062-.444-.117-.662-.058-.215-.134-.42-.228-.616-.094-.199-.211-.375-.352-.527-.14-.149-.306-.266-.498-.352-.191-.089-.414-.134-.668-.134-.25 0-.471.045-.662.134-.191.09-.357.209-.498.358-.141.152-.258.328-.352.527-.093.195-.168.401-.222.615-.059.219-.102.44-.129.662-.024.219-.037.428-.041.627v.985c.004.199.017.41.041.633.027.222.07.441.129.656.058.219.135.428.228.627.094.199.211.373.352.521.141.153.307.274.498.364.191.089.414.134.668.134s.476-.045.668-.134c.195-.09.363-.211.504-.364.136-.148.25-.32.34-.515.093-.2.17-.409.228-.627.055-.215.092-.434.111-.657.024-.222.038-.435.041-.638z"/><path d="m696.183 404.093h-2.637v7.605h-1.055v-7.605h-2.637v-.926h6.329z"/><path d="m687.067 409.132c-.051.394-.152.758-.305 1.09-.152.328-.349.609-.592.843-.246.239-.537.424-.873.557-.332.129-.703.193-1.113.193-.351 0-.672-.048-.961-.146-.285-.102-.539-.24-.762-.416-.226-.176-.421-.383-.586-.621-.16-.238-.292-.498-.398-.779-.109-.282-.191-.577-.246-.885-.051-.309-.078-.621-.082-.938v-1.189c.004-.317.031-.629.082-.938.055-.308.137-.603.246-.884.106-.282.238-.541.398-.78.165-.242.36-.451.586-.627.223-.175.477-.312.762-.41.285-.101.606-.152.961-.152.426 0 .807.066 1.143.199.336.129.625.313.867.551.242.242.435.531.58.867.148.336.246.707.293 1.113h-1.084c-.035-.258-.096-.498-.182-.72-.086-.223-.201-.418-.345-.586-.145-.168-.323-.299-.534-.393-.207-.098-.453-.146-.738-.146-.258 0-.486.043-.685.128-.196.083-.364.196-.504.34-.145.145-.266.313-.364.504-.093.192-.17.395-.228.61-.059.214-.102.435-.129.662-.024.222-.035.439-.035.65v1.201c0 .211.011.43.035.657.027.222.07.441.129.656.058.219.135.424.228.615.094.191.213.359.358.504.144.148.314.266.51.351.195.083.423.124.685.124.285 0 .531-.045.738-.135.211-.09.389-.217.534-.381.144-.16.259-.35.345-.568.086-.223.147-.463.182-.721z"/><path d="m676.727 409.489h-2.848l-.685 2.209h-1.084l2.754-8.531h.908l2.707 8.531h-1.078zm-2.555-.943h2.268l-1.125-3.703z"/><path d="m668.514 407.931h-3.551v3.767h-1.096v-8.531h5.238v.926h-4.142v2.918h3.551z"/><path d="m656.767 410.995c0-.23.07-.428.211-.592s.354-.246.639-.246c.281 0 .494.082.638.246.149.16.223.358.223.592 0 .231-.074.424-.223.58-.148.156-.361.235-.638.235-.282 0-.494-.079-.639-.235-.141-.16-.211-.353-.211-.58z"/><path d="m645.882 411.698v-8.531h1.975c.332.004.644.039.937.105.297.063.571.153.821.27.347.16.654.371.92.633.269.258.484.556.644.896.145.289.254.606.328.95.078.343.119.71.123 1.101v.627c0 .375-.037.73-.111 1.066-.07.336-.174.645-.311.926-.14.293-.318.559-.533.797s-.455.441-.72.609c-.282.176-.6.311-.955.405-.352.094-.733.142-1.143.146zm1.102-7.64v6.755h.873c.312-.003.596-.042.85-.117.257-.074.486-.179.685-.316.211-.141.393-.313.545-.516.156-.207.279-.437.369-.691.078-.207.137-.43.176-.668.039-.242.06-.494.064-.756v-.639c-.004-.265-.027-.519-.07-.761-.039-.246-.1-.475-.182-.686-.105-.273-.248-.519-.427-.738-.176-.223-.393-.403-.651-.539-.183-.102-.388-.18-.615-.235-.226-.058-.475-.089-.744-.093z"/><path d="m642.655 407.925c-.004.304-.031.613-.082.926-.047.308-.121.607-.222.896-.102.289-.233.559-.393.809-.156.25-.344.468-.562.656-.219.187-.471.336-.756.445-.282.106-.598.158-.95.158-.351 0-.669-.052-.955-.158-.281-.109-.531-.258-.75-.445-.218-.188-.408-.406-.568-.656-.16-.254-.291-.526-.393-.815-.105-.289-.183-.588-.234-.896-.051-.309-.078-.616-.082-.92v-.973c.004-.305.029-.611.076-.92.051-.312.129-.613.235-.902.101-.289.23-.559.386-.809.16-.254.35-.476.569-.668.218-.187.468-.334.75-.439.285-.11.603-.164.955-.164.351 0 .67.054.955.164.285.105.537.252.756.439.218.188.406.409.562.662.16.25.293.52.399.809.101.289.175.59.222.902.051.313.078.621.082.926zm-1.072-.985c-.004-.203-.018-.414-.041-.632-.023-.223-.063-.444-.117-.662-.059-.215-.135-.42-.229-.616-.093-.199-.211-.375-.351-.527-.141-.149-.307-.266-.498-.352-.192-.089-.414-.134-.668-.134-.25 0-.471.045-.662.134-.192.09-.358.209-.498.358-.141.152-.258.328-.352.527-.094.195-.168.401-.223.615-.058.219-.101.44-.129.662-.023.219-.037.428-.041.627v.985c.004.199.018.41.041.633.028.222.071.441.129.656.059.219.135.428.229.627s.211.373.351.521c.141.153.307.274.498.364.192.089.415.134.668.134.254 0 .477-.045.668-.134.196-.09.364-.211.504-.364.137-.148.25-.32.34-.515.094-.2.17-.409.229-.627.054-.215.091-.434.111-.657.023-.222.037-.435.041-.638z"/><path d="m629.409 403.167 1.389 4.266 1.5-4.266h1.348v8.531h-1.055v-3.404l.088-3.563-1.576 4.594h-.622l-1.447-4.471.088 3.44v3.404h-1.055v-8.531z"/><path d="m859.484 406.433v2h-30v-2z"/></g></svg>