<svg width="353" height="484" viewBox="0 0 353 484" fill="none" xmlns="http://www.w3.org/2000/svg">
<rect width="353" height="484" fill="#CFFFED"/>
<path opacity="0.6" d="M31.541 55.8065C31.4717 55.8065 31.437 55.7675 31.437 55.6895V47.4085C31.437 47.3305 31.4717 47.2915 31.541 47.2915H32.269C32.3383 47.2915 32.373 47.3305 32.373 47.4085V50.0605C32.373 50.2425 32.3687 50.4245 32.36 50.6065C32.36 50.7885 32.3557 50.9705 32.347 51.1525C32.347 51.3345 32.3427 51.5208 32.334 51.7115H32.36C32.5073 51.4428 32.659 51.1828 32.815 50.9315C32.971 50.6715 33.127 50.4158 33.283 50.1645L35.129 47.3435C35.1377 47.3088 35.1767 47.2915 35.246 47.2915H36.13C36.1733 47.2915 36.1993 47.3045 36.208 47.3305C36.2253 47.3565 36.221 47.3912 36.195 47.4345L33.946 50.7365L36.39 55.6635C36.4073 55.6982 36.4117 55.7328 36.403 55.7675C36.3943 55.7935 36.3683 55.8065 36.325 55.8065H35.441C35.389 55.8065 35.3457 55.7805 35.311 55.7285L33.322 51.6595L32.373 53.0505V55.6895C32.373 55.7675 32.3383 55.8065 32.269 55.8065H31.541Z" fill="#0B0B1C"/>
<path opacity="0.6" d="M27.6889 55.9105C26.9696 55.9105 26.4149 55.6895 26.0249 55.2475C25.6349 54.8055 25.4399 54.1685 25.4399 53.3365V49.7615C25.4399 48.9295 25.6349 48.2925 26.0249 47.8505C26.4149 47.4085 26.9696 47.1875 27.6889 47.1875C28.4083 47.1875 28.9629 47.4085 29.3529 47.8505C29.7429 48.2925 29.9379 48.9295 29.9379 49.7615V53.3365C29.9379 54.1685 29.7429 54.8055 29.3529 55.2475C28.9629 55.6895 28.4083 55.9105 27.6889 55.9105ZM27.6889 55.0395C28.1136 55.0395 28.4343 54.8965 28.6509 54.6105C28.8763 54.3245 28.9889 53.9042 28.9889 53.3495V49.7485C28.9889 49.1852 28.8763 48.7648 28.6509 48.4875C28.4343 48.2015 28.1136 48.0585 27.6889 48.0585C27.2643 48.0585 26.9393 48.2015 26.7139 48.4875C26.4973 48.7648 26.3889 49.1852 26.3889 49.7485V53.3495C26.3889 53.9042 26.4973 54.3245 26.7139 54.6105C26.9393 54.8965 27.2643 55.0395 27.6889 55.0395Z" fill="#0B0B1C"/>
<path opacity="0.6" d="M22.0163 55.9105C21.5743 55.9105 21.2017 55.8282 20.8983 55.6635C20.6037 55.4902 20.3827 55.2388 20.2353 54.9095C20.0967 54.5802 20.0273 54.1772 20.0273 53.7005C20.0273 53.6225 20.0707 53.5835 20.1573 53.5835H20.8203C20.8983 53.5835 20.9373 53.6225 20.9373 53.7005C20.9287 54.1165 21.011 54.4458 21.1843 54.6885C21.3663 54.9225 21.661 55.0395 22.0683 55.0395C22.519 55.0395 22.8483 54.9052 23.0563 54.6365C23.2643 54.3678 23.3683 53.9562 23.3683 53.4015V52.8685C23.3683 52.4958 23.325 52.1925 23.2383 51.9585C23.1517 51.7245 23.013 51.5512 22.8223 51.4385C22.6317 51.3258 22.3803 51.2695 22.0683 51.2695C21.8257 51.2695 21.557 51.3128 21.2623 51.3995C20.9763 51.4862 20.6947 51.6032 20.4173 51.7505C20.3653 51.7765 20.3177 51.7808 20.2743 51.7635C20.2397 51.7375 20.2267 51.6985 20.2353 51.6465L20.5473 47.4085C20.5473 47.3305 20.5863 47.2915 20.6643 47.2915H23.7973C23.8753 47.2915 23.9143 47.3305 23.9143 47.4085V48.0585C23.9143 48.1452 23.8753 48.1885 23.7973 48.1885H21.3793L21.2103 50.6325C21.4183 50.5632 21.6177 50.5155 21.8083 50.4895C21.999 50.4548 22.181 50.4375 22.3543 50.4375C22.9783 50.4375 23.4593 50.6585 23.7973 51.1005C24.1353 51.5338 24.3043 52.2142 24.3043 53.1415C24.3043 54.0342 24.1093 54.7188 23.7193 55.1955C23.3293 55.6722 22.7617 55.9105 22.0163 55.9105Z" fill="#0B0B1C"/>
<path d="M337.02 54.543C337.02 55.0859 336.958 55.5684 336.833 55.9902C336.708 56.4082 336.528 56.7598 336.293 57.0449C336.059 57.334 335.772 57.5527 335.432 57.7012C335.092 57.8496 334.704 57.9238 334.266 57.9238C333.833 57.9238 333.444 57.8516 333.1 57.707C332.756 57.5586 332.465 57.3379 332.227 57.0449C331.989 56.7598 331.807 56.4082 331.682 55.9902C331.557 55.5684 331.495 55.0859 331.495 54.543V52.5449C331.495 52.002 331.557 51.5215 331.682 51.1035C331.807 50.6816 331.989 50.3262 332.227 50.0371C332.461 49.748 332.749 49.5293 333.088 49.3809C333.432 49.2285 333.821 49.1523 334.254 49.1523C334.692 49.1523 335.081 49.2285 335.42 49.3809C335.764 49.5293 336.055 49.748 336.293 50.0371C336.528 50.3262 336.708 50.6816 336.833 51.1035C336.958 51.5215 337.02 52.002 337.02 52.5449V54.543ZM332.584 54.3262L335.907 51.7773C335.875 51.4961 335.819 51.248 335.737 51.0332C335.659 50.8145 335.551 50.6328 335.415 50.4883C335.282 50.3398 335.118 50.2285 334.922 50.1543C334.731 50.0801 334.508 50.043 334.254 50.043C333.997 50.043 333.768 50.084 333.569 50.166C333.374 50.2441 333.208 50.3594 333.071 50.5117C332.907 50.7031 332.784 50.9512 332.702 51.2559C332.624 51.5566 332.584 51.9062 332.584 52.3047V53.7344C332.584 53.832 332.584 53.9297 332.584 54.0273C332.584 54.125 332.584 54.2246 332.584 54.3262ZM335.93 54.7715V53.5645C335.93 53.5059 335.93 53.3945 335.93 53.2305C335.93 53.0625 335.93 52.9238 335.93 52.8145L332.614 55.3516C332.649 55.6367 332.711 55.8887 332.801 56.1074C332.891 56.3223 333.008 56.5 333.153 56.6406C333.286 56.7734 333.446 56.875 333.633 56.9453C333.821 57.0117 334.032 57.0449 334.266 57.0449C334.512 57.0449 334.731 57.0078 334.922 56.9336C335.114 56.8594 335.276 56.752 335.409 56.6113C335.588 56.4199 335.719 56.1699 335.801 55.8613C335.887 55.5527 335.93 55.1895 335.93 54.7715Z" fill="#00384F"/>
<path d="M323.164 53.5293L323.592 49.2754H327.969V50.3301H324.506L324.266 52.6035C324.434 52.5059 324.635 52.4199 324.869 52.3457C325.104 52.2715 325.375 52.2344 325.684 52.2344C326.078 52.2344 326.432 52.3027 326.744 52.4395C327.057 52.5762 327.322 52.7676 327.541 53.0137C327.76 53.2637 327.928 53.5645 328.045 53.916C328.162 54.2676 328.221 54.6582 328.221 55.0879C328.221 55.4941 328.166 55.8711 328.057 56.2188C327.947 56.5664 327.783 56.8652 327.564 57.1152C327.342 57.3691 327.062 57.5684 326.727 57.7129C326.391 57.8535 325.996 57.9238 325.543 57.9238C325.195 57.9238 324.867 57.875 324.559 57.7773C324.25 57.6797 323.977 57.5332 323.738 57.3379C323.496 57.1426 323.297 56.8965 323.141 56.5996C322.988 56.3027 322.893 55.957 322.854 55.5625H323.885C323.951 56.0469 324.129 56.4141 324.418 56.6641C324.711 56.9141 325.086 57.0391 325.543 57.0391C325.801 57.0391 326.029 56.9941 326.229 56.9043C326.428 56.8105 326.596 56.6777 326.732 56.5059C326.865 56.3379 326.965 56.1348 327.031 55.8965C327.102 55.6582 327.137 55.3926 327.137 55.0996C327.137 54.834 327.098 54.5859 327.02 54.3555C326.945 54.125 326.836 53.9238 326.691 53.752C326.547 53.584 326.369 53.4512 326.158 53.3535C325.947 53.2559 325.705 53.207 325.432 53.207C325.252 53.207 325.096 53.2207 324.963 53.248C324.834 53.2715 324.717 53.3066 324.611 53.3535C324.506 53.4004 324.406 53.457 324.312 53.5234C324.223 53.5898 324.129 53.666 324.031 53.752L323.164 53.5293Z" fill="#00384F"/>
<path opacity="0.6" d="M31.541 215.807C31.4717 215.807 31.437 215.768 31.437 215.69V207.409C31.437 207.331 31.4717 207.292 31.541 207.292H32.269C32.3383 207.292 32.373 207.331 32.373 207.409V210.061C32.373 210.243 32.3687 210.425 32.36 210.607C32.36 210.789 32.3557 210.971 32.347 211.153C32.347 211.335 32.3427 211.521 32.334 211.712H32.36C32.5073 211.443 32.659 211.183 32.815 210.932C32.971 210.672 33.127 210.416 33.283 210.165L35.129 207.344C35.1377 207.309 35.1767 207.292 35.246 207.292H36.13C36.1733 207.292 36.1993 207.305 36.208 207.331C36.2253 207.357 36.221 207.391 36.195 207.435L33.946 210.737L36.39 215.664C36.4073 215.698 36.4117 215.733 36.403 215.768C36.3943 215.794 36.3683 215.807 36.325 215.807H35.441C35.389 215.807 35.3457 215.781 35.311 215.729L33.322 211.66L32.373 213.051V215.69C32.373 215.768 32.3383 215.807 32.269 215.807H31.541Z" fill="#0B0B1C"/>
<path opacity="0.6" d="M27.8181 215.911C27.3761 215.911 27.0034 215.828 26.7001 215.664C26.4054 215.49 26.1844 215.239 26.0371 214.91C25.8984 214.58 25.8291 214.177 25.8291 213.701C25.8291 213.623 25.8724 213.584 25.9591 213.584H26.6221C26.7001 213.584 26.7391 213.623 26.7391 213.701C26.7304 214.117 26.8128 214.446 26.9861 214.689C27.1681 214.923 27.4628 215.04 27.8701 215.04C28.3208 215.04 28.6501 214.905 28.8581 214.637C29.0661 214.368 29.1701 213.956 29.1701 213.402V212.869C29.1701 212.496 29.1268 212.193 29.0401 211.959C28.9534 211.725 28.8148 211.551 28.6241 211.439C28.4334 211.326 28.1821 211.27 27.8701 211.27C27.6274 211.27 27.3588 211.313 27.0641 211.4C26.7781 211.486 26.4964 211.603 26.2191 211.751C26.1671 211.777 26.1194 211.781 26.0761 211.764C26.0414 211.738 26.0284 211.699 26.0371 211.647L26.3491 207.409C26.3491 207.331 26.3881 207.292 26.4661 207.292H29.5991C29.6771 207.292 29.7161 207.331 29.7161 207.409V208.059C29.7161 208.145 29.6771 208.189 29.5991 208.189H27.1811L27.0121 210.633C27.2201 210.563 27.4194 210.516 27.6101 210.49C27.8008 210.455 27.9828 210.438 28.1561 210.438C28.7801 210.438 29.2611 210.659 29.5991 211.101C29.9371 211.534 30.1061 212.214 30.1061 213.142C30.1061 214.034 29.9111 214.719 29.5211 215.196C29.1311 215.672 28.5634 215.911 27.8181 215.911Z" fill="#0B0B1C"/>
<path opacity="0.6" d="M20.7708 215.807C20.6928 215.807 20.6538 215.768 20.6538 215.69V214.897C20.6538 214.394 20.7275 213.961 20.8748 213.597C21.0308 213.224 21.2301 212.899 21.4728 212.622C21.7155 212.335 21.9711 212.076 22.2398 211.842C22.5171 211.608 22.7771 211.374 23.0198 211.14C23.2625 210.906 23.4575 210.654 23.6048 210.386C23.7608 210.108 23.8388 209.788 23.8388 209.424V209.164C23.8388 208.765 23.7478 208.483 23.5658 208.319C23.3925 208.145 23.1151 208.059 22.7338 208.059C22.3351 208.059 22.0491 208.176 21.8758 208.41C21.7025 208.635 21.6201 208.964 21.6288 209.398C21.6288 209.476 21.5898 209.515 21.5118 209.515H20.8358C20.7578 209.515 20.7188 209.476 20.7188 209.398C20.7101 208.67 20.8748 208.119 21.2128 207.747C21.5595 207.374 22.0795 207.188 22.7728 207.188C23.4401 207.188 23.9428 207.357 24.2808 207.695C24.6188 208.024 24.7878 208.535 24.7878 209.229C24.7878 209.679 24.7315 210.065 24.6188 210.386C24.5061 210.706 24.3545 210.988 24.1638 211.231C23.9731 211.473 23.7651 211.694 23.5398 211.894C23.3231 212.093 23.1021 212.288 22.8768 212.479C22.6515 212.669 22.4435 212.877 22.2528 213.102C22.0621 213.328 21.9105 213.588 21.7978 213.883C21.6851 214.169 21.6288 214.511 21.6288 214.91H24.6318C24.7098 214.91 24.7488 214.953 24.7488 215.04V215.69C24.7488 215.768 24.7098 215.807 24.6318 215.807H20.7708Z" fill="#0B0B1C"/>
<path opacity="0.6" d="M329.74 216.911C329.298 216.911 328.926 216.828 328.622 216.664C328.328 216.49 328.107 216.239 327.959 215.91C327.821 215.58 327.751 215.177 327.751 214.701C327.751 214.623 327.795 214.584 327.881 214.584H328.544C328.622 214.584 328.661 214.623 328.661 214.701C328.653 215.117 328.735 215.446 328.908 215.689C329.09 215.923 329.385 216.04 329.792 216.04C330.243 216.04 330.572 215.905 330.78 215.637C330.988 215.368 331.092 214.956 331.092 214.402V213.869C331.092 213.496 331.049 213.193 330.962 212.959C330.876 212.725 330.737 212.551 330.546 212.439C330.356 212.326 330.104 212.27 329.792 212.27C329.55 212.27 329.281 212.313 328.986 212.4C328.7 212.486 328.419 212.603 328.141 212.751C328.089 212.777 328.042 212.781 327.998 212.764C327.964 212.738 327.951 212.699 327.959 212.647L328.271 208.409C328.271 208.331 328.31 208.292 328.388 208.292H331.521C331.599 208.292 331.638 208.331 331.638 208.409V209.059C331.638 209.145 331.599 209.189 331.521 209.189H329.103L328.934 211.633C329.142 211.563 329.342 211.516 329.532 211.49C329.723 211.455 329.905 211.438 330.078 211.438C330.702 211.438 331.183 211.659 331.521 212.101C331.859 212.534 332.028 213.214 332.028 214.142C332.028 215.034 331.833 215.719 331.443 216.196C331.053 216.672 330.486 216.911 329.74 216.911Z" fill="#0B0B1C"/>
<path opacity="0.6" d="M322.693 216.807C322.615 216.807 322.576 216.768 322.576 216.69V215.897C322.576 215.394 322.649 214.961 322.797 214.597C322.953 214.224 323.152 213.899 323.395 213.622C323.637 213.335 323.893 213.076 324.162 212.842C324.439 212.608 324.699 212.374 324.942 212.14C325.184 211.906 325.379 211.654 325.527 211.386C325.683 211.108 325.761 210.788 325.761 210.424V210.164C325.761 209.765 325.67 209.483 325.488 209.319C325.314 209.145 325.037 209.059 324.656 209.059C324.257 209.059 323.971 209.176 323.798 209.41C323.624 209.635 323.542 209.964 323.551 210.398C323.551 210.476 323.512 210.515 323.434 210.515H322.758C322.68 210.515 322.641 210.476 322.641 210.398C322.632 209.67 322.797 209.119 323.135 208.747C323.481 208.374 324.001 208.188 324.695 208.188C325.362 208.188 325.865 208.357 326.203 208.695C326.541 209.024 326.71 209.535 326.71 210.229C326.71 210.679 326.653 211.065 326.541 211.386C326.428 211.706 326.276 211.988 326.086 212.231C325.895 212.473 325.687 212.694 325.462 212.894C325.245 213.093 325.024 213.288 324.799 213.479C324.573 213.669 324.365 213.877 324.175 214.102C323.984 214.328 323.832 214.588 323.72 214.883C323.607 215.169 323.551 215.511 323.551 215.91H326.554C326.632 215.91 326.671 215.953 326.671 216.04V216.69C326.671 216.768 326.632 216.807 326.554 216.807H322.693Z" fill="#0B0B1C"/>
<path opacity="0.6" d="M33.0512 375.911C32.3319 375.911 31.7772 375.69 31.3872 375.248C30.9972 374.806 30.8022 374.169 30.8022 373.337V369.762C30.8022 368.929 30.9972 368.292 31.3872 367.85C31.7772 367.408 32.3319 367.188 33.0512 367.188C33.7706 367.188 34.3252 367.408 34.7152 367.85C35.1052 368.292 35.3002 368.929 35.3002 369.762V373.337C35.3002 374.169 35.1052 374.806 34.7152 375.248C34.3252 375.69 33.7706 375.911 33.0512 375.911ZM33.0512 375.04C33.4759 375.04 33.7966 374.897 34.0132 374.611C34.2386 374.325 34.3512 373.904 34.3512 373.35V369.749C34.3512 369.185 34.2386 368.765 34.0132 368.488C33.7966 368.202 33.4759 368.059 33.0512 368.059C32.6266 368.059 32.3016 368.202 32.0762 368.488C31.8596 368.765 31.7512 369.185 31.7512 369.749V373.35C31.7512 373.904 31.8596 374.325 32.0762 374.611C32.3016 374.897 32.6266 375.04 33.0512 375.04Z" fill="#0B0B1C"/>
<path opacity="0.6" d="M328.778 375.911C328.058 375.911 327.504 375.69 327.114 375.248C326.724 374.806 326.529 374.169 326.529 373.337V369.762C326.529 368.929 326.724 368.292 327.114 367.85C327.504 367.408 328.058 367.188 328.778 367.188C329.497 367.188 330.052 367.408 330.442 367.85C330.832 368.292 331.027 368.929 331.027 369.762V373.337C331.027 374.169 330.832 374.806 330.442 375.248C330.052 375.69 329.497 375.911 328.778 375.911ZM328.778 375.04C329.202 375.04 329.523 374.897 329.74 374.611C329.965 374.325 330.078 373.904 330.078 373.35V369.749C330.078 369.185 329.965 368.765 329.74 368.488C329.523 368.202 329.202 368.059 328.778 368.059C328.353 368.059 328.028 368.202 327.803 368.488C327.586 368.765 327.478 369.185 327.478 369.749V373.35C327.478 373.904 327.586 374.325 327.803 374.611C328.028 374.897 328.353 375.04 328.778 375.04Z" fill="#0B0B1C"/>
<g opacity="0.1">
<path d="M41.5264 53.8066V54.8066H40.5283V53.8066H41.5264ZM45.5205 53.8066V54.8066H43.5234V53.8066H45.5205ZM49.5146 53.8066V54.8066H47.5176V53.8066H49.5146ZM53.5088 53.8066V54.8066H51.5117V53.8066H53.5088ZM57.5029 53.8066V54.8066H55.5059V53.8066H57.5029ZM61.4971 53.8066V54.8066H59.5V53.8066H61.4971ZM65.4912 53.8066V54.8066H63.4941V53.8066H65.4912ZM69.4854 53.8066V54.8066H67.4883V53.8066H69.4854ZM73.4795 53.8066V54.8066H71.4824V53.8066H73.4795ZM77.4736 53.8066V54.8066H75.4766V53.8066H77.4736ZM81.4678 53.8066V54.8066H79.4707V53.8066H81.4678ZM85.4619 53.8066V54.8066H83.4648V53.8066H85.4619ZM89.4561 53.8066V54.8066H87.459V53.8066H89.4561ZM93.4502 53.8066V54.8066H91.4531V53.8066H93.4502ZM97.4443 53.8066V54.8066H95.4473V53.8066H97.4443ZM101.438 53.8066V54.8066H99.4414V53.8066H101.438ZM105.432 53.8066V54.8066H103.436V53.8066H105.432ZM109.426 53.8066V54.8066H107.429V53.8066H109.426ZM113.42 53.8066V54.8066H111.423V53.8066H113.42ZM117.414 53.8066V54.8066H115.417V53.8066H117.414ZM121.408 53.8066V54.8066H119.411V53.8066H121.408ZM125.402 53.8066V54.8066H123.405V53.8066H125.402ZM129.396 53.8066V54.8066H127.399V53.8066H129.396ZM133.391 53.8066V54.8066H131.394V53.8066H133.391ZM137.385 53.8066V54.8066H135.388V53.8066H137.385ZM141.379 53.8066V54.8066H139.382V53.8066H141.379ZM145.373 53.8066V54.8066H143.376V53.8066H145.373ZM149.367 53.8066V54.8066H147.37V53.8066H149.367ZM153.361 53.8066V54.8066H151.364V53.8066H153.361ZM157.355 53.8066V54.8066H155.358V53.8066H157.355ZM161.35 53.8066V54.8066H159.353V53.8066H161.35ZM165.344 53.8066V54.8066H163.347V53.8066H165.344ZM169.338 53.8066V54.8066H167.341V53.8066H169.338ZM173.331 53.8066V54.8066H171.334V53.8066H173.331ZM177.325 53.8066V54.8066H175.328V53.8066H177.325ZM181.319 53.8066V54.8066H179.322V53.8066H181.319ZM185.313 53.8066V54.8066H183.316V53.8066H185.313ZM189.308 53.8066V54.8066H187.311V53.8066H189.308ZM193.302 53.8066V54.8066H191.305V53.8066H193.302ZM197.296 53.8066V54.8066H195.299V53.8066H197.296ZM201.29 53.8066V54.8066H199.293V53.8066H201.29ZM205.284 53.8066V54.8066H203.287V53.8066H205.284ZM209.278 53.8066V54.8066H207.281V53.8066H209.278ZM213.272 53.8066V54.8066H211.275V53.8066H213.272ZM217.267 53.8066V54.8066H215.27V53.8066H217.267ZM221.261 53.8066V54.8066H219.264V53.8066H221.261ZM225.255 53.8066V54.8066H223.258V53.8066H225.255ZM229.249 53.8066V54.8066H227.252V53.8066H229.249ZM233.243 53.8066V54.8066H231.246V53.8066H233.243ZM237.236 53.8066V54.8066H235.239V53.8066H237.236ZM241.23 53.8066V54.8066H239.233V53.8066H241.23ZM245.225 53.8066V54.8066H243.228V53.8066H245.225ZM249.219 53.8066V54.8066H247.222V53.8066H249.219ZM253.213 53.8066V54.8066H251.216V53.8066H253.213ZM257.207 53.8066V54.8066H255.21V53.8066H257.207ZM261.201 53.8066V54.8066H259.204V53.8066H261.201ZM265.195 53.8066V54.8066H263.198V53.8066H265.195ZM269.189 53.8066V54.8066H267.192V53.8066H269.189ZM273.184 53.8066V54.8066H271.187V53.8066H273.184ZM277.178 53.8066V54.8066H275.181V53.8066H277.178ZM281.172 53.8066V54.8066H279.175V53.8066H281.172ZM285.166 53.8066V54.8066H283.169V53.8066H285.166ZM289.16 53.8066V54.8066H287.163V53.8066H289.16ZM293.154 53.8066V54.8066H291.157V53.8066H293.154ZM297.148 53.8066V54.8066H295.151V53.8066H297.148ZM301.142 53.8066V54.8066H299.145V53.8066H301.142ZM305.136 53.8066V54.8066H303.139V53.8066H305.136ZM309.13 53.8066V54.8066H307.133V53.8066H309.13ZM312.126 53.8066V54.8066H311.127V53.8066H312.126Z" fill="#0B0B1C"/>
<path d="M41.5264 134.807V135.807H40.5283V134.807H41.5264ZM45.5205 134.807V135.807H43.5234V134.807H45.5205ZM49.5146 134.807V135.807H47.5176V134.807H49.5146ZM53.5088 134.807V135.807H51.5117V134.807H53.5088ZM57.5029 134.807V135.807H55.5059V134.807H57.5029ZM61.4971 134.807V135.807H59.5V134.807H61.4971ZM65.4912 134.807V135.807H63.4941V134.807H65.4912ZM69.4854 134.807V135.807H67.4883V134.807H69.4854ZM73.4795 134.807V135.807H71.4824V134.807H73.4795ZM77.4736 134.807V135.807H75.4766V134.807H77.4736ZM81.4678 134.807V135.807H79.4707V134.807H81.4678ZM85.4619 134.807V135.807H83.4648V134.807H85.4619ZM89.4561 134.807V135.807H87.459V134.807H89.4561ZM93.4502 134.807V135.807H91.4531V134.807H93.4502ZM97.4443 134.807V135.807H95.4473V134.807H97.4443ZM101.438 134.807V135.807H99.4414V134.807H101.438ZM105.432 134.807V135.807H103.436V134.807H105.432ZM109.426 134.807V135.807H107.429V134.807H109.426ZM113.42 134.807V135.807H111.423V134.807H113.42ZM117.414 134.807V135.807H115.417V134.807H117.414ZM121.408 134.807V135.807H119.411V134.807H121.408ZM125.402 134.807V135.807H123.405V134.807H125.402ZM129.396 134.807V135.807H127.399V134.807H129.396ZM133.391 134.807V135.807H131.394V134.807H133.391ZM137.385 134.807V135.807H135.388V134.807H137.385ZM141.379 134.807V135.807H139.382V134.807H141.379ZM145.373 134.807V135.807H143.376V134.807H145.373ZM149.367 134.807V135.807H147.37V134.807H149.367ZM153.361 134.807V135.807H151.364V134.807H153.361ZM157.355 134.807V135.807H155.358V134.807H157.355ZM161.35 134.807V135.807H159.353V134.807H161.35ZM165.344 134.807V135.807H163.347V134.807H165.344ZM169.338 134.807V135.807H167.341V134.807H169.338ZM173.331 134.807V135.807H171.334V134.807H173.331ZM177.325 134.807V135.807H175.328V134.807H177.325ZM181.319 134.807V135.807H179.322V134.807H181.319ZM185.313 134.807V135.807H183.316V134.807H185.313ZM189.308 134.807V135.807H187.311V134.807H189.308ZM193.302 134.807V135.807H191.305V134.807H193.302ZM197.296 134.807V135.807H195.299V134.807H197.296ZM201.29 134.807V135.807H199.293V134.807H201.29ZM205.284 134.807V135.807H203.287V134.807H205.284ZM209.278 134.807V135.807H207.281V134.807H209.278ZM213.272 134.807V135.807H211.275V134.807H213.272ZM217.267 134.807V135.807H215.27V134.807H217.267ZM221.261 134.807V135.807H219.264V134.807H221.261ZM225.255 134.807V135.807H223.258V134.807H225.255ZM229.249 134.807V135.807H227.252V134.807H229.249ZM233.243 134.807V135.807H231.246V134.807H233.243ZM237.236 134.807V135.807H235.239V134.807H237.236ZM241.23 134.807V135.807H239.233V134.807H241.23ZM245.225 134.807V135.807H243.228V134.807H245.225ZM249.219 134.807V135.807H247.222V134.807H249.219ZM253.213 134.807V135.807H251.216V134.807H253.213ZM257.207 134.807V135.807H255.21V134.807H257.207ZM261.201 134.807V135.807H259.204V134.807H261.201ZM265.195 134.807V135.807H263.198V134.807H265.195ZM269.189 134.807V135.807H267.192V134.807H269.189ZM273.184 134.807V135.807H271.187V134.807H273.184ZM277.178 134.807V135.807H275.181V134.807H277.178ZM281.172 134.807V135.807H279.175V134.807H281.172ZM285.166 134.807V135.807H283.169V134.807H285.166ZM289.16 134.807V135.807H287.163V134.807H289.16ZM293.154 134.807V135.807H291.157V134.807H293.154ZM297.148 134.807V135.807H295.151V134.807H297.148ZM301.142 134.807V135.807H299.145V134.807H301.142ZM305.136 134.807V135.807H303.139V134.807H305.136ZM309.13 134.807V135.807H307.133V134.807H309.13ZM312.126 134.807V135.807H311.127V134.807H312.126Z" fill="#0B0B1C"/>
<path d="M41.5264 215.807V216.807H40.5283V215.807H41.5264ZM45.5205 215.807V216.807H43.5234V215.807H45.5205ZM49.5146 215.807V216.807H47.5176V215.807H49.5146ZM53.5088 215.807V216.807H51.5117V215.807H53.5088ZM57.5029 215.807V216.807H55.5059V215.807H57.5029ZM61.4971 215.807V216.807H59.5V215.807H61.4971ZM65.4912 215.807V216.807H63.4941V215.807H65.4912ZM69.4854 215.807V216.807H67.4883V215.807H69.4854ZM73.4795 215.807V216.807H71.4824V215.807H73.4795ZM77.4736 215.807V216.807H75.4766V215.807H77.4736ZM81.4678 215.807V216.807H79.4707V215.807H81.4678ZM85.4619 215.807V216.807H83.4648V215.807H85.4619ZM89.4561 215.807V216.807H87.459V215.807H89.4561ZM93.4502 215.807V216.807H91.4531V215.807H93.4502ZM97.4443 215.807V216.807H95.4473V215.807H97.4443ZM101.438 215.807V216.807H99.4414V215.807H101.438ZM105.432 215.807V216.807H103.436V215.807H105.432ZM109.426 215.807V216.807H107.429V215.807H109.426ZM113.42 215.807V216.807H111.423V215.807H113.42ZM117.414 215.807V216.807H115.417V215.807H117.414ZM121.408 215.807V216.807H119.411V215.807H121.408ZM125.402 215.807V216.807H123.405V215.807H125.402ZM129.396 215.807V216.807H127.399V215.807H129.396ZM133.391 215.807V216.807H131.394V215.807H133.391ZM137.385 215.807V216.807H135.388V215.807H137.385ZM141.379 215.807V216.807H139.382V215.807H141.379ZM145.373 215.807V216.807H143.376V215.807H145.373ZM149.367 215.807V216.807H147.37V215.807H149.367ZM153.361 215.807V216.807H151.364V215.807H153.361ZM157.355 215.807V216.807H155.358V215.807H157.355ZM161.35 215.807V216.807H159.353V215.807H161.35ZM165.344 215.807V216.807H163.347V215.807H165.344ZM169.338 215.807V216.807H167.341V215.807H169.338ZM173.331 215.807V216.807H171.334V215.807H173.331ZM177.325 215.807V216.807H175.328V215.807H177.325ZM181.319 215.807V216.807H179.322V215.807H181.319ZM185.313 215.807V216.807H183.316V215.807H185.313ZM189.308 215.807V216.807H187.311V215.807H189.308ZM193.302 215.807V216.807H191.305V215.807H193.302ZM197.296 215.807V216.807H195.299V215.807H197.296ZM201.29 215.807V216.807H199.293V215.807H201.29ZM205.284 215.807V216.807H203.287V215.807H205.284ZM209.278 215.807V216.807H207.281V215.807H209.278ZM213.272 215.807V216.807H211.275V215.807H213.272ZM217.267 215.807V216.807H215.27V215.807H217.267ZM221.261 215.807V216.807H219.264V215.807H221.261ZM225.255 215.807V216.807H223.258V215.807H225.255ZM229.249 215.807V216.807H227.252V215.807H229.249ZM233.243 215.807V216.807H231.246V215.807H233.243ZM237.236 215.807V216.807H235.239V215.807H237.236ZM241.23 215.807V216.807H239.233V215.807H241.23ZM245.225 215.807V216.807H243.228V215.807H245.225ZM249.219 215.807V216.807H247.222V215.807H249.219ZM253.213 215.807V216.807H251.216V215.807H253.213ZM257.207 215.807V216.807H255.21V215.807H257.207ZM261.201 215.807V216.807H259.204V215.807H261.201ZM265.195 215.807V216.807H263.198V215.807H265.195ZM269.189 215.807V216.807H267.192V215.807H269.189ZM273.184 215.807V216.807H271.187V215.807H273.184ZM277.178 215.807V216.807H275.181V215.807H277.178ZM281.172 215.807V216.807H279.175V215.807H281.172ZM285.166 215.807V216.807H283.169V215.807H285.166ZM289.16 215.807V216.807H287.163V215.807H289.16ZM293.154 215.807V216.807H291.157V215.807H293.154ZM297.148 215.807V216.807H295.151V215.807H297.148ZM301.142 215.807V216.807H299.145V215.807H301.142ZM305.136 215.807V216.807H303.139V215.807H305.136ZM309.13 215.807V216.807H307.133V215.807H309.13ZM312.126 215.807V216.807H311.127V215.807H312.126Z" fill="#0B0B1C"/>
<path d="M41.5264 296.807V297.807H40.5283V296.807H41.5264ZM45.5205 296.807V297.807H43.5234V296.807H45.5205ZM49.5146 296.807V297.807H47.5176V296.807H49.5146ZM53.5088 296.807V297.807H51.5117V296.807H53.5088ZM57.5029 296.807V297.807H55.5059V296.807H57.5029ZM61.4971 296.807V297.807H59.5V296.807H61.4971ZM65.4912 296.807V297.807H63.4941V296.807H65.4912ZM69.4854 296.807V297.807H67.4883V296.807H69.4854ZM73.4795 296.807V297.807H71.4824V296.807H73.4795ZM77.4736 296.807V297.807H75.4766V296.807H77.4736ZM81.4678 296.807V297.807H79.4707V296.807H81.4678ZM85.4619 296.807V297.807H83.4648V296.807H85.4619ZM89.4561 296.807V297.807H87.459V296.807H89.4561ZM93.4502 296.807V297.807H91.4531V296.807H93.4502ZM97.4443 296.807V297.807H95.4473V296.807H97.4443ZM101.438 296.807V297.807H99.4414V296.807H101.438ZM105.432 296.807V297.807H103.436V296.807H105.432ZM109.426 296.807V297.807H107.429V296.807H109.426ZM113.42 296.807V297.807H111.423V296.807H113.42ZM117.414 296.807V297.807H115.417V296.807H117.414ZM121.408 296.807V297.807H119.411V296.807H121.408ZM125.402 296.807V297.807H123.405V296.807H125.402ZM129.396 296.807V297.807H127.399V296.807H129.396ZM133.391 296.807V297.807H131.394V296.807H133.391ZM137.385 296.807V297.807H135.388V296.807H137.385ZM141.379 296.807V297.807H139.382V296.807H141.379ZM145.373 296.807V297.807H143.376V296.807H145.373ZM149.367 296.807V297.807H147.37V296.807H149.367ZM153.361 296.807V297.807H151.364V296.807H153.361ZM157.355 296.807V297.807H155.358V296.807H157.355ZM161.35 296.807V297.807H159.353V296.807H161.35ZM165.344 296.807V297.807H163.347V296.807H165.344ZM169.338 296.807V297.807H167.341V296.807H169.338ZM173.331 296.807V297.807H171.334V296.807H173.331ZM177.325 296.807V297.807H175.328V296.807H177.325ZM181.319 296.807V297.807H179.322V296.807H181.319ZM185.313 296.807V297.807H183.316V296.807H185.313ZM189.308 296.807V297.807H187.311V296.807H189.308ZM193.302 296.807V297.807H191.305V296.807H193.302ZM197.296 296.807V297.807H195.299V296.807H197.296ZM201.29 296.807V297.807H199.293V296.807H201.29ZM205.284 296.807V297.807H203.287V296.807H205.284ZM209.278 296.807V297.807H207.281V296.807H209.278ZM213.272 296.807V297.807H211.275V296.807H213.272ZM217.267 296.807V297.807H215.27V296.807H217.267ZM221.261 296.807V297.807H219.264V296.807H221.261ZM225.255 296.807V297.807H223.258V296.807H225.255ZM229.249 296.807V297.807H227.252V296.807H229.249ZM233.243 296.807V297.807H231.246V296.807H233.243ZM237.236 296.807V297.807H235.239V296.807H237.236ZM241.23 296.807V297.807H239.233V296.807H241.23ZM245.225 296.807V297.807H243.228V296.807H245.225ZM249.219 296.807V297.807H247.222V296.807H249.219ZM253.213 296.807V297.807H251.216V296.807H253.213ZM257.207 296.807V297.807H255.21V296.807H257.207ZM261.201 296.807V297.807H259.204V296.807H261.201ZM265.195 296.807V297.807H263.198V296.807H265.195ZM269.189 296.807V297.807H267.192V296.807H269.189ZM273.184 296.807V297.807H271.187V296.807H273.184ZM277.178 296.807V297.807H275.181V296.807H277.178ZM281.172 296.807V297.807H279.175V296.807H281.172ZM285.166 296.807V297.807H283.169V296.807H285.166ZM289.16 296.807V297.807H287.163V296.807H289.16ZM293.154 296.807V297.807H291.157V296.807H293.154ZM297.148 296.807V297.807H295.151V296.807H297.148ZM301.142 296.807V297.807H299.145V296.807H301.142ZM305.136 296.807V297.807H303.139V296.807H305.136ZM309.13 296.807V297.807H307.133V296.807H309.13ZM312.126 296.807V297.807H311.127V296.807H312.126Z" fill="#0B0B1C"/>
<path d="M41.5264 377.807V378.807H40.5283V377.807H41.5264ZM45.5205 377.807V378.807H43.5234V377.807H45.5205ZM49.5146 377.807V378.807H47.5176V377.807H49.5146ZM53.5088 377.807V378.807H51.5117V377.807H53.5088ZM57.5029 377.807V378.807H55.5059V377.807H57.5029ZM61.4971 377.807V378.807H59.5V377.807H61.4971ZM65.4912 377.807V378.807H63.4941V377.807H65.4912ZM69.4854 377.807V378.807H67.4883V377.807H69.4854ZM73.4795 377.807V378.807H71.4824V377.807H73.4795ZM77.4736 377.807V378.807H75.4766V377.807H77.4736ZM81.4678 377.807V378.807H79.4707V377.807H81.4678ZM85.4619 377.807V378.807H83.4648V377.807H85.4619ZM89.4561 377.807V378.807H87.459V377.807H89.4561ZM93.4502 377.807V378.807H91.4531V377.807H93.4502ZM97.4443 377.807V378.807H95.4473V377.807H97.4443ZM101.438 377.807V378.807H99.4414V377.807H101.438ZM105.432 377.807V378.807H103.436V377.807H105.432ZM109.426 377.807V378.807H107.429V377.807H109.426ZM113.42 377.807V378.807H111.423V377.807H113.42ZM117.414 377.807V378.807H115.417V377.807H117.414ZM121.408 377.807V378.807H119.411V377.807H121.408ZM125.402 377.807V378.807H123.405V377.807H125.402ZM129.396 377.807V378.807H127.399V377.807H129.396ZM133.391 377.807V378.807H131.394V377.807H133.391ZM137.385 377.807V378.807H135.388V377.807H137.385ZM141.379 377.807V378.807H139.382V377.807H141.379ZM145.373 377.807V378.807H143.376V377.807H145.373ZM149.367 377.807V378.807H147.37V377.807H149.367ZM153.361 377.807V378.807H151.364V377.807H153.361ZM157.355 377.807V378.807H155.358V377.807H157.355ZM161.35 377.807V378.807H159.353V377.807H161.35ZM165.344 377.807V378.807H163.347V377.807H165.344ZM169.338 377.807V378.807H167.341V377.807H169.338ZM173.331 377.807V378.807H171.334V377.807H173.331ZM177.325 377.807V378.807H175.328V377.807H177.325ZM181.319 377.807V378.807H179.322V377.807H181.319ZM185.313 377.807V378.807H183.316V377.807H185.313ZM189.308 377.807V378.807H187.311V377.807H189.308ZM193.302 377.807V378.807H191.305V377.807H193.302ZM197.296 377.807V378.807H195.299V377.807H197.296ZM201.29 377.807V378.807H199.293V377.807H201.29ZM205.284 377.807V378.807H203.287V377.807H205.284ZM209.278 377.807V378.807H207.281V377.807H209.278ZM213.272 377.807V378.807H211.275V377.807H213.272ZM217.267 377.807V378.807H215.27V377.807H217.267ZM221.261 377.807V378.807H219.264V377.807H221.261ZM225.255 377.807V378.807H223.258V377.807H225.255ZM229.249 377.807V378.807H227.252V377.807H229.249ZM233.243 377.807V378.807H231.246V377.807H233.243ZM237.236 377.807V378.807H235.239V377.807H237.236ZM241.23 377.807V378.807H239.233V377.807H241.23ZM245.225 377.807V378.807H243.228V377.807H245.225ZM249.219 377.807V378.807H247.222V377.807H249.219ZM253.213 377.807V378.807H251.216V377.807H253.213ZM257.207 377.807V378.807H255.21V377.807H257.207ZM261.201 377.807V378.807H259.204V377.807H261.201ZM265.195 377.807V378.807H263.198V377.807H265.195ZM269.189 377.807V378.807H267.192V377.807H269.189ZM273.184 377.807V378.807H271.187V377.807H273.184ZM277.178 377.807V378.807H275.181V377.807H277.178ZM281.172 377.807V378.807H279.175V377.807H281.172ZM285.166 377.807V378.807H283.169V377.807H285.166ZM289.16 377.807V378.807H287.163V377.807H289.16ZM293.154 377.807V378.807H291.157V377.807H293.154ZM297.148 377.807V378.807H295.151V377.807H297.148ZM301.142 377.807V378.807H299.145V377.807H301.142ZM305.136 377.807V378.807H303.139V377.807H305.136ZM309.13 377.807V378.807H307.133V377.807H309.13ZM312.126 377.807V378.807H311.127V377.807H312.126Z" fill="#0B0B1C"/>
</g>
<path d="M103.216 364.746C103.216 360.191 106.909 356.499 111.463 356.499H122.349C126.903 356.499 130.596 360.191 130.596 364.746V364.746C130.596 369.301 126.903 372.993 122.349 372.993H111.463C106.909 372.993 103.216 369.301 103.216 364.746V364.746Z" fill="#CFFFED"/>
<path d="M44.7578 373L42.7578 372.961L43.7578 322.961L45.7578 323L44.7578 373Z" fill="#0B0B1C"/>
<path d="M134.758 373L132.758 373L132.758 263L134.758 263L134.758 373Z" fill="#0B0B1C"/>
<path d="M224.758 373L222.758 373L222.758 153L224.758 153L224.758 373Z" fill="#0B0B1C"/>
<path d="M315 373L313 373L313 54L315 54L315 373Z" fill="#0B0B1C"/>
<path d="M50.7314 336.201L51.7041 336.201L51.7041 336.295C51.7041 336.811 51.7783 337.248 51.9268 337.607C52.0713 337.967 52.2666 338.264 52.5127 338.498C52.7705 338.744 53.0771 338.932 53.4326 339.061C53.7881 339.186 54.1533 339.26 54.5283 339.283C54.4072 339.182 54.2959 339.064 54.1943 338.932C54.0889 338.799 53.9971 338.654 53.9189 338.498C53.8447 338.346 53.7861 338.182 53.7432 338.006C53.6963 337.826 53.6729 337.639 53.6729 337.443C53.6729 337.018 53.7549 336.65 53.9189 336.342C54.0791 336.033 54.292 335.779 54.5576 335.58C54.8232 335.381 55.124 335.234 55.46 335.141C55.7959 335.047 56.1377 335 56.4854 335C56.8838 335 57.2588 335.057 57.6104 335.17C57.9619 335.279 58.2686 335.445 58.5303 335.668C58.7959 335.891 59.0049 336.168 59.1572 336.5C59.3096 336.828 59.3857 337.209 59.3857 337.643C59.3857 338.08 59.2979 338.465 59.1221 338.797C58.9463 339.129 58.7178 339.408 58.4365 339.635C58.1279 339.889 57.7686 340.078 57.3584 340.203C56.9443 340.328 56.5303 340.391 56.1162 340.391L55.6064 340.391C54.8955 340.391 54.1963 340.307 53.5088 340.139C52.8213 339.971 52.2334 339.643 51.7451 339.154C51.4092 338.818 51.1572 338.41 50.9893 337.93C50.8174 337.449 50.7314 336.904 50.7314 336.295L50.7314 336.201ZM54.5752 337.619C54.5752 337.803 54.6045 337.98 54.6631 338.152C54.7217 338.324 54.8037 338.484 54.9092 338.633C55.0146 338.781 55.1416 338.912 55.29 339.025C55.4385 339.139 55.6025 339.229 55.7822 339.295L56.1455 339.295C56.5205 339.295 56.8545 339.25 57.1475 339.16C57.4365 339.07 57.6807 338.949 57.8799 338.797C58.0791 338.645 58.2314 338.469 58.3369 338.27C58.4385 338.07 58.4893 337.861 58.4893 337.643C58.4893 337.389 58.4404 337.164 58.3428 336.969C58.2451 336.773 58.1104 336.607 57.9385 336.471C57.7666 336.338 57.5615 336.238 57.3232 336.172C57.0811 336.102 56.8193 336.066 56.5381 336.066C56.2881 336.066 56.0459 336.098 55.8115 336.16C55.5732 336.223 55.3623 336.318 55.1787 336.447C54.9951 336.576 54.8486 336.738 54.7393 336.934C54.6299 337.129 54.5752 337.357 54.5752 337.619Z" fill="#00384F"/>
<path d="M59.2686 343.852L59.2686 349.442L58.4893 349.442L55.3838 346.647C55.1064 346.397 54.8604 346.188 54.6455 346.02C54.4307 345.852 54.2314 345.717 54.0479 345.616C53.8682 345.514 53.6982 345.442 53.5381 345.399C53.374 345.356 53.2061 345.334 53.0342 345.334C52.8232 345.334 52.626 345.37 52.4424 345.44C52.2549 345.506 52.0928 345.604 51.9561 345.733C51.8193 345.866 51.7119 346.026 51.6338 346.213C51.5518 346.397 51.5107 346.606 51.5107 346.84C51.5107 347.125 51.5518 347.374 51.6338 347.584C51.7158 347.792 51.8311 347.963 51.9795 348.1C52.1318 348.241 52.3154 348.346 52.5303 348.417C52.7451 348.483 52.9854 348.516 53.251 348.516L53.251 349.606C52.8916 349.606 52.5537 349.543 52.2373 349.418C51.917 349.293 51.6377 349.112 51.3994 348.874C51.1611 348.639 50.9717 348.352 50.8311 348.012C50.6904 347.668 50.6201 347.278 50.6201 346.84C50.6201 346.438 50.6807 346.077 50.8018 345.756C50.9189 345.432 51.083 345.159 51.2939 344.936C51.5049 344.713 51.7549 344.543 52.0439 344.426C52.333 344.305 52.6475 344.245 52.9873 344.245C53.2412 344.245 53.4932 344.288 53.7432 344.374C53.9893 344.459 54.2334 344.575 54.4756 344.719C54.7178 344.868 54.958 345.04 55.1963 345.235C55.4307 345.426 55.665 345.629 55.8994 345.844L58.3838 348.135L58.3838 343.852L59.2686 343.852Z" fill="#00384F"/>
<path d="M56.0049 352.616C56.5479 352.616 57.0303 352.678 57.4521 352.803C57.8701 352.928 58.2217 353.108 58.5068 353.342C58.7959 353.577 59.0146 353.864 59.1631 354.204C59.3115 354.543 59.3857 354.932 59.3857 355.37C59.3857 355.803 59.3135 356.192 59.1689 356.536C59.0205 356.879 58.7998 357.17 58.5068 357.409C58.2217 357.647 57.8701 357.829 57.4521 357.954C57.0303 358.079 56.5479 358.141 56.0049 358.141L54.0068 358.141C53.4639 358.141 52.9834 358.079 52.5654 357.954C52.1436 357.829 51.7881 357.647 51.499 357.409C51.21 357.174 50.9912 356.887 50.8428 356.547C50.6904 356.204 50.6143 355.815 50.6143 355.381C50.6143 354.944 50.6904 354.555 50.8428 354.215C50.9912 353.872 51.21 353.581 51.499 353.342C51.7881 353.108 52.1436 352.928 52.5654 352.803C52.9834 352.678 53.4639 352.616 54.0068 352.616L56.0049 352.616ZM55.7881 357.051L53.2393 353.729C52.958 353.76 52.71 353.817 52.4951 353.899C52.2764 353.977 52.0947 354.084 51.9502 354.221C51.8018 354.354 51.6904 354.518 51.6162 354.713C51.542 354.905 51.5049 355.127 51.5049 355.381C51.5049 355.639 51.5459 355.868 51.6279 356.067C51.7061 356.262 51.8213 356.428 51.9736 356.565C52.165 356.729 52.4131 356.852 52.7178 356.934C53.0186 357.012 53.3682 357.051 53.7666 357.051L55.1963 357.051C55.2939 357.051 55.3916 357.051 55.4893 357.051C55.5869 357.051 55.6865 357.051 55.7881 357.051ZM56.2334 353.706L55.0264 353.706C54.9678 353.706 54.8564 353.706 54.6924 353.706C54.5244 353.706 54.3857 353.706 54.2764 353.706L56.8135 357.022C57.0986 356.987 57.3506 356.924 57.5693 356.834C57.7842 356.745 57.9619 356.627 58.1025 356.483C58.2354 356.35 58.3369 356.19 58.4072 356.002C58.4736 355.815 58.5068 355.604 58.5068 355.37C58.5068 355.124 58.4697 354.905 58.3955 354.713C58.3213 354.522 58.2139 354.36 58.0732 354.227C57.8818 354.047 57.6318 353.917 57.3232 353.834C57.0146 353.749 56.6514 353.706 56.2334 353.706Z" fill="#00384F"/>
<path d="M59.2686 361.626L59.2686 367.216L58.4893 367.216L55.3838 364.421C55.1064 364.171 54.8604 363.962 54.6455 363.794C54.4307 363.626 54.2314 363.491 54.0479 363.39C53.8682 363.288 53.6982 363.216 53.5381 363.173C53.374 363.13 53.2061 363.108 53.0342 363.108C52.8232 363.108 52.626 363.144 52.4424 363.214C52.2549 363.28 52.0928 363.378 51.9561 363.507C51.8193 363.64 51.7119 363.8 51.6338 363.987C51.5518 364.171 51.5107 364.38 51.5107 364.614C51.5107 364.899 51.5518 365.147 51.6338 365.358C51.7158 365.565 51.8311 365.737 51.9795 365.874C52.1318 366.015 52.3154 366.12 52.5303 366.19C52.7451 366.257 52.9854 366.29 53.251 366.29L53.251 367.38C52.8916 367.38 52.5537 367.317 52.2373 367.192C51.917 367.067 51.6377 366.886 51.3994 366.647C51.1611 366.413 50.9717 366.126 50.8311 365.786C50.6904 365.442 50.6201 365.052 50.6201 364.614C50.6201 364.212 50.6807 363.851 50.8018 363.53C50.9189 363.206 51.083 362.933 51.2939 362.71C51.5049 362.487 51.7549 362.317 52.0439 362.2C52.333 362.079 52.6475 362.019 52.9873 362.019C53.2412 362.019 53.4932 362.062 53.7432 362.147C53.9893 362.233 54.2334 362.349 54.4756 362.493C54.7178 362.642 54.958 362.813 55.1963 363.009C55.4307 363.2 55.665 363.403 55.8994 363.618L58.3838 365.909L58.3838 361.626L59.2686 361.626Z" fill="#00384F"/>
<path d="M138.078 335.785L146 339.318L146 340.455L138.418 336.934L138.418 341.551L137.469 341.551L137.469 335.785L138.078 335.785Z" fill="#00384F"/>
<path d="M146 344.842L146 350.432L145.221 350.432L142.115 347.637C141.838 347.387 141.592 347.178 141.377 347.01C141.162 346.842 140.963 346.708 140.779 346.606C140.6 346.504 140.43 346.432 140.27 346.389C140.105 346.346 139.937 346.325 139.766 346.325C139.555 346.325 139.357 346.36 139.174 346.43C138.986 346.497 138.824 346.594 138.687 346.723C138.551 346.856 138.443 347.016 138.365 347.204C138.283 347.387 138.242 347.596 138.242 347.831C138.242 348.116 138.283 348.364 138.365 348.575C138.447 348.782 138.562 348.954 138.711 349.09C138.863 349.231 139.047 349.336 139.262 349.407C139.477 349.473 139.717 349.506 139.982 349.506L139.982 350.596C139.623 350.596 139.285 350.534 138.969 350.409C138.648 350.284 138.369 350.102 138.131 349.864C137.893 349.629 137.703 349.342 137.562 349.002C137.422 348.659 137.352 348.268 137.352 347.831C137.352 347.428 137.412 347.067 137.533 346.747C137.65 346.422 137.814 346.149 138.025 345.926C138.236 345.704 138.486 345.534 138.775 345.417C139.064 345.295 139.379 345.235 139.719 345.235C139.973 345.235 140.225 345.278 140.475 345.364C140.721 345.45 140.965 345.565 141.207 345.709C141.449 345.858 141.689 346.03 141.928 346.225C142.162 346.417 142.396 346.62 142.631 346.834L145.115 349.125L145.115 344.842L146 344.842Z" fill="#00384F"/>
<path d="M142.736 353.606C143.279 353.606 143.762 353.668 144.184 353.793C144.602 353.918 144.953 354.098 145.238 354.333C145.527 354.567 145.746 354.854 145.895 355.194C146.043 355.534 146.117 355.922 146.117 356.36C146.117 356.793 146.045 357.182 145.9 357.526C145.752 357.87 145.531 358.161 145.238 358.399C144.953 358.637 144.602 358.819 144.184 358.944C143.762 359.069 143.279 359.131 142.736 359.131L140.738 359.131C140.195 359.131 139.715 359.069 139.297 358.944C138.875 358.819 138.52 358.637 138.23 358.399C137.941 358.165 137.723 357.877 137.574 357.538C137.422 357.194 137.346 356.805 137.346 356.372C137.346 355.934 137.422 355.545 137.574 355.206C137.723 354.862 137.941 354.571 138.23 354.333C138.52 354.098 138.875 353.918 139.297 353.793C139.715 353.668 140.195 353.606 140.738 353.606L142.736 353.606ZM142.52 358.042L139.971 354.719C139.689 354.75 139.441 354.807 139.227 354.889C139.008 354.967 138.826 355.075 138.682 355.211C138.533 355.344 138.422 355.508 138.348 355.704C138.273 355.895 138.236 356.118 138.236 356.372C138.236 356.629 138.277 356.858 138.359 357.057C138.437 357.252 138.553 357.418 138.705 357.555C138.896 357.719 139.145 357.842 139.449 357.924C139.75 358.002 140.1 358.042 140.498 358.042L141.928 358.042C142.025 358.042 142.123 358.042 142.221 358.042C142.318 358.042 142.418 358.042 142.52 358.042ZM142.965 354.696L141.758 354.696C141.699 354.696 141.588 354.696 141.424 354.696C141.256 354.696 141.117 354.696 141.008 354.696L143.545 358.012C143.83 357.977 144.082 357.915 144.301 357.825C144.516 357.735 144.693 357.618 144.834 357.473C144.967 357.34 145.068 357.18 145.139 356.993C145.205 356.805 145.238 356.594 145.238 356.36C145.238 356.114 145.201 355.895 145.127 355.704C145.053 355.512 144.945 355.35 144.805 355.217C144.613 355.038 144.363 354.907 144.055 354.825C143.746 354.739 143.383 354.696 142.965 354.696Z" fill="#00384F"/>
<path d="M146 362.616L146 368.206L145.221 368.206L142.115 365.411C141.838 365.161 141.592 364.952 141.377 364.784C141.162 364.616 140.963 364.481 140.779 364.38C140.6 364.278 140.43 364.206 140.27 364.163C140.105 364.12 139.937 364.099 139.766 364.099C139.555 364.099 139.357 364.134 139.174 364.204C138.986 364.271 138.824 364.368 138.687 364.497C138.551 364.63 138.443 364.79 138.365 364.978C138.283 365.161 138.242 365.37 138.242 365.604C138.242 365.89 138.283 366.138 138.365 366.349C138.447 366.556 138.562 366.728 138.711 366.864C138.863 367.005 139.047 367.11 139.262 367.181C139.477 367.247 139.717 367.28 139.982 367.28L139.982 368.37C139.623 368.37 139.285 368.308 138.969 368.183C138.648 368.058 138.369 367.876 138.131 367.638C137.893 367.403 137.703 367.116 137.562 366.776C137.422 366.433 137.352 366.042 137.352 365.604C137.352 365.202 137.412 364.841 137.533 364.521C137.65 364.196 137.814 363.923 138.025 363.7C138.236 363.478 138.486 363.308 138.775 363.19C139.064 363.069 139.379 363.009 139.719 363.009C139.973 363.009 140.225 363.052 140.475 363.138C140.721 363.224 140.965 363.339 141.207 363.483C141.449 363.632 141.689 363.804 141.928 363.999C142.162 364.19 142.396 364.394 142.631 364.608L145.115 366.899L145.115 362.616L146 362.616Z" fill="#00384F"/>
<path d="M210.695 335.937C210.98 335.941 211.248 335.996 211.498 336.102C211.744 336.207 211.961 336.354 212.148 336.541C212.238 336.631 212.322 336.73 212.4 336.84C212.479 336.949 212.549 337.066 212.611 337.191C212.705 336.973 212.822 336.775 212.963 336.6C213.1 336.42 213.258 336.266 213.437 336.137C213.617 336.012 213.812 335.916 214.023 335.85C214.234 335.779 214.459 335.744 214.697 335.744C215.084 335.744 215.428 335.816 215.729 335.961C216.029 336.102 216.281 336.293 216.484 336.535C216.691 336.781 216.85 337.068 216.959 337.396C217.064 337.725 217.117 338.076 217.117 338.451C217.117 338.834 217.064 339.191 216.959 339.523C216.854 339.852 216.697 340.137 216.49 340.379C216.287 340.625 216.035 340.818 215.734 340.959C215.434 341.1 215.088 341.17 214.697 341.17C214.459 341.17 214.234 341.137 214.023 341.07C213.809 341.004 213.611 340.908 213.432 340.783C213.256 340.658 213.098 340.508 212.957 340.332C212.816 340.156 212.699 339.959 212.605 339.74C212.512 339.928 212.4 340.098 212.271 340.25C212.139 340.402 211.99 340.531 211.826 340.637C211.666 340.742 211.49 340.824 211.299 340.883C211.107 340.941 210.906 340.971 210.695 340.971C210.324 340.971 209.994 340.908 209.705 340.783C209.412 340.658 209.166 340.484 208.967 340.262C208.768 340.043 208.615 339.781 208.51 339.477C208.404 339.168 208.352 338.832 208.352 338.469C208.352 338.109 208.404 337.775 208.51 337.467C208.615 337.158 208.768 336.891 208.967 336.664C209.166 336.437 209.412 336.26 209.705 336.131C209.994 336.002 210.324 335.937 210.695 335.937ZM214.674 336.828C214.436 336.828 214.217 336.869 214.018 336.951C213.818 337.029 213.646 337.141 213.502 337.285C213.361 337.43 213.252 337.604 213.174 337.807C213.096 338.006 213.057 338.225 213.057 338.463C213.057 338.709 213.096 338.932 213.174 339.131C213.252 339.33 213.361 339.5 213.502 339.641C213.646 339.781 213.818 339.891 214.018 339.969C214.217 340.043 214.436 340.08 214.674 340.08C214.92 340.08 215.141 340.043 215.336 339.969C215.527 339.891 215.689 339.781 215.822 339.641C215.955 339.5 216.057 339.33 216.127 339.131C216.197 338.928 216.232 338.701 216.232 338.451C216.232 338.213 216.197 337.994 216.127 337.795C216.057 337.596 215.955 337.424 215.822 337.279C215.689 337.139 215.527 337.029 215.336 336.951C215.141 336.869 214.92 336.828 214.674 336.828ZM210.713 337.027C210.498 337.027 210.301 337.064 210.121 337.139C209.941 337.209 209.785 337.307 209.652 337.432C209.523 337.561 209.424 337.713 209.354 337.889C209.279 338.064 209.242 338.258 209.242 338.469C209.242 338.68 209.277 338.871 209.348 339.043C209.414 339.215 209.512 339.363 209.641 339.488C209.77 339.613 209.926 339.711 210.109 339.781C210.289 339.848 210.49 339.881 210.713 339.881C210.936 339.881 211.137 339.848 211.316 339.781C211.492 339.711 211.643 339.611 211.768 339.482C211.896 339.357 211.996 339.209 212.066 339.037C212.133 338.861 212.166 338.668 212.166 338.457C212.166 338.25 212.133 338.059 212.066 337.883C211.996 337.707 211.896 337.555 211.768 337.426C211.643 337.301 211.49 337.203 211.311 337.133C211.131 337.062 210.932 337.027 210.713 337.027Z" fill="#00384F"/>
<path d="M217 344.842L217 350.432L216.221 350.432L213.115 347.637C212.838 347.387 212.592 347.178 212.377 347.01C212.162 346.842 211.963 346.708 211.779 346.606C211.6 346.504 211.43 346.432 211.27 346.389C211.105 346.346 210.937 346.325 210.766 346.325C210.555 346.325 210.357 346.36 210.174 346.43C209.986 346.497 209.824 346.594 209.687 346.723C209.551 346.856 209.443 347.016 209.365 347.204C209.283 347.387 209.242 347.596 209.242 347.831C209.242 348.116 209.283 348.364 209.365 348.575C209.447 348.782 209.562 348.954 209.711 349.09C209.863 349.231 210.047 349.336 210.262 349.407C210.477 349.473 210.717 349.506 210.982 349.506L210.982 350.596C210.623 350.596 210.285 350.534 209.969 350.409C209.648 350.284 209.369 350.102 209.131 349.864C208.893 349.629 208.703 349.342 208.562 349.002C208.422 348.659 208.352 348.268 208.352 347.831C208.352 347.428 208.412 347.067 208.533 346.747C208.65 346.422 208.814 346.149 209.025 345.926C209.236 345.704 209.486 345.534 209.775 345.417C210.064 345.295 210.379 345.235 210.719 345.235C210.973 345.235 211.225 345.278 211.475 345.364C211.721 345.45 211.965 345.565 212.207 345.709C212.449 345.858 212.689 346.03 212.928 346.225C213.162 346.417 213.396 346.62 213.631 346.834L216.115 349.125L216.115 344.842L217 344.842Z" fill="#00384F"/>
<path d="M213.736 353.606C214.279 353.606 214.762 353.668 215.184 353.793C215.602 353.918 215.953 354.098 216.238 354.333C216.527 354.567 216.746 354.854 216.895 355.194C217.043 355.534 217.117 355.922 217.117 356.36C217.117 356.793 217.045 357.182 216.9 357.526C216.752 357.87 216.531 358.161 216.238 358.399C215.953 358.637 215.602 358.819 215.184 358.944C214.762 359.069 214.279 359.131 213.736 359.131L211.738 359.131C211.195 359.131 210.715 359.069 210.297 358.944C209.875 358.819 209.52 358.637 209.23 358.399C208.941 358.165 208.723 357.877 208.574 357.538C208.422 357.194 208.346 356.805 208.346 356.372C208.346 355.934 208.422 355.545 208.574 355.206C208.723 354.862 208.941 354.571 209.23 354.333C209.52 354.098 209.875 353.918 210.297 353.793C210.715 353.668 211.195 353.606 211.738 353.606L213.736 353.606ZM213.52 358.042L210.971 354.719C210.689 354.75 210.441 354.807 210.227 354.889C210.008 354.967 209.826 355.075 209.682 355.211C209.533 355.344 209.422 355.508 209.348 355.704C209.273 355.895 209.236 356.118 209.236 356.372C209.236 356.629 209.277 356.858 209.359 357.057C209.437 357.252 209.553 357.418 209.705 357.555C209.896 357.719 210.145 357.842 210.449 357.924C210.75 358.002 211.1 358.042 211.498 358.042L212.928 358.042C213.025 358.042 213.123 358.042 213.221 358.042C213.318 358.042 213.418 358.042 213.52 358.042ZM213.965 354.696L212.758 354.696C212.699 354.696 212.588 354.696 212.424 354.696C212.256 354.696 212.117 354.696 212.008 354.696L214.545 358.012C214.83 357.977 215.082 357.915 215.301 357.825C215.516 357.735 215.693 357.618 215.834 357.473C215.967 357.34 216.068 357.18 216.139 356.993C216.205 356.805 216.238 356.594 216.238 356.36C216.238 356.114 216.201 355.895 216.127 355.704C216.053 355.512 215.945 355.35 215.805 355.217C215.613 355.038 215.363 354.907 215.055 354.825C214.746 354.739 214.383 354.696 213.965 354.696Z" fill="#00384F"/>
<path d="M217 362.616L217 368.206L216.221 368.206L213.115 365.411C212.838 365.161 212.592 364.952 212.377 364.784C212.162 364.616 211.963 364.481 211.779 364.38C211.6 364.278 211.43 364.206 211.27 364.163C211.105 364.12 210.937 364.099 210.766 364.099C210.555 364.099 210.357 364.134 210.174 364.204C209.986 364.271 209.824 364.368 209.687 364.497C209.551 364.63 209.443 364.79 209.365 364.978C209.283 365.161 209.242 365.37 209.242 365.604C209.242 365.89 209.283 366.138 209.365 366.349C209.447 366.556 209.562 366.728 209.711 366.864C209.863 367.005 210.047 367.11 210.262 367.181C210.477 367.247 210.717 367.28 210.982 367.28L210.982 368.37C210.623 368.37 210.285 368.308 209.969 368.183C209.648 368.058 209.369 367.876 209.131 367.638C208.893 367.403 208.703 367.116 208.562 366.776C208.422 366.433 208.352 366.042 208.352 365.604C208.352 365.202 208.412 364.841 208.533 364.521C208.65 364.196 208.814 363.923 209.025 363.7C209.236 363.478 209.486 363.308 209.775 363.19C210.064 363.069 210.379 363.009 210.719 363.009C210.973 363.009 211.225 363.052 211.475 363.138C211.721 363.224 211.965 363.339 212.207 363.483C212.449 363.632 212.689 363.804 212.928 363.999C213.162 364.19 213.396 364.394 213.631 364.608L216.115 366.899L216.115 362.616L217 362.616Z" fill="#00384F"/>
<path d="M308.039 340.021C308.039 339.475 307.975 339.02 307.846 338.656C307.713 338.289 307.527 337.994 307.289 337.771C306.996 337.502 306.682 337.32 306.346 337.227C306.01 337.133 305.662 337.076 305.303 337.057L305.291 337.057C305.408 337.15 305.52 337.258 305.625 337.379C305.727 337.5 305.816 337.637 305.895 337.789C305.973 337.941 306.035 338.111 306.082 338.299C306.125 338.482 306.146 338.684 306.146 338.902C306.146 339.324 306.064 339.689 305.9 339.998C305.732 340.303 305.514 340.555 305.244 340.754C304.975 340.953 304.67 341.1 304.33 341.193C303.99 341.287 303.648 341.334 303.305 341.334C302.902 341.334 302.523 341.279 302.168 341.17C301.809 341.057 301.494 340.889 301.225 340.666C300.959 340.447 300.748 340.174 300.592 339.846C300.432 339.514 300.352 339.129 300.352 338.691C300.352 338.254 300.434 337.875 300.598 337.555C300.758 337.23 300.971 336.959 301.236 336.74C301.549 336.482 301.939 336.289 302.408 336.16C302.873 336.031 303.338 335.967 303.803 335.967L304.195 335.967C304.855 335.967 305.52 336.037 306.187 336.178C306.852 336.318 307.441 336.619 307.957 337.08C308.27 337.357 308.523 337.742 308.719 338.234C308.91 338.723 309.006 339.318 309.006 340.021L309.006 340.133L308.039 340.133L308.039 340.021ZM305.25 338.727C305.25 338.543 305.221 338.365 305.162 338.193C305.1 338.018 305.012 337.855 304.898 337.707C304.789 337.562 304.66 337.434 304.512 337.32C304.359 337.203 304.191 337.111 304.008 337.045L303.656 337.045C303.277 337.045 302.939 337.09 302.643 337.18C302.346 337.266 302.094 337.383 301.887 337.531C301.684 337.684 301.527 337.859 301.418 338.059C301.309 338.254 301.254 338.463 301.254 338.686C301.254 338.939 301.305 339.164 301.406 339.359C301.508 339.555 301.646 339.719 301.822 339.852C302.002 339.988 302.215 340.092 302.461 340.162C302.703 340.232 302.965 340.268 303.246 340.268C303.496 340.268 303.742 340.236 303.984 340.174C304.223 340.111 304.436 340.016 304.623 339.887C304.811 339.762 304.963 339.604 305.08 339.412C305.193 339.217 305.25 338.988 305.25 338.727Z" fill="#00384F"/>
<path d="M309 344.842L309 350.432L308.221 350.432L305.115 347.637C304.838 347.387 304.592 347.178 304.377 347.01C304.162 346.842 303.963 346.708 303.779 346.606C303.6 346.504 303.43 346.432 303.27 346.389C303.105 346.346 302.937 346.325 302.766 346.325C302.555 346.325 302.357 346.36 302.174 346.43C301.986 346.497 301.824 346.594 301.687 346.723C301.551 346.856 301.443 347.016 301.365 347.204C301.283 347.387 301.242 347.596 301.242 347.831C301.242 348.116 301.283 348.364 301.365 348.575C301.447 348.782 301.562 348.954 301.711 349.09C301.863 349.231 302.047 349.336 302.262 349.407C302.477 349.473 302.717 349.506 302.982 349.506L302.982 350.596C302.623 350.596 302.285 350.534 301.969 350.409C301.648 350.284 301.369 350.102 301.131 349.864C300.893 349.629 300.703 349.342 300.562 349.002C300.422 348.659 300.352 348.268 300.352 347.831C300.352 347.428 300.412 347.067 300.533 346.747C300.65 346.422 300.814 346.149 301.025 345.926C301.236 345.704 301.486 345.534 301.775 345.417C302.064 345.295 302.379 345.235 302.719 345.235C302.973 345.235 303.225 345.278 303.475 345.364C303.721 345.45 303.965 345.565 304.207 345.709C304.449 345.858 304.689 346.03 304.928 346.225C305.162 346.417 305.396 346.62 305.631 346.834L308.115 349.125L308.115 344.842L309 344.842Z" fill="#00384F"/>
<path d="M305.736 353.606C306.279 353.606 306.762 353.668 307.184 353.793C307.602 353.918 307.953 354.098 308.238 354.333C308.527 354.567 308.746 354.854 308.895 355.194C309.043 355.534 309.117 355.922 309.117 356.36C309.117 356.793 309.045 357.182 308.9 357.526C308.752 357.87 308.531 358.161 308.238 358.399C307.953 358.637 307.602 358.819 307.184 358.944C306.762 359.069 306.279 359.131 305.736 359.131L303.738 359.131C303.195 359.131 302.715 359.069 302.297 358.944C301.875 358.819 301.52 358.637 301.23 358.399C300.941 358.165 300.723 357.877 300.574 357.538C300.422 357.194 300.346 356.805 300.346 356.372C300.346 355.934 300.422 355.545 300.574 355.206C300.723 354.862 300.941 354.571 301.23 354.333C301.52 354.098 301.875 353.918 302.297 353.793C302.715 353.668 303.195 353.606 303.738 353.606L305.736 353.606ZM305.52 358.042L302.971 354.719C302.689 354.75 302.441 354.807 302.227 354.889C302.008 354.967 301.826 355.075 301.682 355.211C301.533 355.344 301.422 355.508 301.348 355.704C301.273 355.895 301.236 356.118 301.236 356.372C301.236 356.629 301.277 356.858 301.359 357.057C301.437 357.252 301.553 357.418 301.705 357.555C301.896 357.719 302.145 357.842 302.449 357.924C302.75 358.002 303.1 358.042 303.498 358.042L304.928 358.042C305.025 358.042 305.123 358.042 305.221 358.042C305.318 358.042 305.418 358.042 305.52 358.042ZM305.965 354.696L304.758 354.696C304.699 354.696 304.588 354.696 304.424 354.696C304.256 354.696 304.117 354.696 304.008 354.696L306.545 358.012C306.83 357.977 307.082 357.915 307.301 357.825C307.516 357.735 307.693 357.618 307.834 357.473C307.967 357.34 308.068 357.18 308.139 356.993C308.205 356.805 308.238 356.594 308.238 356.36C308.238 356.114 308.201 355.895 308.127 355.704C308.053 355.512 307.945 355.35 307.805 355.217C307.613 355.038 307.363 354.907 307.055 354.825C306.746 354.739 306.383 354.696 305.965 354.696Z" fill="#00384F"/>
<path d="M309 362.616L309 368.206L308.221 368.206L305.115 365.411C304.838 365.161 304.592 364.952 304.377 364.784C304.162 364.616 303.963 364.481 303.779 364.38C303.6 364.278 303.43 364.206 303.27 364.163C303.105 364.12 302.937 364.099 302.766 364.099C302.555 364.099 302.357 364.134 302.174 364.204C301.986 364.271 301.824 364.368 301.687 364.497C301.551 364.63 301.443 364.79 301.365 364.978C301.283 365.161 301.242 365.37 301.242 365.604C301.242 365.89 301.283 366.138 301.365 366.349C301.447 366.556 301.562 366.728 301.711 366.864C301.863 367.005 302.047 367.11 302.262 367.181C302.477 367.247 302.717 367.28 302.982 367.28L302.982 368.37C302.623 368.37 302.285 368.308 301.969 368.183C301.648 368.058 301.369 367.876 301.131 367.638C300.893 367.403 300.703 367.116 300.562 366.776C300.422 366.433 300.352 366.042 300.352 365.604C300.352 365.202 300.412 364.841 300.533 364.521C300.65 364.196 300.814 363.923 301.025 363.7C301.236 363.478 301.486 363.308 301.775 363.19C302.064 363.069 302.379 363.009 302.719 363.009C302.973 363.009 303.225 363.052 303.475 363.138C303.721 363.224 303.965 363.339 304.207 363.483C304.449 363.632 304.689 363.804 304.928 363.999C305.162 364.19 305.396 364.394 305.631 364.608L308.115 366.899L308.115 362.616L309 362.616Z" fill="#00384F"/>
<path d="M223.073 417.648V409.117H225.048C225.38 409.121 225.692 409.156 225.985 409.223C226.282 409.285 226.556 409.375 226.806 409.492C227.153 409.652 227.46 409.863 227.726 410.125C227.995 410.383 228.21 410.682 228.37 411.021C228.515 411.311 228.624 411.627 228.698 411.971C228.776 412.314 228.817 412.682 228.821 413.072V413.699C228.821 414.074 228.784 414.43 228.71 414.766C228.64 415.102 228.536 415.41 228.399 415.691C228.259 415.984 228.081 416.25 227.866 416.488C227.651 416.727 227.411 416.93 227.146 417.098C226.864 417.273 226.546 417.408 226.19 417.502C225.839 417.596 225.458 417.645 225.048 417.648H223.073ZM224.175 410.008V416.764H225.048C225.36 416.76 225.644 416.721 225.897 416.646C226.155 416.572 226.384 416.467 226.583 416.33C226.794 416.189 226.976 416.018 227.128 415.814C227.284 415.607 227.407 415.377 227.497 415.123C227.575 414.916 227.634 414.693 227.673 414.455C227.712 414.213 227.733 413.961 227.737 413.699V413.061C227.733 412.795 227.71 412.541 227.667 412.299C227.628 412.053 227.567 411.824 227.485 411.613C227.38 411.34 227.237 411.094 227.058 410.875C226.882 410.652 226.665 410.473 226.407 410.336C226.224 410.234 226.019 410.156 225.792 410.102C225.565 410.043 225.317 410.012 225.048 410.008H224.175Z" fill="#00384F"/>
<path d="M218.991 413.705H215.428V416.729H219.583V417.648H214.344V409.117H219.53V410.043H215.428V412.785H218.991V413.705Z" fill="#00384F"/>
<path d="M209.875 415.492C209.875 415.23 209.815 415.01 209.694 414.83C209.577 414.65 209.424 414.498 209.237 414.373C209.049 414.252 208.842 414.15 208.616 414.068C208.393 413.986 208.178 413.912 207.971 413.846C207.67 413.748 207.364 413.631 207.051 413.494C206.743 413.354 206.461 413.186 206.208 412.99C205.95 412.791 205.739 412.557 205.575 412.287C205.415 412.014 205.334 411.693 205.334 411.326C205.334 410.959 205.415 410.631 205.575 410.342C205.739 410.053 205.952 409.809 206.213 409.609C206.475 409.41 206.772 409.26 207.104 409.158C207.436 409.053 207.77 409 208.106 409C208.477 409 208.834 409.062 209.178 409.188C209.522 409.309 209.827 409.48 210.092 409.703C210.358 409.926 210.571 410.195 210.731 410.512C210.891 410.828 210.975 411.182 210.983 411.572H209.87C209.838 411.326 209.778 411.104 209.688 410.904C209.598 410.701 209.479 410.527 209.331 410.383C209.182 410.238 209.004 410.127 208.797 410.049C208.594 409.967 208.364 409.926 208.106 409.926C207.899 409.926 207.696 409.955 207.497 410.014C207.301 410.072 207.127 410.16 206.975 410.277C206.819 410.395 206.694 410.539 206.6 410.711C206.51 410.883 206.465 411.082 206.465 411.309C206.469 411.555 206.532 411.764 206.653 411.936C206.774 412.104 206.928 412.246 207.116 412.363C207.299 412.48 207.499 412.578 207.713 412.656C207.932 412.734 208.137 412.803 208.329 412.861C208.645 412.959 208.961 413.078 209.278 413.219C209.594 413.355 209.883 413.531 210.145 413.746C210.403 413.945 210.61 414.189 210.766 414.479C210.926 414.768 211.006 415.102 211.006 415.48C211.006 415.863 210.92 416.197 210.749 416.482C210.581 416.768 210.362 417.004 210.092 417.191C209.823 417.383 209.518 417.527 209.178 417.625C208.838 417.719 208.499 417.766 208.159 417.766C207.752 417.766 207.352 417.697 206.958 417.561C206.567 417.424 206.227 417.227 205.938 416.969C205.68 416.746 205.475 416.486 205.323 416.189C205.174 415.889 205.094 415.555 205.083 415.188H206.19C206.225 415.453 206.297 415.689 206.407 415.896C206.516 416.1 206.657 416.271 206.829 416.412C207 416.557 207.198 416.666 207.42 416.74C207.647 416.811 207.893 416.846 208.159 416.846C208.37 416.846 208.577 416.82 208.78 416.77C208.987 416.715 209.17 416.631 209.331 416.518C209.491 416.408 209.622 416.27 209.723 416.102C209.825 415.93 209.875 415.727 209.875 415.492Z" fill="#00384F"/>
<path d="M200.988 415.492C200.988 415.23 200.928 415.01 200.807 414.83C200.689 414.65 200.537 414.498 200.35 414.373C200.162 414.252 199.955 414.15 199.729 414.068C199.506 413.986 199.291 413.912 199.084 413.846C198.783 413.748 198.477 413.631 198.164 413.494C197.855 413.354 197.574 413.186 197.32 412.99C197.062 412.791 196.852 412.557 196.688 412.287C196.527 412.014 196.447 411.693 196.447 411.326C196.447 410.959 196.527 410.631 196.688 410.342C196.852 410.053 197.064 409.809 197.326 409.609C197.588 409.41 197.885 409.26 198.217 409.158C198.549 409.053 198.883 409 199.219 409C199.59 409 199.947 409.062 200.291 409.188C200.635 409.309 200.939 409.48 201.205 409.703C201.471 409.926 201.684 410.195 201.844 410.512C202.004 410.828 202.088 411.182 202.096 411.572H200.982C200.951 411.326 200.891 411.104 200.801 410.904C200.711 410.701 200.592 410.527 200.443 410.383C200.295 410.238 200.117 410.127 199.91 410.049C199.707 409.967 199.477 409.926 199.219 409.926C199.012 409.926 198.809 409.955 198.609 410.014C198.414 410.072 198.24 410.16 198.088 410.277C197.932 410.395 197.807 410.539 197.713 410.711C197.623 410.883 197.578 411.082 197.578 411.309C197.582 411.555 197.645 411.764 197.766 411.936C197.887 412.104 198.041 412.246 198.229 412.363C198.412 412.48 198.611 412.578 198.826 412.656C199.045 412.734 199.25 412.803 199.441 412.861C199.758 412.959 200.074 413.078 200.391 413.219C200.707 413.355 200.996 413.531 201.258 413.746C201.516 413.945 201.723 414.189 201.879 414.479C202.039 414.768 202.119 415.102 202.119 415.48C202.119 415.863 202.033 416.197 201.861 416.482C201.693 416.768 201.475 417.004 201.205 417.191C200.936 417.383 200.631 417.527 200.291 417.625C199.951 417.719 199.611 417.766 199.271 417.766C198.865 417.766 198.465 417.697 198.07 417.561C197.68 417.424 197.34 417.227 197.051 416.969C196.793 416.746 196.588 416.486 196.436 416.189C196.287 415.889 196.207 415.555 196.195 415.188H197.303C197.338 415.453 197.41 415.689 197.52 415.896C197.629 416.1 197.77 416.271 197.941 416.412C198.113 416.557 198.311 416.666 198.533 416.74C198.76 416.811 199.006 416.846 199.271 416.846C199.482 416.846 199.689 416.82 199.893 416.77C200.1 416.715 200.283 416.631 200.443 416.518C200.604 416.408 200.734 416.27 200.836 416.102C200.938 415.93 200.988 415.727 200.988 415.492Z" fill="#00384F"/>
<path d="M192.33 413.705H188.768V416.729H192.922V417.648H187.684V409.117H192.869V410.043H188.768V412.785H192.33V413.705Z" fill="#00384F"/>
<path d="M184.275 415.082C184.224 415.477 184.123 415.84 183.97 416.172C183.818 416.5 183.621 416.781 183.378 417.016C183.132 417.254 182.841 417.439 182.505 417.572C182.173 417.701 181.802 417.766 181.392 417.766C181.041 417.766 180.72 417.717 180.431 417.619C180.146 417.518 179.892 417.379 179.669 417.203C179.443 417.027 179.248 416.82 179.083 416.582C178.923 416.344 178.791 416.084 178.685 415.803C178.576 415.521 178.494 415.227 178.439 414.918C178.388 414.609 178.361 414.297 178.357 413.98V412.791C178.361 412.475 178.388 412.162 178.439 411.854C178.494 411.545 178.576 411.25 178.685 410.969C178.791 410.688 178.923 410.428 179.083 410.189C179.248 409.947 179.443 409.738 179.669 409.562C179.892 409.387 180.146 409.25 180.431 409.152C180.716 409.051 181.037 409 181.392 409C181.818 409 182.199 409.066 182.535 409.199C182.871 409.328 183.16 409.512 183.402 409.75C183.644 409.992 183.837 410.281 183.982 410.617C184.13 410.953 184.228 411.324 184.275 411.73H183.191C183.156 411.473 183.095 411.232 183.009 411.01C182.923 410.787 182.808 410.592 182.664 410.424C182.519 410.256 182.341 410.125 182.13 410.031C181.923 409.934 181.677 409.885 181.392 409.885C181.134 409.885 180.906 409.928 180.707 410.014C180.511 410.096 180.343 410.209 180.203 410.354C180.058 410.498 179.937 410.666 179.839 410.857C179.746 411.049 179.669 411.252 179.611 411.467C179.552 411.682 179.509 411.902 179.482 412.129C179.458 412.352 179.447 412.568 179.447 412.779V413.98C179.447 414.191 179.458 414.41 179.482 414.637C179.509 414.859 179.552 415.078 179.611 415.293C179.669 415.512 179.746 415.717 179.839 415.908C179.933 416.1 180.052 416.268 180.197 416.412C180.341 416.561 180.511 416.678 180.707 416.764C180.902 416.846 181.13 416.887 181.392 416.887C181.677 416.887 181.923 416.842 182.13 416.752C182.341 416.662 182.519 416.535 182.664 416.371C182.808 416.211 182.923 416.021 183.009 415.803C183.095 415.58 183.156 415.34 183.191 415.082H184.275Z" fill="#00384F"/>
<path d="M175.411 413.875C175.407 414.18 175.38 414.488 175.329 414.801C175.282 415.109 175.208 415.408 175.106 415.697C175.005 415.986 174.874 416.256 174.714 416.506C174.558 416.756 174.37 416.975 174.151 417.162C173.933 417.35 173.681 417.498 173.396 417.607C173.114 417.713 172.798 417.766 172.446 417.766C172.095 417.766 171.776 417.713 171.491 417.607C171.21 417.498 170.96 417.35 170.741 417.162C170.522 416.975 170.333 416.756 170.173 416.506C170.013 416.252 169.882 415.98 169.78 415.691C169.675 415.402 169.597 415.104 169.546 414.795C169.495 414.486 169.468 414.18 169.464 413.875V412.902C169.468 412.598 169.493 412.291 169.54 411.982C169.591 411.67 169.669 411.369 169.774 411.08C169.876 410.791 170.005 410.521 170.161 410.271C170.321 410.018 170.511 409.795 170.729 409.604C170.948 409.416 171.198 409.27 171.479 409.164C171.765 409.055 172.083 409 172.435 409C172.786 409 173.104 409.055 173.39 409.164C173.675 409.27 173.927 409.416 174.146 409.604C174.364 409.791 174.552 410.012 174.708 410.266C174.868 410.516 175.001 410.785 175.106 411.074C175.208 411.363 175.282 411.664 175.329 411.977C175.38 412.289 175.407 412.598 175.411 412.902V413.875ZM174.339 412.891C174.335 412.688 174.321 412.477 174.298 412.258C174.274 412.035 174.235 411.814 174.181 411.596C174.122 411.381 174.046 411.176 173.952 410.98C173.858 410.781 173.741 410.605 173.601 410.453C173.46 410.305 173.294 410.188 173.103 410.102C172.911 410.012 172.688 409.967 172.435 409.967C172.185 409.967 171.964 410.012 171.772 410.102C171.581 410.191 171.415 410.311 171.274 410.459C171.134 410.611 171.017 410.787 170.923 410.986C170.829 411.182 170.755 411.387 170.7 411.602C170.642 411.82 170.599 412.041 170.571 412.264C170.548 412.482 170.534 412.691 170.53 412.891V413.875C170.534 414.074 170.548 414.285 170.571 414.508C170.599 414.73 170.642 414.949 170.7 415.164C170.759 415.383 170.835 415.592 170.929 415.791C171.022 415.99 171.14 416.164 171.28 416.312C171.421 416.465 171.587 416.586 171.778 416.676C171.97 416.766 172.192 416.811 172.446 416.811C172.7 416.811 172.923 416.766 173.114 416.676C173.31 416.586 173.478 416.465 173.618 416.312C173.755 416.164 173.868 415.992 173.958 415.797C174.052 415.598 174.128 415.389 174.187 415.17C174.241 414.955 174.278 414.736 174.298 414.514C174.321 414.291 174.335 414.078 174.339 413.875V412.891Z" fill="#00384F"/>
<path d="M163.8 414.168H162.095V417.648H161.017V409.117H163.519C163.917 409.125 164.292 409.182 164.644 409.287C164.995 409.393 165.304 409.551 165.569 409.762C165.831 409.973 166.036 410.238 166.185 410.559C166.337 410.875 166.413 411.248 166.413 411.678C166.413 411.955 166.372 412.209 166.29 412.439C166.212 412.67 166.103 412.879 165.962 413.066C165.821 413.254 165.653 413.42 165.458 413.564C165.263 413.709 165.048 413.832 164.813 413.934L166.624 417.578L166.618 417.648H165.476L163.8 414.168ZM162.095 413.277H163.548C163.79 413.273 164.019 413.236 164.233 413.166C164.448 413.092 164.638 412.986 164.802 412.85C164.962 412.713 165.089 412.547 165.183 412.352C165.276 412.152 165.323 411.924 165.323 411.666C165.323 411.393 165.278 411.154 165.188 410.951C165.099 410.744 164.974 410.57 164.813 410.43C164.653 410.293 164.462 410.189 164.239 410.119C164.021 410.049 163.78 410.012 163.519 410.008H162.095V413.277Z" fill="#00384F"/>
<path d="M153.272 414.227V417.648H152.188V409.117H154.954C155.336 409.125 155.698 409.186 156.038 409.299C156.381 409.412 156.682 409.576 156.94 409.791C157.198 410.006 157.401 410.271 157.549 410.588C157.702 410.904 157.778 411.268 157.778 411.678C157.778 412.088 157.702 412.451 157.549 412.768C157.401 413.08 157.198 413.344 156.94 413.559C156.682 413.773 156.381 413.938 156.038 414.051C155.698 414.164 155.336 414.223 154.954 414.227H153.272ZM153.272 413.336H154.954C155.204 413.332 155.434 413.293 155.645 413.219C155.856 413.141 156.04 413.031 156.196 412.891C156.352 412.75 156.473 412.58 156.559 412.381C156.649 412.178 156.694 411.947 156.694 411.689C156.694 411.432 156.649 411.199 156.559 410.992C156.473 410.785 156.354 410.609 156.202 410.465C156.045 410.32 155.86 410.209 155.645 410.131C155.434 410.053 155.204 410.012 154.954 410.008H153.272V413.336Z" fill="#00384F"/>
<path d="M139.008 413.705H135.445V416.729H139.6V417.648H134.361V409.117H139.547V410.043H135.445V412.785H139.008V413.705Z" fill="#00384F"/>
<path d="M131.181 410.043H128.544V417.648H127.49V410.043H124.853V409.117H131.181V410.043Z" fill="#00384F"/>
<path d="M121.005 415.492C121.005 415.23 120.944 415.01 120.823 414.83C120.706 414.65 120.554 414.498 120.366 414.373C120.179 414.252 119.972 414.15 119.745 414.068C119.522 413.986 119.308 413.912 119.101 413.846C118.8 413.748 118.493 413.631 118.181 413.494C117.872 413.354 117.591 413.186 117.337 412.99C117.079 412.791 116.868 412.557 116.704 412.287C116.544 412.014 116.464 411.693 116.464 411.326C116.464 410.959 116.544 410.631 116.704 410.342C116.868 410.053 117.081 409.809 117.343 409.609C117.604 409.41 117.901 409.26 118.233 409.158C118.565 409.053 118.899 409 119.235 409C119.606 409 119.964 409.062 120.308 409.188C120.651 409.309 120.956 409.48 121.222 409.703C121.487 409.926 121.7 410.195 121.86 410.512C122.021 410.828 122.104 411.182 122.112 411.572H120.999C120.968 411.326 120.907 411.104 120.817 410.904C120.728 410.701 120.608 410.527 120.46 410.383C120.312 410.238 120.134 410.127 119.927 410.049C119.724 409.967 119.493 409.926 119.235 409.926C119.028 409.926 118.825 409.955 118.626 410.014C118.431 410.072 118.257 410.16 118.104 410.277C117.948 410.395 117.823 410.539 117.729 410.711C117.64 410.883 117.595 411.082 117.595 411.309C117.599 411.555 117.661 411.764 117.782 411.936C117.903 412.104 118.058 412.246 118.245 412.363C118.429 412.48 118.628 412.578 118.843 412.656C119.062 412.734 119.267 412.803 119.458 412.861C119.774 412.959 120.091 413.078 120.407 413.219C120.724 413.355 121.013 413.531 121.274 413.746C121.532 413.945 121.739 414.189 121.896 414.479C122.056 414.768 122.136 415.102 122.136 415.48C122.136 415.863 122.05 416.197 121.878 416.482C121.71 416.768 121.491 417.004 121.222 417.191C120.952 417.383 120.647 417.527 120.308 417.625C119.968 417.719 119.628 417.766 119.288 417.766C118.882 417.766 118.481 417.697 118.087 417.561C117.696 417.424 117.356 417.227 117.067 416.969C116.81 416.746 116.604 416.486 116.452 416.189C116.304 415.889 116.224 415.555 116.212 415.188H117.319C117.354 415.453 117.427 415.689 117.536 415.896C117.646 416.1 117.786 416.271 117.958 416.412C118.13 416.557 118.327 416.666 118.55 416.74C118.776 416.811 119.022 416.846 119.288 416.846C119.499 416.846 119.706 416.82 119.909 416.77C120.116 416.715 120.3 416.631 120.46 416.518C120.62 416.408 120.751 416.27 120.853 416.102C120.954 415.93 121.005 415.727 121.005 415.492Z" fill="#00384F"/>
<path d="M111.726 415.439H108.878L108.192 417.648H107.108L109.862 409.117H110.771L113.478 417.648H112.399L111.726 415.439ZM109.171 414.496H111.438L110.313 410.793L109.171 414.496Z" fill="#00384F"/>
<path d="M99.2114 417.648L98.1743 409.117H99.2056L99.8208 415L99.856 415.34L99.9204 414.988L100.952 409.117H101.895L102.932 414.994L102.997 415.34L103.032 414.988L103.647 409.117H104.672L103.635 417.648H102.528L101.491 411.578L101.432 411.221L101.368 411.584L100.325 417.648H99.2114Z" fill="#00384F"/>
<path d="M85.7383 413.881H82.1875V417.648H81.0918V409.117H86.3301V410.043H82.1875V412.961H85.7383V413.881Z" fill="#00384F"/>
<path d="M77.6538 413.875C77.6499 414.18 77.6226 414.488 77.5718 414.801C77.5249 415.109 77.4507 415.408 77.3491 415.697C77.2476 415.986 77.1167 416.256 76.9565 416.506C76.8003 416.756 76.6128 416.975 76.394 417.162C76.1753 417.35 75.9233 417.498 75.6382 417.607C75.3569 417.713 75.0405 417.766 74.689 417.766C74.3374 417.766 74.019 417.713 73.7339 417.607C73.4526 417.498 73.2026 417.35 72.9839 417.162C72.7651 416.975 72.5757 416.756 72.4155 416.506C72.2554 416.252 72.1245 415.98 72.0229 415.691C71.9175 415.402 71.8394 415.104 71.7886 414.795C71.7378 414.486 71.7104 414.18 71.7065 413.875V412.902C71.7104 412.598 71.7358 412.291 71.7827 411.982C71.8335 411.67 71.9116 411.369 72.0171 411.08C72.1187 410.791 72.2476 410.521 72.4038 410.271C72.564 410.018 72.7534 409.795 72.9722 409.604C73.1909 409.416 73.4409 409.27 73.7222 409.164C74.0073 409.055 74.3257 409 74.6772 409C75.0288 409 75.3472 409.055 75.6323 409.164C75.9175 409.27 76.1694 409.416 76.3882 409.604C76.6069 409.791 76.7944 410.012 76.9507 410.266C77.1108 410.516 77.2437 410.785 77.3491 411.074C77.4507 411.363 77.5249 411.664 77.5718 411.977C77.6226 412.289 77.6499 412.598 77.6538 412.902V413.875ZM76.5815 412.891C76.5776 412.688 76.564 412.477 76.5405 412.258C76.5171 412.035 76.478 411.814 76.4233 411.596C76.3647 411.381 76.2886 411.176 76.1948 410.98C76.1011 410.781 75.9839 410.605 75.8433 410.453C75.7026 410.305 75.5366 410.188 75.3452 410.102C75.1538 410.012 74.9312 409.967 74.6772 409.967C74.4272 409.967 74.2065 410.012 74.0151 410.102C73.8237 410.191 73.6577 410.311 73.5171 410.459C73.3765 410.611 73.2593 410.787 73.1655 410.986C73.0718 411.182 72.9976 411.387 72.9429 411.602C72.8843 411.82 72.8413 412.041 72.814 412.264C72.7905 412.482 72.7769 412.691 72.7729 412.891V413.875C72.7769 414.074 72.7905 414.285 72.814 414.508C72.8413 414.73 72.8843 414.949 72.9429 415.164C73.0015 415.383 73.0776 415.592 73.1714 415.791C73.2651 415.99 73.3823 416.164 73.5229 416.312C73.6636 416.465 73.8296 416.586 74.021 416.676C74.2124 416.766 74.4351 416.811 74.689 416.811C74.9429 416.811 75.1655 416.766 75.3569 416.676C75.5522 416.586 75.7202 416.465 75.8608 416.312C75.9976 416.164 76.1108 415.992 76.2007 415.797C76.2944 415.598 76.3706 415.389 76.4292 415.17C76.4839 414.955 76.521 414.736 76.5405 414.514C76.564 414.291 76.5776 414.078 76.5815 413.875V412.891Z" fill="#00384F"/>
<path d="M58.7959 415.492C58.7959 415.23 58.7354 415.01 58.6143 414.83C58.4971 414.65 58.3447 414.498 58.1572 414.373C57.9697 414.252 57.7627 414.15 57.5361 414.068C57.3135 413.986 57.0986 413.912 56.8916 413.846C56.5908 413.748 56.2842 413.631 55.9717 413.494C55.6631 413.354 55.3818 413.186 55.1279 412.99C54.8701 412.791 54.6592 412.557 54.4951 412.287C54.335 412.014 54.2549 411.693 54.2549 411.326C54.2549 410.959 54.335 410.631 54.4951 410.342C54.6592 410.053 54.8721 409.809 55.1338 409.609C55.3955 409.41 55.6924 409.26 56.0244 409.158C56.3564 409.053 56.6904 409 57.0264 409C57.3975 409 57.7549 409.062 58.0986 409.188C58.4424 409.309 58.7471 409.48 59.0127 409.703C59.2783 409.926 59.4912 410.195 59.6514 410.512C59.8115 410.828 59.8955 411.182 59.9033 411.572H58.79C58.7588 411.326 58.6982 411.104 58.6084 410.904C58.5186 410.701 58.3994 410.527 58.251 410.383C58.1025 410.238 57.9248 410.127 57.7178 410.049C57.5146 409.967 57.2842 409.926 57.0264 409.926C56.8193 409.926 56.6162 409.955 56.417 410.014C56.2217 410.072 56.0479 410.16 55.8955 410.277C55.7393 410.395 55.6143 410.539 55.5205 410.711C55.4307 410.883 55.3857 411.082 55.3857 411.309C55.3896 411.555 55.4521 411.764 55.5732 411.936C55.6943 412.104 55.8486 412.246 56.0361 412.363C56.2197 412.48 56.4189 412.578 56.6338 412.656C56.8525 412.734 57.0576 412.803 57.249 412.861C57.5654 412.959 57.8818 413.078 58.1982 413.219C58.5146 413.355 58.8037 413.531 59.0654 413.746C59.3232 413.945 59.5303 414.189 59.6865 414.479C59.8467 414.768 59.9268 415.102 59.9268 415.48C59.9268 415.863 59.8408 416.197 59.6689 416.482C59.501 416.768 59.2822 417.004 59.0127 417.191C58.7432 417.383 58.4385 417.527 58.0986 417.625C57.7588 417.719 57.4189 417.766 57.0791 417.766C56.6729 417.766 56.2725 417.697 55.8779 417.561C55.4873 417.424 55.1475 417.227 54.8584 416.969C54.6006 416.746 54.3955 416.486 54.2432 416.189C54.0947 415.889 54.0146 415.555 54.0029 415.188H55.1104C55.1455 415.453 55.2178 415.689 55.3271 415.896C55.4365 416.1 55.5771 416.271 55.749 416.412C55.9209 416.557 56.1182 416.666 56.3408 416.74C56.5674 416.811 56.8135 416.846 57.0791 416.846C57.29 416.846 57.4971 416.82 57.7002 416.77C57.9072 416.715 58.0908 416.631 58.251 416.518C58.4111 416.408 58.542 416.27 58.6436 416.102C58.7451 415.93 58.7959 415.727 58.7959 415.492Z" fill="#00384F"/>
<path d="M50.7876 417.648H49.686L46.3755 411.273L46.3579 417.648H45.2622V409.117H46.3638L49.6743 415.48L49.6919 409.117H50.7876V417.648Z" fill="#00384F"/>
<path d="M42.106 413.875C42.1021 414.18 42.0747 414.488 42.0239 414.801C41.9771 415.109 41.9028 415.408 41.8013 415.697C41.6997 415.986 41.5688 416.256 41.4087 416.506C41.2524 416.756 41.0649 416.975 40.8462 417.162C40.6274 417.35 40.3755 417.498 40.0903 417.607C39.8091 417.713 39.4927 417.766 39.1411 417.766C38.7896 417.766 38.4712 417.713 38.186 417.607C37.9048 417.498 37.6548 417.35 37.436 417.162C37.2173 416.975 37.0278 416.756 36.8677 416.506C36.7075 416.252 36.5767 415.98 36.4751 415.691C36.3696 415.402 36.2915 415.104 36.2407 414.795C36.1899 414.486 36.1626 414.18 36.1587 413.875V412.902C36.1626 412.598 36.188 412.291 36.2349 411.982C36.2856 411.67 36.3638 411.369 36.4692 411.08C36.5708 410.791 36.6997 410.521 36.856 410.271C37.0161 410.018 37.2056 409.795 37.4243 409.604C37.6431 409.416 37.8931 409.27 38.1743 409.164C38.4595 409.055 38.7778 409 39.1294 409C39.481 409 39.7993 409.055 40.0845 409.164C40.3696 409.27 40.6216 409.416 40.8403 409.604C41.0591 409.791 41.2466 410.012 41.4028 410.266C41.563 410.516 41.6958 410.785 41.8013 411.074C41.9028 411.363 41.9771 411.664 42.0239 411.977C42.0747 412.289 42.1021 412.598 42.106 412.902V413.875ZM41.0337 412.891C41.0298 412.688 41.0161 412.477 40.9927 412.258C40.9692 412.035 40.9302 411.814 40.8755 411.596C40.8169 411.381 40.7407 411.176 40.647 410.98C40.5532 410.781 40.436 410.605 40.2954 410.453C40.1548 410.305 39.9888 410.188 39.7974 410.102C39.606 410.012 39.3833 409.967 39.1294 409.967C38.8794 409.967 38.6587 410.012 38.4673 410.102C38.2759 410.191 38.1099 410.311 37.9692 410.459C37.8286 410.611 37.7114 410.787 37.6177 410.986C37.5239 411.182 37.4497 411.387 37.395 411.602C37.3364 411.82 37.2935 412.041 37.2661 412.264C37.2427 412.482 37.229 412.691 37.2251 412.891V413.875C37.229 414.074 37.2427 414.285 37.2661 414.508C37.2935 414.73 37.3364 414.949 37.395 415.164C37.4536 415.383 37.5298 415.592 37.6235 415.791C37.7173 415.99 37.8345 416.164 37.9751 416.312C38.1157 416.465 38.2817 416.586 38.4731 416.676C38.6646 416.766 38.8872 416.811 39.1411 416.811C39.395 416.811 39.6177 416.766 39.8091 416.676C40.0044 416.586 40.1724 416.465 40.313 416.312C40.4497 416.164 40.563 415.992 40.6528 415.797C40.7466 415.598 40.8228 415.389 40.8813 415.17C40.936 414.955 40.9731 414.736 40.9927 414.514C41.0161 414.291 41.0298 414.078 41.0337 413.875V412.891Z" fill="#00384F"/>
<path d="M33.4238 410.043H30.7871V417.648H29.7324V410.043H27.0957V409.117H33.4238V410.043Z" fill="#00384F"/>
<path d="M289.279 413.148C289.832 413.148 290.279 413.596 290.279 414.148C290.279 414.701 289.832 415.148 289.279 415.148H286.904C286.352 415.148 285.904 414.701 285.904 414.148C285.904 413.596 286.352 413.148 286.904 413.148H289.279ZM298.779 413.148C299.332 413.148 299.779 413.596 299.779 414.148C299.779 414.701 299.332 415.148 298.779 415.148H294.029C293.477 415.148 293.029 414.701 293.029 414.148C293.029 413.596 293.477 413.148 294.029 413.148H298.779ZM308.279 413.148C308.832 413.148 309.279 413.596 309.279 414.148C309.279 414.701 308.832 415.148 308.279 415.148H303.529C302.977 415.148 302.529 414.701 302.529 414.148C302.529 413.596 302.977 413.148 303.529 413.148H308.279ZM317.779 413.148C318.332 413.148 318.779 413.596 318.779 414.148C318.779 414.701 318.332 415.148 317.779 415.148H313.029C312.477 415.148 312.029 414.701 312.029 414.148C312.029 413.596 312.477 413.148 313.029 413.148H317.779ZM324.904 413.148C325.457 413.148 325.904 413.596 325.904 414.148C325.904 414.701 325.457 415.148 324.904 415.148H322.529C321.977 415.148 321.529 414.701 321.529 414.148C321.529 413.596 321.977 413.148 322.529 413.148H324.904Z" fill="#00384F"/>
<path d="M231.96 441.648L231.96 433.117L233.935 433.117C234.267 433.121 234.58 433.156 234.873 433.223C235.169 433.285 235.443 433.375 235.693 433.492C236.041 433.652 236.347 433.863 236.613 434.125C236.882 434.383 237.097 434.682 237.257 435.021C237.402 435.311 237.511 435.627 237.585 435.971C237.664 436.314 237.705 436.682 237.708 437.072L237.708 437.699C237.708 438.074 237.671 438.43 237.597 438.766C237.527 439.102 237.423 439.41 237.287 439.691C237.146 439.984 236.968 440.25 236.753 440.488C236.539 440.727 236.298 440.93 236.033 441.098C235.751 441.273 235.433 441.408 235.078 441.502C234.726 441.596 234.345 441.645 233.935 441.648L231.96 441.648ZM233.062 434.008L233.062 440.764L233.935 440.764C234.248 440.76 234.531 440.721 234.785 440.646C235.042 440.572 235.271 440.467 235.47 440.33C235.681 440.189 235.863 440.018 236.015 439.814C236.171 439.607 236.294 439.377 236.384 439.123C236.462 438.916 236.521 438.693 236.56 438.455C236.599 438.213 236.621 437.961 236.625 437.699L236.625 437.061C236.621 436.795 236.597 436.541 236.554 436.299C236.515 436.053 236.455 435.824 236.373 435.613C236.267 435.34 236.125 435.094 235.945 434.875C235.769 434.652 235.552 434.473 235.294 434.336C235.111 434.234 234.906 434.156 234.679 434.102C234.453 434.043 234.205 434.012 233.935 434.008L233.062 434.008Z" fill="#00384F"/>
<path d="M227.878 437.705L224.315 437.705L224.315 440.729L228.47 440.729L228.47 441.648L223.231 441.648L223.231 433.117L228.417 433.117L228.417 434.043L224.315 434.043L224.315 436.785L227.878 436.785L227.878 437.705Z" fill="#00384F"/>
<path d="M215.522 440.729L219.694 440.729L219.694 441.648L214.438 441.648L214.438 433.117L215.522 433.117L215.522 440.729Z" fill="#00384F"/>
<path d="M206.635 440.729L210.807 440.729L210.807 441.648L205.551 441.648L205.551 433.117L206.635 433.117L206.635 440.729Z" fill="#00384F"/>
<path d="M200.596 439.439L197.748 439.439L197.062 441.648L195.979 441.648L198.732 433.117L199.641 433.117L202.348 441.648L201.27 441.648L200.596 439.439ZM198.041 438.496L200.309 438.496L199.184 434.793L198.041 438.496Z" fill="#00384F"/>
<path d="M193.391 434.043L190.754 434.043L190.754 441.648L189.699 441.648L189.699 434.043L187.062 434.043L187.062 433.117L193.391 433.117L193.391 434.043Z" fill="#00384F"/>
<path d="M183.214 439.492C183.214 439.23 183.154 439.01 183.033 438.83C182.916 438.65 182.763 438.498 182.576 438.373C182.388 438.252 182.181 438.15 181.955 438.068C181.732 437.986 181.517 437.912 181.31 437.846C181.009 437.748 180.703 437.631 180.39 437.494C180.082 437.354 179.8 437.186 179.546 436.99C179.289 436.791 179.078 436.557 178.914 436.287C178.753 436.014 178.673 435.693 178.673 435.326C178.673 434.959 178.753 434.631 178.914 434.342C179.078 434.053 179.291 433.809 179.552 433.609C179.814 433.41 180.111 433.26 180.443 433.158C180.775 433.053 181.109 433 181.445 433C181.816 433 182.173 433.063 182.517 433.188C182.861 433.309 183.166 433.48 183.431 433.703C183.697 433.926 183.91 434.195 184.07 434.512C184.23 434.828 184.314 435.182 184.322 435.572L183.208 435.572C183.177 435.326 183.117 435.104 183.027 434.904C182.937 434.701 182.818 434.527 182.669 434.383C182.521 434.238 182.343 434.127 182.136 434.049C181.933 433.967 181.703 433.926 181.445 433.926C181.238 433.926 181.035 433.955 180.835 434.014C180.64 434.072 180.466 434.16 180.314 434.277C180.158 434.395 180.033 434.539 179.939 434.711C179.849 434.883 179.804 435.082 179.804 435.309C179.808 435.555 179.871 435.764 179.992 435.936C180.113 436.104 180.267 436.246 180.455 436.363C180.638 436.48 180.837 436.578 181.052 436.656C181.271 436.734 181.476 436.803 181.667 436.861C181.984 436.959 182.3 437.078 182.617 437.219C182.933 437.355 183.222 437.531 183.484 437.746C183.742 437.945 183.949 438.189 184.105 438.479C184.265 438.768 184.345 439.102 184.345 439.48C184.345 439.863 184.259 440.197 184.087 440.482C183.919 440.768 183.701 441.004 183.431 441.191C183.162 441.383 182.857 441.527 182.517 441.625C182.177 441.719 181.837 441.766 181.498 441.766C181.091 441.766 180.691 441.697 180.296 441.561C179.906 441.424 179.566 441.227 179.277 440.969C179.019 440.746 178.814 440.486 178.662 440.189C178.513 439.889 178.433 439.555 178.421 439.188L179.529 439.188C179.564 439.453 179.636 439.689 179.746 439.896C179.855 440.1 179.996 440.271 180.167 440.412C180.339 440.557 180.537 440.666 180.759 440.74C180.986 440.811 181.232 440.846 181.498 440.846C181.708 440.846 181.916 440.82 182.119 440.77C182.326 440.715 182.509 440.631 182.669 440.518C182.83 440.408 182.96 440.27 183.062 440.102C183.164 439.93 183.214 439.727 183.214 439.492Z" fill="#00384F"/>
<path d="M175.206 441.648L174.104 441.648L170.794 435.273L170.776 441.648L169.681 441.648L169.681 433.117L170.782 433.117L174.093 439.48L174.11 433.117L175.206 433.117L175.206 441.648Z" fill="#00384F"/>
<path d="M160.976 433.117L166.132 433.117L166.132 434.061L164.087 434.061L164.087 440.711L166.132 440.711L166.132 441.648L160.976 441.648L160.976 440.711L162.974 440.711L162.974 434.061L160.976 434.061L160.976 433.117Z" fill="#00384F"/>
<path d="M147.666 439.492C147.666 439.23 147.605 439.01 147.484 438.83C147.367 438.65 147.215 438.498 147.027 438.373C146.84 438.252 146.633 438.15 146.406 438.068C146.184 437.986 145.969 437.912 145.762 437.846C145.461 437.748 145.154 437.631 144.842 437.494C144.533 437.354 144.252 437.186 143.998 436.99C143.74 436.791 143.529 436.557 143.365 436.287C143.205 436.014 143.125 435.693 143.125 435.326C143.125 434.959 143.205 434.631 143.365 434.342C143.529 434.053 143.742 433.809 144.004 433.609C144.266 433.41 144.562 433.26 144.895 433.158C145.227 433.053 145.561 433 145.896 433C146.268 433 146.625 433.063 146.969 433.188C147.312 433.309 147.617 433.48 147.883 433.703C148.148 433.926 148.361 434.195 148.521 434.512C148.682 434.828 148.766 435.182 148.773 435.572L147.66 435.572C147.629 435.326 147.568 435.104 147.479 434.904C147.389 434.701 147.27 434.527 147.121 434.383C146.973 434.238 146.795 434.127 146.588 434.049C146.385 433.967 146.154 433.926 145.896 433.926C145.689 433.926 145.486 433.955 145.287 434.014C145.092 434.072 144.918 434.16 144.766 434.277C144.609 434.395 144.484 434.539 144.391 434.711C144.301 434.883 144.256 435.082 144.256 435.309C144.26 435.555 144.322 435.764 144.443 435.936C144.564 436.104 144.719 436.246 144.906 436.363C145.09 436.48 145.289 436.578 145.504 436.656C145.723 436.734 145.928 436.803 146.119 436.861C146.436 436.959 146.752 437.078 147.068 437.219C147.385 437.355 147.674 437.531 147.936 437.746C148.193 437.945 148.4 438.189 148.557 438.479C148.717 438.768 148.797 439.102 148.797 439.48C148.797 439.863 148.711 440.197 148.539 440.482C148.371 440.768 148.152 441.004 147.883 441.191C147.613 441.383 147.309 441.527 146.969 441.625C146.629 441.719 146.289 441.766 145.949 441.766C145.543 441.766 145.143 441.697 144.748 441.561C144.357 441.424 144.018 441.227 143.729 440.969C143.471 440.746 143.266 440.486 143.113 440.189C142.965 439.889 142.885 439.555 142.873 439.188L143.98 439.188C144.016 439.453 144.088 439.689 144.197 439.896C144.307 440.1 144.447 440.271 144.619 440.412C144.791 440.557 144.988 440.666 145.211 440.74C145.437 440.811 145.684 440.846 145.949 440.846C146.16 440.846 146.367 440.82 146.57 440.77C146.777 440.715 146.961 440.631 147.121 440.518C147.281 440.408 147.412 440.27 147.514 440.102C147.615 439.93 147.666 439.727 147.666 439.492Z" fill="#00384F"/>
<path d="M139.008 437.705L135.445 437.705L135.445 440.729L139.6 440.729L139.6 441.648L134.361 441.648L134.361 433.117L139.547 433.117L139.547 434.043L135.445 434.043L135.445 436.785L139.008 436.785L139.008 437.705Z" fill="#00384F"/>
<path d="M125.427 433.117L130.583 433.117L130.583 434.061L128.539 434.061L128.539 440.711L130.583 440.711L130.583 441.648L125.427 441.648L125.427 440.711L127.425 440.711L127.425 434.061L125.427 434.061L125.427 433.117Z" fill="#00384F"/>
<path d="M119.364 438.168L117.659 438.168L117.659 441.648L116.581 441.648L116.581 433.117L119.083 433.117C119.481 433.125 119.856 433.182 120.208 433.287C120.56 433.393 120.868 433.551 121.134 433.762C121.396 433.973 121.601 434.238 121.749 434.559C121.901 434.875 121.978 435.248 121.978 435.678C121.978 435.955 121.937 436.209 121.854 436.439C121.776 436.67 121.667 436.879 121.526 437.066C121.386 437.254 121.218 437.42 121.022 437.564C120.827 437.709 120.612 437.832 120.378 437.934L122.188 441.578L122.183 441.648L121.04 441.648L119.364 438.168ZM117.659 437.277L119.112 437.277C119.354 437.273 119.583 437.236 119.798 437.166C120.013 437.092 120.202 436.986 120.366 436.85C120.526 436.713 120.653 436.547 120.747 436.352C120.841 436.152 120.888 435.924 120.888 435.666C120.888 435.393 120.843 435.154 120.753 434.951C120.663 434.744 120.538 434.57 120.378 434.43C120.218 434.293 120.026 434.189 119.804 434.119C119.585 434.049 119.345 434.012 119.083 434.008L117.659 434.008L117.659 437.277Z" fill="#00384F"/>
<path d="M113.202 437.875C113.198 438.18 113.171 438.488 113.12 438.801C113.073 439.109 112.999 439.408 112.897 439.697C112.796 439.986 112.665 440.256 112.505 440.506C112.349 440.756 112.161 440.975 111.942 441.162C111.724 441.35 111.472 441.498 111.187 441.607C110.905 441.713 110.589 441.766 110.237 441.766C109.886 441.766 109.567 441.713 109.282 441.607C109.001 441.498 108.751 441.35 108.532 441.162C108.313 440.975 108.124 440.756 107.964 440.506C107.804 440.252 107.673 439.98 107.571 439.691C107.466 439.402 107.388 439.104 107.337 438.795C107.286 438.486 107.259 438.18 107.255 437.875L107.255 436.902C107.259 436.598 107.284 436.291 107.331 435.982C107.382 435.67 107.46 435.369 107.565 435.08C107.667 434.791 107.796 434.521 107.952 434.271C108.112 434.018 108.302 433.795 108.521 433.604C108.739 433.416 108.989 433.27 109.271 433.164C109.556 433.055 109.874 433 110.226 433C110.577 433 110.896 433.055 111.181 433.164C111.466 433.27 111.718 433.416 111.937 433.604C112.155 433.791 112.343 434.012 112.499 434.266C112.659 434.516 112.792 434.785 112.897 435.074C112.999 435.363 113.073 435.664 113.12 435.977C113.171 436.289 113.198 436.598 113.202 436.902L113.202 437.875ZM112.13 436.891C112.126 436.688 112.112 436.477 112.089 436.258C112.065 436.035 112.026 435.814 111.972 435.596C111.913 435.381 111.837 435.176 111.743 434.98C111.649 434.781 111.532 434.605 111.392 434.453C111.251 434.305 111.085 434.188 110.894 434.102C110.702 434.012 110.479 433.967 110.226 433.967C109.976 433.967 109.755 434.012 109.563 434.102C109.372 434.191 109.206 434.311 109.065 434.459C108.925 434.611 108.808 434.787 108.714 434.986C108.62 435.182 108.546 435.387 108.491 435.602C108.433 435.82 108.39 436.041 108.362 436.264C108.339 436.482 108.325 436.691 108.321 436.891L108.321 437.875C108.325 438.074 108.339 438.285 108.362 438.508C108.39 438.73 108.433 438.949 108.491 439.164C108.55 439.383 108.626 439.592 108.72 439.791C108.813 439.99 108.931 440.164 109.071 440.313C109.212 440.465 109.378 440.586 109.569 440.676C109.761 440.766 109.983 440.811 110.237 440.811C110.491 440.811 110.714 440.766 110.905 440.676C111.101 440.586 111.269 440.465 111.409 440.313C111.546 440.164 111.659 439.992 111.749 439.797C111.843 439.598 111.919 439.389 111.978 439.17C112.032 438.955 112.069 438.736 112.089 438.514C112.112 438.291 112.126 438.078 112.13 437.875L112.13 436.891Z" fill="#00384F"/>
<path d="M104.52 434.043L101.883 434.043L101.883 441.648L100.829 441.648L100.829 434.043L98.1919 434.043L98.1919 433.117L104.52 433.117L104.52 434.043Z" fill="#00384F"/>
<path d="M95.4043 439.082C95.3535 439.477 95.2519 439.84 95.0996 440.172C94.9473 440.5 94.75 440.781 94.5078 441.016C94.2617 441.254 93.9707 441.439 93.6348 441.572C93.3027 441.701 92.9316 441.766 92.5215 441.766C92.1699 441.766 91.8496 441.717 91.5605 441.619C91.2754 441.518 91.0215 441.379 90.7988 441.203C90.5723 441.027 90.377 440.82 90.2129 440.582C90.0527 440.344 89.9199 440.084 89.8145 439.803C89.7051 439.521 89.623 439.227 89.5684 438.918C89.5176 438.609 89.4902 438.297 89.4863 437.98L89.4863 436.791C89.4902 436.475 89.5176 436.162 89.5684 435.854C89.623 435.545 89.7051 435.25 89.8145 434.969C89.9199 434.688 90.0527 434.428 90.2129 434.189C90.377 433.947 90.5723 433.738 90.7988 433.563C91.0215 433.387 91.2754 433.25 91.5605 433.152C91.8457 433.051 92.166 433 92.5215 433C92.9473 433 93.3281 433.066 93.6641 433.199C94 433.328 94.2891 433.512 94.5312 433.75C94.7734 433.992 94.9668 434.281 95.1113 434.617C95.2598 434.953 95.3574 435.324 95.4043 435.73L94.3203 435.73C94.2852 435.473 94.2246 435.232 94.1387 435.01C94.0527 434.787 93.9375 434.592 93.793 434.424C93.6484 434.256 93.4707 434.125 93.2598 434.031C93.0527 433.934 92.8066 433.885 92.5215 433.885C92.2637 433.885 92.0352 433.928 91.8359 434.014C91.6406 434.096 91.4727 434.209 91.332 434.354C91.1875 434.498 91.0664 434.666 90.9687 434.857C90.875 435.049 90.7988 435.252 90.7402 435.467C90.6816 435.682 90.6387 435.902 90.6113 436.129C90.5879 436.352 90.5762 436.568 90.5762 436.779L90.5762 437.98C90.5762 438.191 90.5879 438.41 90.6113 438.637C90.6387 438.859 90.6816 439.078 90.7402 439.293C90.7988 439.512 90.875 439.717 90.9687 439.908C91.0625 440.1 91.1816 440.268 91.3262 440.412C91.4707 440.561 91.6406 440.678 91.8359 440.764C92.0312 440.846 92.2598 440.887 92.5215 440.887C92.8066 440.887 93.0527 440.842 93.2598 440.752C93.4707 440.662 93.6484 440.535 93.793 440.371C93.9375 440.211 94.0527 440.021 94.1387 439.803C94.2246 439.58 94.2852 439.34 94.3203 439.082L95.4043 439.082Z" fill="#00384F"/>
<path d="M85.0645 439.439L82.2168 439.439L81.5312 441.648L80.4473 441.648L83.2012 433.117L84.1094 433.117L86.8164 441.648L85.7383 441.648L85.0645 439.439ZM82.5098 438.496L84.7773 438.496L83.6523 434.793L82.5098 438.496Z" fill="#00384F"/>
<path d="M76.8511 437.881L73.3003 437.881L73.3003 441.648L72.2046 441.648L72.2046 433.117L77.4429 433.117L77.4429 434.043L73.3003 434.043L73.3003 436.961L76.8511 436.961L76.8511 437.881Z" fill="#00384F"/>
<path d="M67.9585 438.361L63.4761 438.361L63.4761 437.471L67.9585 437.471L67.9585 438.361Z" fill="#00384F"/>
<path d="M54.3311 433.117L59.4873 433.117L59.4873 434.061L57.4424 434.061L57.4424 440.711L59.4873 440.711L59.4873 441.648L54.3311 441.648L54.3311 440.711L56.3291 440.711L56.3291 434.061L54.3311 434.061L54.3311 433.117Z" fill="#00384F"/>
<path d="M50.7876 441.648L49.686 441.648L46.3755 435.273L46.3579 441.648L45.2622 441.648L45.2622 433.117L46.3638 433.117L49.6743 439.48L49.6919 433.117L50.7876 433.117L50.7876 441.648Z" fill="#00384F"/>
<path d="M36.5571 433.117L41.7134 433.117L41.7134 434.061L39.6685 434.061L39.6685 440.711L41.7134 440.711L41.7134 441.648L36.5571 441.648L36.5571 440.711L38.5552 440.711L38.5552 434.061L36.5571 434.061L36.5571 433.117Z" fill="#00384F"/>
<path d="M28.8594 433.117L30.248 437.383L31.748 433.117L33.0957 433.117L33.0957 441.648L32.041 441.648L32.041 438.244L32.1289 434.682L30.5527 439.275L29.9316 439.275L28.4844 434.805L28.5723 438.244L28.5723 441.648L27.5176 441.648L27.5176 433.117L28.8594 433.117Z" fill="#00384F"/>
<path d="M324.904 436.648C325.457 436.648 325.904 437.096 325.904 437.648C325.904 438.201 325.457 438.648 324.904 438.648H286.904C286.352 438.648 285.904 438.201 285.904 437.648C285.904 437.096 286.352 436.648 286.904 436.648H324.904Z" fill="#0B0B1C"/>
<path d="M47.8281 369C235.689 336.935 208.937 163.616 305.171 59.25" stroke="#00384F" stroke-width="2" stroke-linejoin="round" stroke-dasharray="5 7"/>
</svg>
