<svg width="60" height="51" viewBox="0 0 60 51" fill="none" xmlns="http://www.w3.org/2000/svg">
<g clip-path="url(#clip0_3403_276)">
<path d="M50.0823 19.0547C49.8603 19.1098 49.7216 19.3359 49.7771 19.5564C50.2599 21.4917 50.5041 23.4876 50.5041 25.5C50.5041 39.1018 39.3655 50.173 25.6683 50.173C11.9711 50.173 0.832485 39.1018 0.832485 25.5C0.832485 11.8982 11.9711 0.827027 25.6683 0.827027C32.9331 0.827027 39.815 3.97524 44.5435 9.4667C44.6934 9.64314 44.9542 9.65968 45.1318 9.51081C45.3094 9.36195 45.3261 9.10281 45.1762 8.92638C40.2867 3.25297 33.1773 0 25.6683 0C11.516 0 0 11.4405 0 25.5C0 39.5595 11.516 51 25.6683 51C39.8206 51 51.3366 39.5595 51.3366 25.5C51.3366 23.4214 51.0869 21.3538 50.5874 19.3579C50.5319 19.1374 50.3099 18.9996 50.0823 19.0547Z" fill="#F5F5F2"/>
<path d="M16.6215 26.0404L16.0332 26.6248L26.2284 36.7532L59.9995 3.20894L59.4057 2.62451L26.2284 35.5843L16.6215 26.0404Z" fill="#F5F5F2"/>
</g>
<defs>
<clipPath id="clip0_3403_276">
<rect width="60" height="51" fill="white"/>
</clipPath>
</defs>
</svg>
