<svg width="53" height="56" viewBox="0 0 53 56" fill="none" xmlns="http://www.w3.org/2000/svg">
<g clip-path="url(#clip0_3403_293)">
<path d="M45.6561 45.2786V2.83566H42.8949V0H0V47.9532C0 52.3878 3.59749 56 8.01416 56H48.1136C50.8117 56 53.0057 53.797 53.0057 51.0879V45.2728H45.6618L45.6561 45.2786ZM8.01416 55.4248C3.91256 55.4248 0.572849 52.0715 0.572849 47.9532V0.575185H42.3164V50.2999V51.0937C42.3164 52.9688 43.3704 54.6023 44.9171 55.4306H8.01416V55.4248ZM42.8949 51.0937V45.5661V3.41085H45.0832V48.1257C45.0832 48.4881 45.066 48.8907 45.0488 49.3106C44.9629 51.387 44.8598 54.0961 46.6815 55.3903C44.5505 55.1257 42.8949 53.3024 42.8949 51.0937ZM52.4271 51.0937C52.4271 53.2621 50.8346 55.0624 48.7609 55.3788C48.3599 55.4421 47.9417 55.3961 47.5694 55.235C45.4155 54.309 45.5243 51.5711 45.6217 49.3336C45.6389 48.9022 45.6561 48.4938 45.6561 48.1257V45.8537H52.4271V51.0937ZM35.9004 14.2301C35.9004 14.3911 35.7744 14.5177 35.614 14.5177H17.7755C17.6151 14.5177 17.4891 14.3911 17.4891 14.2301C17.4891 14.069 17.6151 13.9425 17.7755 13.9425H35.614C35.7744 13.9425 35.9004 14.069 35.9004 14.2301ZM35.9004 27.1832C35.9004 27.3443 35.7744 27.4708 35.614 27.4708H17.7755C17.6151 27.4708 17.4891 27.3443 17.4891 27.1832C17.4891 27.0222 17.6151 26.8956 17.7755 26.8956H35.614C35.7744 26.8956 35.9004 27.0222 35.9004 27.1832ZM14.8998 9.80115L12.1845 12.5275C11.4684 11.2564 10.1165 10.3993 8.56409 10.3993C6.2727 10.3993 4.41094 12.2687 4.41094 14.5694C4.41094 16.8702 6.2727 18.7395 8.56409 18.7395C10.8555 18.7395 12.7172 16.8702 12.7172 14.5694C12.7172 14.046 12.6141 13.5456 12.4366 13.0797L15.2951 10.2095C15.4096 10.0945 15.4096 9.91619 15.2951 9.80115C15.1805 9.68611 15.0029 9.68611 14.8883 9.80115H14.8998ZM8.56982 18.1643C6.59349 18.1643 4.98952 16.5481 4.98952 14.5694C4.98952 12.5908 6.59349 10.9745 8.56982 10.9745C9.96757 10.9745 11.1763 11.7798 11.7663 12.9532L8.60419 16.1282L6.85127 14.3681C6.7367 14.2531 6.55912 14.2531 6.44455 14.3681C6.32998 14.4832 6.32998 14.6615 6.44455 14.7765L8.60419 16.9449L12.0012 13.5341C12.0986 13.862 12.1559 14.2128 12.1559 14.5752C12.1559 16.5596 10.5462 18.1701 8.57555 18.1701L8.56982 18.1643ZM14.8998 22.6853L12.1329 25.4634C11.4054 24.244 10.0821 23.4215 8.56982 23.4215C6.27843 23.4215 4.41667 25.2909 4.41667 27.5916C4.41667 29.8924 6.27843 31.7617 8.56982 31.7617C10.8612 31.7617 12.723 29.8924 12.723 27.5916C12.723 27.0279 12.6084 26.4873 12.4079 25.9984L15.3065 23.0879C15.4211 22.9729 15.4211 22.7946 15.3065 22.6795C15.192 22.5645 15.0144 22.5645 14.8998 22.6795V22.6853ZM8.56982 31.1923C6.59349 31.1923 4.98952 29.576 4.98952 27.5974C4.98952 25.6187 6.59349 24.0025 8.56982 24.0025C9.92747 24.0025 11.1133 24.7675 11.7205 25.8833L8.60419 29.0123L6.85127 27.2523C6.7367 27.1372 6.55912 27.1372 6.44455 27.2523C6.32998 27.3673 6.32998 27.5456 6.44455 27.6606L8.60419 29.8291L11.9611 26.4585C12.0814 26.8209 12.1501 27.2005 12.1501 27.6031C12.1501 29.5875 10.5404 31.198 8.56982 31.198V31.1923ZM35.9004 40.1422C35.9004 40.3032 35.7744 40.4297 35.614 40.4297H17.7755C17.6151 40.4297 17.4891 40.3032 17.4891 40.1422C17.4891 39.9811 17.6151 39.8546 17.7755 39.8546H35.614C35.7744 39.8546 35.9004 39.9811 35.9004 40.1422ZM14.8998 35.6442L12.1329 38.4224C11.4054 37.203 10.0821 36.3804 8.56982 36.3804C6.27843 36.3804 4.41667 38.2498 4.41667 40.5505C4.41667 42.8513 6.27843 44.7206 8.56982 44.7206C10.8612 44.7206 12.723 42.8513 12.723 40.5505C12.723 39.9869 12.6084 39.4519 12.4079 38.9573L15.3065 36.0468C15.4211 35.9318 15.4211 35.7535 15.3065 35.6385C15.192 35.5234 15.0144 35.5234 14.8998 35.6385V35.6442ZM8.56982 44.1512C6.59349 44.1512 4.98952 42.5349 4.98952 40.5563C4.98952 38.5777 6.59349 36.9614 8.56982 36.9614C9.92747 36.9614 11.1133 37.7264 11.7205 38.8422L8.60419 41.9712L6.85127 40.2112C6.7367 40.0961 6.55912 40.0961 6.44455 40.2112C6.32998 40.3262 6.32998 40.5045 6.44455 40.6196L8.60419 42.788L11.9611 39.4174C12.0814 39.7798 12.1501 40.1594 12.1501 40.562C12.1501 42.5464 10.5404 44.1569 8.56982 44.1569V44.1512Z" fill="#F5F5F2"/>
</g>
<defs>
<clipPath id="clip0_3403_293">
<rect width="53" height="56" fill="white"/>
</clipPath>
</defs>
</svg>
