<svg width="47" height="50" viewBox="0 0 47 50" fill="none" xmlns="http://www.w3.org/2000/svg">
<g clip-path="url(#clip0_3403_300)">
<path d="M23.4539 49.9998C19.8166 49.9998 16.1285 49.1595 12.6843 47.3932C1.18322 41.4904 -3.3278 27.4153 2.63102 16.0224C5.79585 9.97871 11.4499 5.62082 18.1453 4.06587C18.3485 4.02058 18.5568 4.14638 18.6025 4.34767C18.6482 4.54896 18.5212 4.75528 18.318 4.80057C11.8359 6.3052 6.36481 10.5222 3.30666 16.3696C-2.45912 27.3952 1.90458 41.0123 13.0348 46.7239C24.1651 52.4354 37.9115 48.1128 43.6773 37.0872C49.4431 26.0616 45.0794 12.4445 33.9491 6.73294C32.3032 5.88753 30.5658 5.2434 28.7828 4.8207C28.5796 4.77038 28.4526 4.56909 28.5034 4.3678C28.5542 4.16651 28.7625 4.04071 28.9606 4.09103C30.8046 4.52883 32.6029 5.19308 34.2996 6.06869C39.8724 8.92698 43.9872 13.768 45.8871 19.6909C47.787 25.6138 47.2434 31.9191 44.3529 37.4395C40.1772 45.4205 31.9578 50.0049 23.4539 50.0049V49.9998Z" fill="#F5F5F2"/>
<path d="M23.4894 21.7291C23.2811 21.7291 23.1084 21.558 23.1084 21.3517V0.377415C23.1084 0.171095 23.2811 0 23.4894 0C23.6977 0 23.8704 0.171095 23.8704 0.377415V21.3517C23.8704 21.558 23.6977 21.7291 23.4894 21.7291Z" fill="#F5F5F2"/>
</g>
<defs>
<clipPath id="clip0_3403_300">
<rect width="47" height="50" fill="white"/>
</clipPath>
</defs>
</svg>
